<?xml version="1.0" standalone="no"?>
<!DOCTYPE svg PUBLIC "-//W3C//DTD SVG 1.1//EN" "http://www.w3.org/Graphics/SVG/1.1/DTD/svg11.dtd" >
<svg xmlns="http://www.w3.org/2000/svg">
<metadata>
This is a custom SVG webfont generated by Font Squirrel.
Designer    : Barbara Lind
Foundry URL : httpwwwadobecomtype
</metadata>
<defs>
<font id="webfontbwaYApJ1" horiz-adv-x="452" >
<font-face units-per-em="1000" ascent="765" descent="-235" />
<missing-glyph horiz-adv-x="100" />
<glyph unicode=" "  horiz-adv-x="100" />
<glyph unicode="&#x09;" horiz-adv-x="100" />
<glyph unicode="&#xa0;" horiz-adv-x="100" />
<glyph unicode="!" horiz-adv-x="216" d="M180 139v-128q0 -11 -11 -11h-122q-10 0 -10 12v124q0 4 3.5 7.5t6.5 3.5h123q10 0 10 -8zM37 191l-22 550q0 9 8 9h168q10 0 10 -9l-21 -548q0 -4 -3.5 -8.5t-7.5 -4.5h-121q-9 0 -11 11z" />
<glyph unicode="&#x22;" horiz-adv-x="415" d="M42 750h124q10 0 10 -11l-16 -169q0 -6 -8 -6h-95q-9 0 -9 7l-16 168q0 3 3 7t7 4zM249 750h124q10 0 10 -11l-16 -169q0 -6 -8 -6h-95q-9 0 -9 7l-16 168q0 3 3 7t7 4z" />
<glyph unicode="#" horiz-adv-x="522" d="M171 0h-109l32 198h-80v122h96l17 79h-81v121h95l34 195h107l-31 -195h66l31 195h112l-32 -195h80v-121h-95l-19 -79h81v-122h-95l-34 -198h-106l30 198h-67zM218 320h67l17 79h-67z" />
<glyph unicode="$" horiz-adv-x="426" d="M262 56v-58q0 -8 -8 -8h-72q-6 0 -7 10t-1 57q-160 29 -160 206q0 7 8 9l127 7q9 0 11 -11q11 -56 46 -56q22 0 22 22q0 19 -21 40t-82 65q-94 68 -94 172q0 60 38 110.5t105 64.5v55q0 9 7 9h73q6 0 7 -9.5t1 -55.5q68 -14 108 -65t40 -118q0 -9 -11 -11l-137 -7 q-3 0 -16 19t-17 19q-13 0 -13 -15q0 -16 20.5 -35.5t79.5 -64.5q95 -72 95 -165q0 -75 -39.5 -123.5t-109.5 -62.5z" />
<glyph unicode="%" horiz-adv-x="700" d="M14 428v181q0 53 39.5 92t98.5 39q62 0 100.5 -39t38.5 -92v-181q0 -57 -40.5 -95t-98.5 -38t-98 38t-40 95zM136 600v-162q0 -20 17 -20q16 0 16 19v163q0 18 -16 18q-17 0 -17 -18zM409 133v181q0 53 39.5 92t98.5 39q62 0 100.5 -39t38.5 -92v-181q0 -57 -40.5 -95 t-98.5 -38t-98 38t-40 95zM531 305v-162q0 -20 17 -20q16 0 16 19v163q0 18 -16 18q-17 0 -17 -18zM255 9l99 730q2 9 9 9h78q8 0 6 -9l-100 -732q-1 -9 -11 -9h-75q-8 0 -6 11z" />
<glyph unicode="&#x26;" horiz-adv-x="524" d="M450 193l65 -124q2 -6 2 -8q0 -6 -15 -20.5t-42 -27.5t-53 -13q-48 0 -80 52q-5 8 -11 8t-14 -9q-44 -51 -117 -51q-74 0 -122.5 55t-48.5 146q0 138 95 202q11 8 11 14q0 8 -4 16q-12 20 -24.5 62t-12.5 84q0 80 50.5 125.5t123.5 45.5t119 -41.5t46 -103.5 q0 -93 -82 -159q-8 -6 -8 -16q0 -4 5 -16l39 -77q3 -8 9 -8q2 0 9 7l60 73q3 3 6 3q4 0 9 -5l54 -78q2 -4 2 -9q0 -8 -4 -12l-65 -78q-9 -10 -9 -17q0 -6 7 -20zM234 196l-47 97q-1 3 -4 3q-4 0 -8.5 -9t-4.5 -19q0 -20 15.5 -52t33.5 -32q3 0 6.5 1t7 4t1.5 7zM268 551 q1 -2 4 -2q5 0 10.5 11.5t5.5 24.5q0 24 -17 24q-15 0 -15 -22q0 -18 12 -36z" />
<glyph unicode="'" horiz-adv-x="208" d="M42 750h124q10 0 10 -11l-16 -169q0 -6 -8 -6h-95q-9 0 -9 7l-16 168q0 3 3 7t7 4z" />
<glyph unicode="(" horiz-adv-x="226" d="M156 447v-116q0 -98 20.5 -200t50.5 -171q1 -2 1 -5q0 -4 -5 -4h-129q-11 0 -30 57t-34.5 150t-15.5 176v116q0 73 15.5 157.5t35 138.5t32.5 54h125q7 0 5 -7q-31 -72 -51 -169t-20 -177z" />
<glyph unicode=")" horiz-adv-x="226" d="M70 331v116q0 80 -20 177t-51 170q-1 2 -1 3q0 3 6 3h125q13 0 32.5 -54t35 -138.5t15.5 -157.5v-116q0 -83 -15.5 -176t-34.5 -150t-30 -57h-129q-5 0 -5 5q0 2 1 4q30 69 50.5 171t20.5 200z" />
<glyph unicode="*" horiz-adv-x="276" d="M178 656l46 38q1 1 3 1t3 -1l37 -53q2 -2 2 -3q0 -2 -3 -4l-70 -41q-4 -2 -4 -5q0 -2 4 -6l50 -71v-1l1 -2q0 -4 -3 -5l-53 -32q-1 -1 -4 -1q-2 0 -4 2l-42 79q-2 4 -3 4q-3 0 -3 -4l-43 -79q-2 -2 -4 -2t-3 1l-54 33q-5 3 -2 6l52 72l3 6q0 2 -5 5l-69 40q-2 1 -2 5 q0 2 1 4l36 51q2 3 6 2l47 -40l4 -2q4 0 2 5l-4 86q0 6 5 6h65q5 0 5 -5l-4 -86q0 -6 2 -6q1 0 2 1q2 2 3 2z" />
<glyph unicode="+" d="M414 236h-136v-199h-104v199h-136v107h136v193h104v-193h136v-107z" />
<glyph unicode="," horiz-adv-x="176" d="M31 118h128q7 0 7 -5q0 -2 -1 -5l-68 -169q-3 -6 -9 -6h-95q-9 0 -7 7l37 172q1 6 8 6z" />
<glyph unicode="-" horiz-adv-x="262" d="M20 430h222v-123h-222v123z" />
<glyph unicode="." horiz-adv-x="183" d="M163 139v-128q0 -11 -11 -11h-122q-4 0 -7 4t-3 8v124q0 4 3.5 7.5t6.5 3.5h123q10 0 10 -8z" />
<glyph unicode="/" horiz-adv-x="192" d="M0 11l99 730q1 9 9 9h77q7 0 7 -9l-101 -732q-1 -9 -11 -9h-74q-8 0 -6 11z" />
<glyph unicode="0" horiz-adv-x="446" d="M15 221v301q0 95 57 156.5t150 61.5t151 -61.5t58 -156.5v-301q0 -97 -58.5 -159t-150.5 -62q-93 0 -150 62t-57 159zM207 519v-294q0 -20 16 -20t16 20v293q0 20 -16 20t-16 -19z" />
<glyph unicode="1" horiz-adv-x="266" d="M45 7v508q0 6 -6 6q-20 0 -24.5 1t-4.5 6v204q0 8 9 8h219q8 0 8 -8v-724q0 -8 -7 -8h-187q-7 0 -7 7z" />
<glyph unicode="2" horiz-adv-x="430" d="M221 207h185q8 0 8 -9v-190q0 -8 -10 -8h-380q-9 0 -9 7v200q0 14 10 30q24 36 63 77.5t69 69t53 61t23 62.5q0 23 -14 23q-10 0 -18 -18t-8 -41q0 -8 -8 -8l-155 7q-9 1 -10.5 7.5t-1.5 37.5q0 96 52.5 160.5t144.5 64.5q93 0 149.5 -65t56.5 -157q0 -54 -13.5 -97 t-44.5 -79.5t-61 -61.5t-83 -62q-4 -4 -4 -7q0 -4 6 -4z" />
<glyph unicode="3" horiz-adv-x="448" d="M150 325v118q0 11 7.5 13t41.5 2q18 0 29 8.5t11 20.5q0 45 -2 54.5t-14 9.5t-14 -7.5t-2 -42.5q0 -10 -11 -10l-166 7q-8 0 -8 8q0 23 0.5 37t4.5 41.5t11 45.5t21.5 40.5t35.5 36.5t54 23.5t74 9.5q90 0 146 -52.5t56 -141.5q0 -57 -25.5 -98.5t-58.5 -57.5 q-11 -7 -11 -8q0 -2 13 -7q32 -11 61 -52t29 -100q0 -97 -58.5 -160t-151.5 -63q-92 0 -150.5 62.5t-58.5 158.5q0 34 1 41.5t5 7.5l180 7q7 0 7 -8q0 -45 2 -54.5t14 -9.5q16 0 16 20q0 42 -1.5 57t-10 23.5t-28.5 8.5q-34 0 -41.5 1.5t-7.5 9.5z" />
<glyph unicode="4" horiz-adv-x="450" d="M197 7v132q0 5 -5 5h-180q-7 0 -7 7v160q0 3 3 12l223 409q4 8 11 8h148q8 0 8 -8v-399q0 -16 18 -16q29 0 29 -11v-154q0 -8 -24 -8q-8 0 -15.5 -4t-7.5 -9v-124q0 -7 -8 -7h-186q-7 0 -7 7zM187 391l-35 -69q-1 -3 4 -4t35 -1q6 0 6 5v69q0 6 -4 6q-3 0 -6 -6z" />
<glyph unicode="5" horiz-adv-x="466" d="M22 330l37 403q2 7 8 7h372q6 0 6 -7l-19 -198q-1 -7 -9 -7l-230 15q-6 1 -9.5 -18t-3.5 -31q0 -3 2 -3q1 0 7 3q19 13 59 13q94 0 152.5 -70.5t58.5 -179.5q0 -125 -61.5 -191t-166.5 -66q-94 0 -152.5 67t-58.5 152v51q0 7 5 7l187 7q6 0 6 -7q0 -51 7 -56q3 -2 9 -2 q11 0 13.5 11t2.5 59q0 64 -47 64q-29 0 -38 -34q-3 -9 -12 -8l-117 10q-8 0 -8 9z" />
<glyph unicode="6" horiz-adv-x="458" d="M14 284v200q0 113 60 184.5t149 71.5q97 0 157 -62.5t60 -169.5q0 -8 -8 -10l-173 -7q-7 0 -7 9q0 54 -7 60q-4 2 -9 2t-10.5 -5t-5.5 -13v-172q0 -9 6 -9q4 0 12 8q29 31 74 31q57 0 94.5 -50t37.5 -137q0 -94 -61.5 -154.5t-147.5 -60.5q-109 0 -165 79.5t-56 204.5z M251 213v36q0 20 -15 20q-16 0 -16 -20v-37q0 -12 15 -12q16 0 16 13z" />
<glyph unicode="7" horiz-adv-x="358" d="M10 548v186q0 6 7 6h315q15 0 15 -7v-191q0 -9 -5 -19q-94 -165 -94 -515q0 -8 -8 -8h-209q-10 0 -10 12q0 68 38.5 249.5t97.5 265.5q5 8 5 11t-9 3h-137q-6 0 -6 7z" />
<glyph unicode="8" horiz-adv-x="448" d="M223 740q90 0 146 -53t56 -142q0 -57 -25.5 -99t-58.5 -57q-11 -5 -11 -8t13 -8q35 -15 63 -56t28 -100q0 -102 -59.5 -159.5t-151.5 -57.5t-150.5 57.5t-58.5 159.5q0 111 81 156q14 8 14 10q0 3 -13 9q-74 40 -74 159q0 86 55.5 137.5t145.5 51.5zM240 227v67 q0 8 -5.5 13.5t-11.5 5.5q-16 0 -16 -19v-67q0 -9 5 -14.5t12 -5.5q6 0 11 5.5t5 14.5zM240 469v62q0 8 -5.5 13.5t-11.5 5.5q-16 0 -16 -19v-62q0 -12 16 -12q17 0 17 12z" />
<glyph unicode="9" horiz-adv-x="454" d="M440 453v-200q0 -113 -60 -183t-149 -70q-97 0 -157 61.5t-60 168.5q0 9 7 9l173 7q8 0 8 -9l3 -49q1 -13 13 -13q16 0 16 19v167q0 13 -6 13q-4 0 -12 -8q-31 -31 -74 -31q-57 0 -94.5 50t-37.5 137q0 95 61.5 156.5t147.5 61.5q109 0 165 -80.5t56 -206.5zM203 524v-36 q0 -20 16 -20q15 0 15 20v35q0 15 -16 15q-15 0 -15 -14z" />
<glyph unicode=":" horiz-adv-x="184" d="M163 488v-128q0 -11 -11 -11h-122q-10 0 -10 12v124q0 4 3.5 7.5t6.5 3.5h123q10 0 10 -8zM163 139v-128q0 -11 -11 -11h-122q-10 0 -10 12v124q0 4 3.5 7.5t6.5 3.5h123q10 0 10 -8z" />
<glyph unicode=";" horiz-adv-x="184" d="M31 118h128q7 0 7 -5q0 -2 -1 -5l-68 -169q-3 -6 -9 -6h-95q-9 0 -7 7l37 172q1 6 8 6zM163 488v-128q0 -11 -11 -11h-122q-10 0 -10 12v124q0 4 3.5 7.5t6.5 3.5h123q10 0 10 -8z" />
<glyph unicode="&#x3c;" d="M413 16l-374 218v114l374 218v-122l-287 -151v-2l287 -152v-123z" />
<glyph unicode="=" d="M414 346h-376v107h376v-107zM414 125h-376v107h376v-107z" />
<glyph unicode="&#x3e;" d="M39 566l374 -218v-115l-374 -217v123l287 152v2l-287 151v122z" />
<glyph unicode="?" horiz-adv-x="422" d="M160 508l-150 7q-10 0 -10 10q0 99 59.5 162t155.5 63t151.5 -62.5t55.5 -162.5q0 -98 -94 -187q-35 -33 -55 -73.5t-24 -68.5q-1 -16 -14 -16h-125q-5 0 -9.5 5.5t-4.5 11.5q0 137 59 209q64 79 64 119q0 27 -17 27q-19 0 -27 -32q-3 -14 -15 -12zM243 139v-128 q0 -11 -11 -11h-122q-10 0 -10 12v124q0 4 3.5 7.5t6.5 3.5h123q10 0 10 -8z" />
<glyph unicode="@" horiz-adv-x="724" d="M491 -37l28 -77q-81 -48 -187 -48q-133 0 -215.5 104t-82.5 257q0 76 24 147t68.5 128t115.5 91t157 34q98 0 168 -47t102 -120t32 -162q0 -114 -48.5 -179t-132.5 -65q-85 0 -97 101h-3q-15 -39 -48.5 -70t-75.5 -31q-48 0 -77 42.5t-29 107.5q0 114 61 182t160 68 q79 0 131 -35l-27 -163q-5 -33 -5 -54q0 -16 2 -25q7 -22 31 -22q17 0 30.5 10.5t25 46t11.5 94.5q0 104 -59.5 173t-166.5 69q-41 0 -85 -22t-82 -60.5t-62 -100t-24 -133.5q0 -128 65.5 -206t153.5 -78q76 0 141 43zM388 255l16 66q-7 7 -21 7q-8 0 -17.5 -10.5 t-17.5 -34.5t-8 -55q0 -43 21 -43q8 0 13 14.5t14 55.5z" />
<glyph unicode="A" horiz-adv-x="472" d="M140 745h187q7 0 8 -9l136 -715v-4q0 -12 -9 -12h-160q-7 0 -8 6l-19 150q-3 10 -11 12h-3h-52q-6 -1 -10 -5q-2 -4 -3 -9l-18 -147q-1 -7 -8 -7h-163q-7 0 -7 8v3l133 721q2 5 5 7q1 1 2 1zM260 278l-13 96q-2 17 -5 22q-2 5 -6 5t-6.5 -5t-4.5 -22l-13 -95v-3 q0 -13 11 -13q27 0 31.5 2.5t5.5 7.5v2v3z" />
<glyph unicode="B" horiz-adv-x="418" d="M20 11v727q0 3 1 4q1 2 3 3h2h181q86 0 140 -54.5t54 -120.5q0 -20 -0.5 -32t-3 -33t-9 -35.5t-17 -31t-28 -28t-40.5 -18.5l-4 -1v-9l3 -2q46 -16 74 -61t28 -102q0 -212 -198 -212h-181q-4 0 -5 3v3zM186 596v-128q0 -5 3.5 -8.5t7.5 -3.5q11 0 21.5 8t10.5 26v86 q0 15 -10.5 23t-21.5 8t-11 -11zM186 303v-146q0 -12 11 -12q13 0 23 9.5t10 24.5v105q0 15 -10.5 23.5t-23.5 8.5q-2 0 -4 -1t-3 -2q-3 -3 -3 -10z" />
<glyph unicode="C" horiz-adv-x="453" d="M221 2q-94 0 -150.5 76.5t-56.5 186.5v199q0 133 57 208t155 75q99 0 156 -75.5t57 -187.5q0 -23 -1 -25h-3l-182 -7q-4 0 -8 4t-4 11v63q0 13 -6 18.5t-14 5.5t-14 -6.5t-6 -16.5v-311q0 -9 6 -15.5t14 -6.5q9 0 14.5 7t5.5 16v101q0 5 3 8q1 1 3 1l186 -7q3 0 3 -3 q0 -86 -16.5 -149.5t-47 -99.5t-68 -53t-83.5 -17z" />
<glyph unicode="D" horiz-adv-x="459" d="M210 5h-183q-3 0 -4 1q-1 0 -2 2t-1 4v723q0 10 8 10h176q113 0 177 -72.5t64 -205.5v-186q0 -122 -63.5 -199t-171.5 -77zM258 234v291q0 18 -11 27q-8 7 -19 7h-3q-3 -1 -5 -4t-2 -10v-332q0 -4 1 -6q2 -6 6 -7h3q30 0 30 34z" />
<glyph unicode="E" horiz-adv-x="400" d="M20 13v724q0 8 8 8h345q3 0 4 -3q1 -1 1 -3v-180q0 -3 -3 -4q-1 -1 -3 -1h-163q-4 0 -7.5 -3.5t-3.5 -8.5v-56q0 -5 3.5 -8.5t7.5 -3.5h75q2 0 2 -2v-182q0 -4 -3 -4h-77q-11 0 -11 -13v-59q0 -12 11 -12h168q2 0 3 -1q3 -1 3 -4v-186q0 -6 -6 -6h-348q-1 0 -2 1 q-4 2 -4 7z" />
<glyph unicode="F" horiz-adv-x="400" d="M25 5q-5 3 -5 8v723q0 9 7 9h350q7 0 7 -6v-174q0 -8 -8 -8h-158q-5 0 -8 -2q-4 -3 -6 -7q-1 -3 -1 -7v-60q0 -14 14 -14h72h1h1q2 -1 3 -3q1 -1 1 -2v-181q0 -6 -7 -6h-71q-5 -1 -8 -4q-6 -6 -6 -14v-243q0 -9 -7 -9h-170h-1z" />
<glyph unicode="G" horiz-adv-x="464" d="M241 250v1v110q0 9 11 9h199q7 -1 8 -7v-115v-3h-16q-11 -1 -12 -13v-4q0 -38 -11.5 -76t-34.5 -72.5t-63.5 -56t-92.5 -21.5q-215 0 -215 321v117q0 307 219 307q13 0 23 -0.5t32 -6t39 -15t37.5 -30t34 -48.5t23 -73.5t9.5 -101.5q0 -3 -1 -5q-1 -3 -4 -3l-177 -8 q-8 0 -8 12v57q-1 10 -8 14q-5 2 -12.5 2t-13.5 -6.5t-6 -21.5v-275q0 -49 26 -49t26 35v15v4q-2 7 -8 7h-4z" />
<glyph unicode="H" horiz-adv-x="430" d="M28 5q-8 0 -8 10v725q0 5 5 5h165q3 0 3 -3v-262q0 -5 3.5 -8.5t8.5 -3.5h18q11 1 13 9q1 2 1 3v261q0 4 2 4h166q5 0 5 -4v-730q0 -2 -1 -3q-1 -3 -2 -3h-167q-1 0 -2 2t-1 4v261q-1 9 -6 12h-1q-2 1 -4 1h-21q-12 0 -12 -13v-262v-2q-1 -3 -3 -3h-162z" />
<glyph unicode="I" horiz-adv-x="222" d="M195 5h-167q-8 0 -8 10v725q0 1 1 2q1 3 3 3h171q3 0 4 -1q3 -1 3 -4v-727q0 -8 -7 -8z" />
<glyph unicode="J" horiz-adv-x="405" d="M201 206q6 6 6 24v510q0 1 1 2q2 3 5 3h165q7 0 7 -8v-533q0 -81 -54.5 -140t-143.5 -59q-13 0 -31 4.5t-46 21t-50 43t-38.5 77t-16.5 116.5v1q0 3 3 4q1 1 3 1l137 7q6 0 7 -7q5 -72 34 -72q4 0 7 1t5 4z" />
<glyph unicode="K" horiz-adv-x="440" d="M252 8v1l-36 199q-2 5 -3 7q-3 5 -7 4q-5 -1 -7 -7v-6v-193q0 -2 -2.5 -5t-5.5 -3h-164h-2q-5 3 -5 10v725q0 1 1 2q1 3 3 3h167q4 0 5 -1q3 -1 3 -4v-174v-6q2 -6 7 -6q4 0 6 3q2 2 4 7v1l37 174q2 4 4 6h2h173q2 0 2 -3v-3l-1 -1l-126 -331q-3 -7 -3 -15q0 -6 2 -13 l130 -371q1 -1 1 -2v-1h-2h-180q-2 0 -3 3z" />
<glyph unicode="L" horiz-adv-x="396" d="M207 202h167q2 0 3 -1q3 -1 3 -4v-186q0 -6 -6 -6h-348q-1 0 -2 1q-4 2 -4 7v723q1 8 8 9h165q2 0 4 -3v-3v-525q0 -12 10 -12z" />
<glyph unicode="M" horiz-adv-x="669" d="M196 9q0 -4 -4 -4h-169q-3 0 -3 4v731v1q1 4 3 4h264q2 0 3.5 -1.5t1.5 -4.5l29 -199q2 -7 3 -10q3 -5 7 -4t6 4q3 4 3 12l23 196q1 4 3 6q2 1 3 1h274h2q3 -1 4 -4v-2v-729q0 -3 -3 -4q-1 -1 -3 -1h-179q-3 0 -4 1l-2 2v3v313q0 7 -1 10q-2 6 -7 6q-4 0 -6 -4 q-3 -5 -6 -20l-50 -307q-1 -3 -4 -4h-2h-110q-2 0 -3 1q-2 2 -3 6l-45 286q-4 18 -9 22q-3 2 -6 2q-5 -1 -7 -5t-2 -13v-293q0 -1 -1 -2z" />
<glyph unicode="N" horiz-adv-x="462" d="M20 14v723q0 5 4 7q1 1 2 1h166q7 0 9 -8l57 -225q2 -10 6 -13q2 -3 5 -3t6 3q4 4 4 15v223q0 8 7 8h148q8 0 8 -9v-723q0 -5 -2 -7q-1 -1 -3 -1h-1h-183h-1q-4 1 -5 6l-42 180q-3 13 -9 17q-2 1 -4 1q-5 -1 -7 -5.5t-2 -13.5v-177q0 -8 -8 -8h-150q-2 0 -3 2q-2 3 -2 7z " />
<glyph unicode="O" horiz-adv-x="424" d="M14 226v296q0 108 57.5 166.5t140.5 58.5t140.5 -58.5t57.5 -166.5v-296q0 -107 -57.5 -165.5t-140.5 -58.5t-140.5 58t-57.5 166zM192 519v-290q0 -31 20 -31t20 31v290q0 12 -5 22t-15 10q-9 0 -14.5 -9t-5.5 -23z" />
<glyph unicode="P" horiz-adv-x="446" d="M223 567l-4 -2q-1 0 -2 -2q-3 -3 -3 -10v-81q0 -5 3 -10q4 -6 11 -6q25 0 25 38v41q0 14 -7 23t-18 9h-3h-2zM31 5q-11 0 -11 13v715q0 12 9 12h227q15 0 35 -4.5t47.5 -19t49.5 -36.5t37.5 -63t15.5 -94q0 -69 -52 -124.5t-119 -55.5q-39 0 -46 -2q-10 -3 -10 -14v-1 v-317q0 -9 -11 -9h-172z" />
<glyph unicode="Q" horiz-adv-x="422" d="M231 520q0 14 -5.5 22.5t-14.5 8.5t-14.5 -9t-5.5 -22v-291q0 -31 20 -31t20 32v290zM212 742q83 0 140 -58t57 -166v-296q0 -94 -44 -142l-1 -1q-2 -3 -2 -6l1 -6l-1 1v3q2 -7 15 -17t31.5 -21.5t20.5 -13.5q-4 -10 -28 -30t-52 -29q-12 -4 -21 -4q-37 0 -61 42 q0 6 -7 6q-8 0 -25.5 -3.5t-22.5 -3.5q-84 0 -141 58.5t-57 166.5v296q0 108 57 166t141 58zM430 26q0 -1 -1 -2q1 0 2 -1z" />
<glyph unicode="R" horiz-adv-x="486" d="M241 504q0 17 -8 29t-18 12q-13 0 -13 -14v-92q0 -6 2 -9t4 -4q3 -1 6 -1q10 0 16 5t8 18t2.5 22.5t0.5 29.5v4zM20 738q0 7 6 7h218q43 0 84 -20.5t70 -64.5t29 -100q0 -147 -99 -162l-4 -1v-10l3 -1q22 -6 38.5 -13.5t29 -17.5t21 -18.5t14 -23.5t8.5 -25t4 -30 t1.5 -32t0.5 -37t30 -37q5 -5 6 -10q0 -40 -11.5 -68.5t-30.5 -43t-40 -21t-46 -6.5q-50 0 -80 36t-30 103v154q0 23 -8.5 38t-19.5 15t-12 -13v-4v-320q0 -7 -7 -7h-168q-7 0 -7 8v725z" />
<glyph unicode="S" horiz-adv-x="442" d="M421 520l-151 -7h-2l-2 2q-2 1 -3 5q-9 40 -33 40q-8 0 -13 -6.5t-5 -16.5q0 -25 27 -51.5t76 -61.5q49 -33 80.5 -83t31.5 -103q0 -101 -55.5 -168.5t-145.5 -67.5q-105 0 -158.5 71.5t-53.5 193.5q0 3 3 4q2 1 4 1l137 7h2q2 -1 3 -2q1 -3 1 -7q3 -32 15.5 -59.5 t32.5 -27.5q26 0 26 37q0 17 -26 43t-93 83q-48 38 -73 89.5t-25 103.5q0 80 55 144t145 64q92 0 149.5 -64.5t57.5 -154.5q0 -8 -7 -8z" />
<glyph unicode="T" horiz-adv-x="460" d="M311 5h-162q-3 0 -5.5 2.5t-2.5 6.5v522q0 7 -5.5 12t-12.5 5h-100h-1q-6 2 -7 9v178q0 5 4 5h418q8 0 8 -7v-176q0 -9 -9 -9h-100q-17 0 -17 -19v-521q0 -8 -8 -8z" />
<glyph unicode="U" horiz-adv-x="436" d="M25 745h167q2 0 3 -1l2 -2v-3v-508q0 -27 21 -27q8 0 14.5 6t6.5 20v510q0 1 1 2q1 3 4 3h166q2 0 3 -1q3 -1 3 -4v-536q0 -81 -54 -140t-144 -59t-144 59t-54 140v535v2q1 4 5 4z" />
<glyph unicode="V" horiz-adv-x="474" d="M185 739l49 -313q2 -7 5 -10q3 -2 5 -2q3 0 5 2q4 4 4 10l40 310q2 6 5 8q1 1 2 1h170q3 0 4 -3v-3v-1l-138 -725q-1 -8 -8 -8h-187q-1 0 -2 1q-4 2 -5 7l-134 727v1q0 4 2 4h176q4 0 5 -1l1 -1q1 -2 1 -4z" />
<glyph unicode="W" horiz-adv-x="602" d="M3 745h3h158q9 0 10 -9l21 -236q2 -16 6 -21q3 -3 7 -3q3 0 5 2q7 6 8 22l24 236q1 5 2 7t3 2h1h100h1q5 -2 5 -7l26 -238q1 -16 6 -21q3 -3 6 -3q4 0 6 2q7 6 8 22l19 237q1 5 3 7q1 1 3 1h161h3q3 -1 4 -4v-2v-2l-93 -721q-1 -11 -8 -11h-143q-5 0 -6 7l-37 242 q-2 13 -7 17q-3 3 -6 3q-4 -1 -6 -3q-5 -5 -7 -18l-34 -240q-1 -4 -2 -6q-2 -2 -4 -2h-144q-8 0 -9 9l-96 724v1v2q0 3 3 4z" />
<glyph unicode="X" horiz-adv-x="433" d="M0 8h1l114 366q2 5 2 10t-2 12l-114 345q-1 1 -1 2q0 2 2 2h180q1 0 2 -3q1 0 1 -1l22 -104q1 -5 3 -8t5 -3q4 1 6 4q2 2 3 7l22 104l1 1q1 3 2 3h180q3 0 3 -3t-1 -5l-114 -337q-3 -7 -3 -15q0 -6 2 -13l116 -363q1 -3 1 -4h-2h-183q-1 0 -2 3l-22 123q-1 5 -3 7 q-2 3 -5 3q-5 -1 -7 -6q-1 -1 -1 -4l-22 -123q-1 -3 -4 -3h-181h-1v1v2zM433 5z" />
<glyph unicode="Y" horiz-adv-x="477" d="M135 266q0 21 -9 50l-126 428q0 1 1 1h179h1q2 0 3 -1q1 -2 2 -5l46 -207q2 -7 6 -10q2 -2 4 -2q3 0 5 2q4 4 4 10l44 204q2 6 5 8q1 1 2 1h172q4 0 4 -4l-1 -1l-130 -422q-9 -32 -9 -54v-251q-2 -8 -9 -8h-187q-1 0 -2 1q-3 2 -5 7v253z" />
<glyph unicode="Z" horiz-adv-x="355" d="M195 214q0 -12 11 -12h123q2 0 3 -1q3 -1 3 -4v-186q0 -2 -1 -3q0 -1 -1.5 -2t-3.5 -1h-305q-2 0 -3 2l-1 1v1v1v173q0 9 3 14v1h1l138 340v1v3q0 6 -2 8q-2 4 -7 4h-129q-3 0 -3 4v181q0 2 1 4t2 2h306q1 0 2 -2q2 -2 2 -5l1 -173q0 -6 -4 -15l-135 -332q-1 -2 -1 -4z " />
<glyph unicode="a" horiz-adv-x="392" d="M159 391l-133 7q-5 0 -6 8t-1 44q0 62 45 106t120 44q79 0 125 -42.5t46 -104.5v-271q0 -6 4 -7t21 -1q7 0 7 -8v-62q0 -39 -29.5 -73t-69.5 -34q-54 0 -79 38q-6 9 -10 9q-3 0 -11 -10q-25 -34 -70 -34q-38 0 -71 33.5t-33 101.5v74q0 99 108 144q52 22 64.5 35.5 t12.5 41.5q0 21 -15 21q-12 0 -14 -8t-2 -44q0 -8 -9 -8zM199 160v97q0 7 -6 8q-7 0 -16.5 -8.5t-9.5 -22.5v-74q0 -17 16 -17t16 17z" />
<glyph unicode="b" horiz-adv-x="366" d="M155 0h-126q-9 0 -9 9v748q0 8 9 8h130q9 0 9 -10v-175q0 -8 3 -8q2 0 9 7q21 21 57 21q46 0 80 -44.5t34 -147.5v-209q0 -199 -107 -199q-34 0 -59 18q-8 7 -11 7t-10 -12.5t-9 -12.5zM168 416v-239q0 -13 8 -19q3 -5 11 -5q13 0 13 19v251q0 19 -13 19q-19 0 -19 -26z " />
<glyph unicode="c" horiz-adv-x="365" d="M14 191v236q0 70 45 121.5t121 51.5t123.5 -55.5t47.5 -127.5q0 -37 -1.5 -45.5t-10.5 -9.5l-131 -7q-5 -1 -8.5 3t-3.5 9v74q0 9 -5 14.5t-11 5.5t-11 -6t-5 -14v-266q0 -9 5.5 -14.5t11.5 -5.5t10.5 5.5t4.5 14.5v64q0 10 11 10l133 -7q11 -2 11 -12q0 -21 -0.5 -34.5 t-4 -40.5t-9.5 -45t-19 -40.5t-31 -36.5t-46.5 -23.5t-64.5 -9.5q-72 0 -117 52t-45 139z" />
<glyph unicode="d" horiz-adv-x="366" d="M336 0h-126q-3 0 -10 12.5t-9 12.5t-12 -7q-23 -18 -58 -18q-107 0 -107 199v209q0 104 33.5 148t80.5 44q35 0 56 -21q7 -7 10 -7t3 8v175q0 10 9 10h130q9 0 9 -8v-748q0 -9 -9 -9zM197 177v239q0 11 -5.5 18.5t-13.5 7.5q-13 0 -13 -19v-251q0 -19 13 -19q6 0 11 5 q8 8 8 19z" />
<glyph unicode="e" horiz-adv-x="378" d="M14 190v248q0 82 51.5 122t120.5 40q82 0 130 -54t48 -131v-61q0 -9 -9 -9h-167q-6 0 -6 -8v-157q0 -22 16 -22t16 21v61q0 8 9 8l129 -7q10 -2 10 -11v-64q0 -89 -50.5 -127.5t-129.5 -38.5t-123.5 51.5t-44.5 138.5zM182 454v-50q0 -5 6 -5q26 0 26 5q0 49 -2.5 60 t-14.5 11q-15 0 -15 -21z" />
<glyph unicode="f" horiz-adv-x="226" d="M320 647l-103 -7q-9 -2 -9 8q0 33 -9 33q-14 0 -14 -12v-62q0 -7 16 -7q20 0 20 -10v-139q0 -10 -21 -10q-15 0 -15 -7v-425q0 -9 -8 -9h-136q-8 0 -8 9v424q0 8 -14 8t-14 8v140q0 11 16 11q12 0 12 5v62q0 46 42.5 72t113.5 26q48 0 77.5 -8t42 -25.5t15.5 -33t3 -43.5 q0 -7 -7 -8z" />
<glyph unicode="g" horiz-adv-x="322" d="M14 308v152q0 62 41.5 101t106.5 39q44 0 70 -15q7 12 24 28t31 16q16 0 34 -25t18 -33q0 -4 -11.5 -11t-25 -13t-15.5 -8q21 -28 21 -83v-149q0 -62 -40.5 -101t-105.5 -39q-24 0 -41 5q-6 -10 -6 -16q0 -17 54 -25q82 -11 118 -45t36 -103q0 -64 -43 -98.5t-111 -34.5 q-79 0 -120.5 34t-41.5 81q0 49 32 73q-24 21 -24 68q0 26 15 54t34 42q-21 18 -35.5 47.5t-14.5 58.5zM145 437v-111q0 -20 17 -20q15 0 15 20v110q0 20 -15 20q-17 0 -17 -19zM185 0q-42 2 -73 10q-6 -4 -6 -14q0 -28 54 -28q40 0 40 21q0 11 -15 11z" />
<glyph unicode="h" horiz-adv-x="381" d="M20 9v744q0 12 11 12h141q10 0 10 -9v-182q0 -9 3 -9t10 6q31 29 70 29q38 0 67 -25t29 -78v-491q0 -6 -6 -6h-138q-7 0 -7 7v414q0 20 -16 20t-16 -20v-413q0 -8 -7 -8h-143q-8 0 -8 9z" />
<glyph unicode="i" horiz-adv-x="202" d="M182 590v-582q0 -8 -7 -8h-147q-8 0 -8 9v579q0 12 10 12h142q10 0 10 -10zM172 770v-128q0 -11 -10 -11h-122q-10 0 -10 12v124q0 4 3 7.5t7 3.5h123q9 0 9 -8z" />
<glyph unicode="j" horiz-adv-x="200" d="M-110 -33l107 7q7 2 7 -6q0 -23 1 -28t7 -5q8 0 8 16v641q0 8 9 8h141q9 0 9 -9v-643q0 -46 -42.5 -72t-113.5 -26q-40 0 -67 6.5t-41 14.5t-21 25t-8 28.5t-1 35.5q0 5 5 7zM169 770v-128q0 -11 -10 -11h-122q-10 0 -10 12v124q0 4 3 7.5t7 3.5h123q9 0 9 -8z" />
<glyph unicode="k" horiz-adv-x="368" d="M202 8l-26 183q0 4 -2 4t-2 -4v-185q0 -6 -7 -6h-137q-8 0 -8 10v747q0 8 7 8h134q6 0 6 -8v-303q0 -4 2 -4q1 2 1 4l27 138q2 8 8 8h139q9 0 7 -9l-74 -249q-2 -6 -2 -8q0 -1 3 -7l85 -318q1 -3 -1.5 -6t-4.5 -3h-147q-6 0 -8 8z" />
<glyph unicode="l" horiz-adv-x="202" d="M174 0h-146q-8 0 -8 9v744q0 12 11 12h141q10 0 10 -9v-748q0 -8 -8 -8z" />
<glyph unicode="m" horiz-adv-x="563" d="M543 495v-484q0 -11 -9 -11h-134q-9 0 -9 11v405q0 21 -16 21t-16 -21v-406q0 -10 -9 -10h-137q-9 0 -9 9v408q0 20 -16 20t-16 -20v-410q0 -7 -8 -7h-137q-7 0 -7 8v584q0 8 9 8h131q4 0 11 -21.5t10 -21.5q4 0 11 8q31 35 75 35q49 0 76 -36q7 -10 12 -10q6 0 12 8 q37 35 82 35q39 0 66.5 -29.5t27.5 -72.5z" />
<glyph unicode="n" horiz-adv-x="374" d="M165 0h-137q-8 0 -8 10v583q0 7 7 7h125q4 0 10.5 -21t8.5 -21t7 7q29 37 78 37q39 0 68.5 -29t29.5 -77v-491q0 -5 -5 -5h-138q-7 0 -7 7v409q0 20 -16 20t-16 -20v-410q0 -6 -7 -6z" />
<glyph unicode="o" horiz-adv-x="372" d="M14 156v289q0 69 47.5 112t124.5 43q78 0 125 -43.5t47 -116.5v-284q0 -70 -47.5 -113t-124.5 -43q-76 0 -124 43.5t-48 112.5zM170 420v-238q0 -20 16 -20t16 20v238q0 20 -16 20t-16 -20z" />
<glyph unicode="p" horiz-adv-x="364" d="M29 600h126q2 0 9 -12.5t10 -12.5t11 7q25 18 59 18q107 0 107 -199v-209q0 -103 -34 -147.5t-80 -44.5q-33 0 -57 21q-7 7 -9 7q-3 0 -3 -8v-160q0 -10 -9 -10h-130q-9 0 -9 9v732q0 9 9 9zM168 424v-240q0 -26 19 -26q13 0 13 20v251q0 18 -13 18q-7 0 -11 -4 q-8 -8 -8 -19z" />
<glyph unicode="q" horiz-adv-x="366" d="M210 600h126q9 0 9 -8v-747q0 -9 -9 -9h-130q-9 0 -9 10v175q0 8 -3 8q-2 0 -9 -7q-25 -22 -57 -22q-46 0 -80 45t-34 148v209q0 198 107 198q36 0 59 -17q8 -7 11 -7t10 12t9 12zM197 185v240q0 11 -8 19q-6 4 -11 4q-13 0 -13 -18v-251q0 -20 13 -20q19 0 19 26z" />
<glyph unicode="r" horiz-adv-x="274" d="M20 8v584q0 8 6 8h141q3 0 9.5 -16t8.5 -16q3 0 6 7q7 16 21 20.5t42 4.5q6 0 6 -7v-144q0 -7 -7 -7q-39 0 -55 -24t-16 -84v-325q0 -9 -9 -9h-146q-7 0 -7 8z" />
<glyph unicode="s" horiz-adv-x="350" d="M329 399l-119 -7q-4 -1 -6 1.5t-2 7.5q0 47 -22 47q-15 0 -15 -18q0 -24 85 -101q45 -40 64.5 -76t19.5 -83q0 -72 -40 -121t-125 -49q-28 0 -53 9t-50 30t-39.5 63.5t-14.5 102.5q0 9 7 9l109 7q6 0 8 -7q1 -27 9.5 -42.5t19.5 -15.5q14 0 14 17q0 30 -94 109 q-77 62 -77 162q0 66 46.5 111t113.5 45q85 0 128 -55.5t43 -136.5q0 -9 -10 -9z" />
<glyph unicode="t" horiz-adv-x="250" d="M34 157v277q0 7 -6 7q-16 0 -19.5 1t-3.5 6v146q0 6 4 6q18 0 21.5 1t3.5 6v88q0 7 7 7h144q7 0 8.5 -1.5t1.5 -7.5v-84q0 -9 8 -9q24 0 29 -1t5 -6v-145q0 -7 -7 -7q-24 0 -29.5 -1t-5.5 -7v-263q0 -8 6 -8q27 0 33 -1t6 -5q0 -24 -0.5 -38.5t-6 -40t-15.5 -40 t-30.5 -26t-49.5 -11.5q-104 0 -104 157z" />
<glyph unicode="u" horiz-adv-x="360" d="M20 104v486q0 10 8 10h126q8 0 8 -8v-382q0 -20 16 -20t16 20v382q0 8 7 8h130q9 0 9 -7v-586q0 -7 -8 -7h-118q-3 0 -9 17.5t-9 17.5t-11 -8q-29 -27 -71 -27q-35 0 -64.5 27.5t-29.5 76.5z" />
<glyph unicode="v" horiz-adv-x="344" d="M95 9l-95 584v3q0 4 4 4h131q6 0 8 -7l24 -179q1 -9 4 -9t4 9l26 178q2 8 8 8h129q8 0 6 -9l-95 -583q-2 -8 -8 -8h-137q-8 0 -9 9z" />
<glyph unicode="w" horiz-adv-x="535" d="M295 9l-21 185q-2 21 -6 21t-6 -21l-22 -186q-2 -8 -8 -8h-127q-7 0 -9 9l-96 584v3q0 4 4 4h130q8 0 8 -7l26 -169q2 -9 4 -9q3 0 4 9l26 168q2 8 8 8h115q6 0 8 -7l24 -169q1 -9 4 -9t4 9l26 168q2 8 8 8h129q9 0 7 -9l-96 -583q-2 -8 -8 -8h-127q-7 0 -9 9z" />
<glyph unicode="x" horiz-adv-x="359" d="M0 7l95 292q2 6 1 12l-95 281q-2 8 4 8h146q6 0 8 -8l19 -76q0 -3 2 -3l2 4l19 75q2 8 8 8h144q8 0 6 -9l-94 -281q-2 -6 -2 -8q0 -4 2 -8l93 -285q2 -9 -7 -9h-144q-6 0 -8 8l-17 79q0 4 -2 4l-2 -4l-15 -79q-2 -8 -8 -8h-151q-4 0 -4 4v3z" />
<glyph unicode="y" horiz-adv-x="353" d="M114 126l-114 467q0 7 5 7h138q6 0 8 -7l22 -150q2 -8 4 -8t4 8l28 152q3 5 6 5h132q5 -1 6 -4l-141 -738q-2 -8 -9 -8h-128q-9 0 -7 9l46 252q2 7 0 15z" />
<glyph unicode="z" horiz-adv-x="308" d="M23 159l111 275q2 4 -3 4h-104q-7 0 -7 8v148q0 6 6 6h254q11 0 9 -10v-141q0 -6 -3 -9l-109 -271q-1 -6 4 -6h101q6 0 6 -5v-152q0 -6 -5 -6h-259q-6 0 -4 6v142q0 6 3 11z" />
<glyph unicode="{" horiz-adv-x="214" d="M176 276v-205q0 -5 3.5 -6t19.5 -1q6 0 6 -7v-100q0 -6 -6 -6h-72q-37 0 -64.5 29.5t-27.5 74.5v255q0 16 -4.5 20t-16.5 4q-5 0 -5 4v84q0 4 16 4q10 0 10 20v248q0 46 27 76t66 30h72q5 0 5 -5v-103q0 -4 -3.5 -5t-20.5 -1q-5 0 -5 -7v-190q0 -83 -63 -103q-9 -4 -9 -6 t9 -5q28 -8 45.5 -34.5t17.5 -64.5z" />
<glyph unicode="|" horiz-adv-x="323" d="M80 828h162v-1103h-162v1103z" />
<glyph unicode="}" horiz-adv-x="214" d="M38 71v205q0 38 17.5 64.5t45.5 34.5q9 3 9 5t-9 6q-63 20 -63 103v190q0 7 -5 7q-23 1 -24 6v103q0 5 5 5h72q39 0 66 -30t27 -76v-248q0 -20 10 -20q16 0 16 -4v-84q0 -4 -5 -4q-12 0 -16.5 -4t-4.5 -20v-255q0 -45 -27.5 -74.5t-64.5 -29.5h-72q-6 0 -6 6v100q0 7 6 7 q16 0 19.5 1t3.5 6z" />
<glyph unicode="~" d="M367 378l59 -51q-19 -49 -53.5 -82.5t-71.5 -33.5q-43 0 -88 36q-3 2 -13.5 10.5t-13.5 10.5t-10.5 6.5t-13.5 5.5t-13 1q-13 0 -23.5 -7.5t-15.5 -15t-13 -23t-12 -21.5l-60 51q19 48 53.5 80.5t77.5 32.5q40 0 85 -29q8 -5 19 -13t17 -12t13 -7.5t13 -3.5q7 0 14 3 t11.5 6.5t10.5 11.5t9 13l10 16q7 11 9 15z" />
<glyph unicode="&#xaa;" horiz-adv-x="392" d="M159 391l-133 7q-5 0 -6 8t-1 44q0 62 45 106t120 44q79 0 125 -42.5t46 -104.5v-271q0 -6 4 -7t21 -1q7 0 7 -8v-62q0 -39 -29.5 -73t-69.5 -34q-54 0 -79 38q-6 9 -10 9q-3 0 -11 -10q-25 -34 -70 -34q-38 0 -71 33.5t-33 101.5v74q0 99 108 144q52 22 64.5 35.5 t12.5 41.5q0 21 -15 21q-12 0 -14 -8t-2 -44q0 -8 -9 -8zM199 160v97q0 7 -6 8q-7 0 -16.5 -8.5t-9.5 -22.5v-74q0 -17 16 -17t16 17z" />
<glyph unicode="&#xad;" horiz-adv-x="262" d="M20 430h222v-123h-222v123z" />
<glyph unicode="&#xaf;" horiz-adv-x="100" d="M109 134v-65q0 -9 -9 -9h-200q-8 0 -8 10v61q0 4 3 7t5 3h200q9 0 9 -7z" />
<glyph unicode="&#xb2;" horiz-adv-x="430" d="M221 207h185q8 0 8 -9v-190q0 -8 -10 -8h-380q-9 0 -9 7v200q0 14 10 30q24 36 63 77.5t69 69t53 61t23 62.5q0 23 -14 23q-10 0 -18 -18t-8 -41q0 -8 -8 -8l-155 7q-9 1 -10.5 7.5t-1.5 37.5q0 96 52.5 160.5t144.5 64.5q93 0 149.5 -65t56.5 -157q0 -54 -13.5 -97 t-44.5 -79.5t-61 -61.5t-83 -62q-4 -4 -4 -7q0 -4 6 -4z" />
<glyph unicode="&#xb3;" horiz-adv-x="448" d="M150 325v118q0 11 7.5 13t41.5 2q18 0 29 8.5t11 20.5q0 45 -2 54.5t-14 9.5t-14 -7.5t-2 -42.5q0 -10 -11 -10l-166 7q-8 0 -8 8q0 23 0.5 37t4.5 41.5t11 45.5t21.5 40.5t35.5 36.5t54 23.5t74 9.5q90 0 146 -52.5t56 -141.5q0 -57 -25.5 -98.5t-58.5 -57.5 q-11 -7 -11 -8q0 -2 13 -7q32 -11 61 -52t29 -100q0 -97 -58.5 -160t-151.5 -63q-92 0 -150.5 62.5t-58.5 158.5q0 34 1 41.5t5 7.5l180 7q7 0 7 -8q0 -45 2 -54.5t14 -9.5q16 0 16 20q0 42 -1.5 57t-10 23.5t-28.5 8.5q-34 0 -41.5 1.5t-7.5 9.5z" />
<glyph unicode="&#xb5;" horiz-adv-x="360" d="M163 -15v-126q0 -8 -8 -8h-127q-2 0 -5 3t-3 7v729q0 10 8 10h126q8 0 8 -8v-382q0 -20 16 -20t16 20v382q0 8 7 8h130q9 0 9 -7v-586q0 -7 -8 -7h-118q-4 0 -10 17.5t-8 17.5q-9 0 -21 -14t-12 -36z" />
<glyph unicode="&#xb9;" horiz-adv-x="266" d="M45 7v508q0 6 -6 6q-20 0 -24.5 1t-4.5 6v204q0 8 9 8h219q8 0 8 -8v-724q0 -8 -7 -8h-187q-7 0 -7 7z" />
<glyph unicode="&#xba;" horiz-adv-x="372" d="M14 156v289q0 69 47.5 112t124.5 43q78 0 125 -43.5t47 -116.5v-284q0 -70 -47.5 -113t-124.5 -43q-76 0 -124 43.5t-48 112.5zM170 420v-238q0 -20 16 -20t16 20v238q0 20 -16 20t-16 -20z" />
<glyph unicode="&#xbc;" horiz-adv-x="957" d="M704 7v132q0 5 -5 5h-180q-7 0 -7 7v160q0 3 3 12l223 409q4 8 11 8h148q8 0 8 -8v-399q0 -16 18 -16q29 0 29 -11v-154q0 -8 -24 -8q-8 0 -15.5 -4t-7.5 -9v-124q0 -7 -8 -7h-186q-7 0 -7 7zM694 391l-35 -69q-1 -3 4 -4t35 -1q6 0 6 5v69q0 6 -4 6q-3 0 -6 -6zM300 -5 h-111l284 726h111zM45 7v508q0 6 -6 6q-20 0 -24.5 1t-4.5 6v204q0 8 9 8h219q8 0 8 -8v-724q0 -8 -7 -8h-187q-7 0 -7 7z" />
<glyph unicode="&#xbd;" horiz-adv-x="937" d="M728 207h185q8 0 8 -9v-190q0 -8 -10 -8h-380q-9 0 -9 7v200q0 14 10 30q24 36 63 77.5t69 69t53 61t23 62.5q0 23 -14 23q-10 0 -18 -18t-8 -41q0 -8 -8 -8l-155 7q-9 1 -10.5 7.5t-1.5 37.5q0 96 52.5 160.5t144.5 64.5q93 0 149.5 -65t56.5 -157q0 -54 -13.5 -97 t-44.5 -79.5t-61 -61.5t-83 -62q-4 -4 -4 -7q0 -4 6 -4zM300 -5h-111l284 726h111zM45 7v508q0 6 -6 6q-20 0 -24.5 1t-4.5 6v204q0 8 9 8h219q8 0 8 -8v-724q0 -8 -7 -8h-187q-7 0 -7 7z" />
<glyph unicode="&#xbe;" horiz-adv-x="1139" d="M886 7v132q0 5 -5 5h-180q-7 0 -7 7v160q0 3 3 12l223 409q4 8 11 8h148q8 0 8 -8v-399q0 -16 18 -16q29 0 29 -11v-154q0 -8 -24 -8q-8 0 -15.5 -4t-7.5 -9v-124q0 -7 -8 -7h-186q-7 0 -7 7zM876 391l-35 -69q-1 -3 4 -4t35 -1q6 0 6 5v69q0 6 -4 6q-3 0 -6 -6zM482 -5 h-111l284 726h111zM150 325v118q0 11 7.5 13t41.5 2q18 0 29 8.5t11 20.5q0 45 -2 54.5t-14 9.5t-14 -7.5t-2 -42.5q0 -10 -11 -10l-166 7q-8 0 -8 8q0 23 0.5 37t4.5 41.5t11 45.5t21.5 40.5t35.5 36.5t54 23.5t74 9.5q90 0 146 -52.5t56 -141.5q0 -57 -25.5 -98.5 t-58.5 -57.5q-11 -7 -11 -8q0 -2 13 -7q32 -11 61 -52t29 -100q0 -97 -58.5 -160t-151.5 -63q-92 0 -150.5 62.5t-58.5 158.5q0 34 1 41.5t5 7.5l180 7q7 0 7 -8q0 -45 2 -54.5t14 -9.5q16 0 16 20q0 42 -1.5 57t-10 23.5t-28.5 8.5q-34 0 -41.5 1.5t-7.5 9.5z" />
<glyph unicode="&#xc2;" horiz-adv-x="472" d="M365 807h-77q-5 0 -28 20.5t-26 20.5t-4 -1q-5 -5 -26.5 -22.5t-23.5 -17.5h-77q-5 0 -5 5q0 3 3 6l90 105q4 4 10 4h66q4 0 10 -4l91 -106q2 -2 2 -5q0 -5 -5 -5zM140 745h187q7 0 8 -9l136 -715v-4q0 -12 -9 -12h-160q-7 0 -8 6l-19 150q-3 10 -11 12h-3h-52 q-6 -1 -10 -5q-2 -4 -3 -9l-18 -147q-1 -7 -8 -7h-163q-7 0 -7 8v3l133 721q2 5 5 7q1 1 2 1zM260 278l-13 96q-2 17 -5 22q-2 5 -6 5t-6.5 -5t-4.5 -22l-13 -95v-3q0 -13 11 -13q27 0 31.5 2.5t5.5 7.5v2v3z" />
<glyph unicode="&#xc3;" horiz-adv-x="472" d="M289 921l67 -12q3 0 3 -5q0 -25 -21.5 -59.5t-57.5 -34.5q-17 0 -40 10.5t-33 10.5q-21 0 -25 -20q0 -2 -1 -3t-2 -1h-1l-66 11q-3 0 -3 5q0 9 5.5 28t25 41.5t47.5 22.5q22 0 43 -10.5t33 -10.5q17 0 22 20q0 7 4 7zM140 745h187q7 0 8 -9l136 -715v-4q0 -12 -9 -12 h-160q-7 0 -8 6l-19 150q-3 10 -11 12h-3h-52q-6 -1 -10 -5q-2 -4 -3 -9l-18 -147q-1 -7 -8 -7h-163q-7 0 -7 8v3l133 721q2 5 5 7q1 1 2 1zM260 278l-13 96q-2 17 -5 22q-2 5 -6 5t-6.5 -5t-4.5 -22l-13 -95v-3q0 -13 11 -13q27 0 31.5 2.5t5.5 7.5v2v3z" />
<glyph unicode="&#xc5;" horiz-adv-x="472" d="M143 833q0 33 24.5 53t66.5 20t66 -20t24 -53q0 -16 -0.5 -24.5t-5.5 -23.5t-13.5 -23t-26.5 -14.5t-44 -6.5q-32 0 -52 8t-27.5 24.5t-9.5 28t-2 31.5zM218 842q0 -40 2 -48.5t14 -8.5q11 0 13 8.5t2 48.5q0 20 -15 20q-16 0 -16 -20zM140 745h187q7 0 8 -9l136 -715v-4 q0 -12 -9 -12h-160q-7 0 -8 6l-19 150q-3 10 -11 12h-3h-52q-6 -1 -10 -5q-2 -4 -3 -9l-18 -147q-1 -7 -8 -7h-163q-7 0 -7 8v3l133 721q2 5 5 7q1 1 2 1zM260 278l-13 96q-2 17 -5 22q-2 5 -6 5t-6.5 -5t-4.5 -22l-13 -95v-3q0 -13 11 -13q27 0 31.5 2.5t5.5 7.5v2v3z" />
<glyph unicode="&#xca;" horiz-adv-x="400" d="M331 807h-77q-5 0 -28 20.5t-26 20.5t-4 -1q-5 -5 -26.5 -22.5t-23.5 -17.5h-77q-5 0 -5 5q0 3 3 6l90 105q4 4 10 4h66q4 0 10 -4l91 -106q2 -2 2 -5q0 -5 -5 -5zM20 13v724q0 8 8 8h345q3 0 4 -3q1 -1 1 -3v-180q0 -3 -3 -4q-1 -1 -3 -1h-163q-4 0 -7.5 -3.5t-3.5 -8.5 v-56q0 -5 3.5 -8.5t7.5 -3.5h75q2 0 2 -2v-182q0 -4 -3 -4h-77q-11 0 -11 -13v-59q0 -12 11 -12h168q2 0 3 -1q3 -1 3 -4v-186q0 -6 -6 -6h-348q-1 0 -2 1q-4 2 -4 7z" />
<glyph unicode="&#xce;" horiz-adv-x="222" d="M241 807h-77q-5 0 -28 20.5t-26 20.5t-4 -1q-5 -5 -26.5 -22.5t-23.5 -17.5h-77q-5 0 -5 5q0 3 3 6l90 105q4 4 10 4h66q4 0 10 -4l91 -106q2 -2 2 -5q0 -5 -5 -5zM195 5h-167q-8 0 -8 10v725q0 1 1 2q1 3 3 3h171q3 0 4 -1q3 -1 3 -4v-727q0 -8 -7 -8z" />
<glyph unicode="&#xd1;" horiz-adv-x="462" d="M285 921l67 -12q3 0 3 -5q0 -25 -21.5 -59.5t-57.5 -34.5q-17 0 -40 10.5t-33 10.5q-21 0 -25 -20q0 -2 -1 -3t-2 -1h-1l-66 11q-3 0 -3 5q0 9 5.5 28t25 41.5t47.5 22.5q22 0 43 -10.5t33 -10.5q17 0 22 20q0 7 4 7zM20 14v723q0 5 4 7q1 1 2 1h166q7 0 9 -8l57 -225 q2 -10 6 -13q2 -3 5 -3t6 3q4 4 4 15v223q0 8 7 8h148q8 0 8 -9v-723q0 -5 -2 -7q-1 -1 -3 -1h-1h-183h-1q-4 1 -5 6l-42 180q-3 13 -9 17q-2 1 -4 1q-5 -1 -7 -5.5t-2 -13.5v-177q0 -8 -8 -8h-150q-2 0 -3 2q-2 3 -2 7z" />
<glyph unicode="&#xd4;" horiz-adv-x="424" d="M343 807h-77q-5 0 -28 20.5t-26 20.5t-4 -1q-5 -5 -26.5 -22.5t-23.5 -17.5h-77q-5 0 -5 5q0 3 3 6l90 105q4 4 10 4h66q4 0 10 -4l91 -106q2 -2 2 -5q0 -5 -5 -5zM14 226v296q0 108 57.5 166.5t140.5 58.5t140.5 -58.5t57.5 -166.5v-296q0 -107 -57.5 -165.5 t-140.5 -58.5t-140.5 58t-57.5 166zM192 519v-290q0 -31 20 -31t20 31v290q0 12 -5 22t-15 10q-9 0 -14.5 -9t-5.5 -23z" />
<glyph unicode="&#xd5;" horiz-adv-x="424" d="M267 921l67 -12q3 0 3 -5q0 -25 -21.5 -59.5t-57.5 -34.5q-17 0 -40 10.5t-33 10.5q-21 0 -25 -20q0 -2 -1 -3t-2 -1h-1l-66 11q-3 0 -3 5q0 9 5.5 28t25 41.5t47.5 22.5q22 0 43 -10.5t33 -10.5q17 0 22 20q0 7 4 7zM14 226v296q0 108 57.5 166.5t140.5 58.5 t140.5 -58.5t57.5 -166.5v-296q0 -107 -57.5 -165.5t-140.5 -58.5t-140.5 58t-57.5 166zM192 519v-290q0 -31 20 -31t20 31v290q0 12 -5 22t-15 10q-9 0 -14.5 -9t-5.5 -23z" />
<glyph unicode="&#xdb;" horiz-adv-x="436" d="M349 807h-77q-5 0 -28 20.5t-26 20.5t-4 -1q-5 -5 -26.5 -22.5t-23.5 -17.5h-77q-5 0 -5 5q0 3 3 6l90 105q4 4 10 4h66q4 0 10 -4l91 -106q2 -2 2 -5q0 -5 -5 -5zM25 745h167q2 0 3 -1l2 -2v-3v-508q0 -27 21 -27q8 0 14.5 6t6.5 20v510q0 1 1 2q1 3 4 3h166q2 0 3 -1 q3 -1 3 -4v-536q0 -81 -54 -140t-144 -59t-144 59t-54 140v535v2q1 4 5 4z" />
<glyph unicode="&#xe2;" horiz-adv-x="392" d="M315 660h-77q-5 0 -28 20.5t-26 20.5t-4 -1q-5 -5 -26.5 -22.5t-23.5 -17.5h-77q-5 0 -5 5q0 3 3 6l90 105q4 4 10 4h66q4 0 10 -4l91 -106q2 -2 2 -5q0 -5 -5 -5zM159 391l-133 7q-5 0 -6 8t-1 44q0 62 45 106t120 44q79 0 125 -42.5t46 -104.5v-271q0 -6 4 -7t21 -1 q7 0 7 -8v-62q0 -39 -29.5 -73t-69.5 -34q-54 0 -79 38q-6 9 -10 9q-3 0 -11 -10q-25 -34 -70 -34q-38 0 -71 33.5t-33 101.5v74q0 99 108 144q52 22 64.5 35.5t12.5 41.5q0 21 -15 21q-12 0 -14 -8t-2 -44q0 -8 -9 -8zM199 160v97q0 7 -6 8q-7 0 -16.5 -8.5t-9.5 -22.5v-74 q0 -17 16 -17t16 17z" />
<glyph unicode="&#xe3;" horiz-adv-x="392" d="M239 774l67 -12q3 0 3 -5q0 -25 -21.5 -59.5t-57.5 -34.5q-17 0 -40 10.5t-33 10.5q-21 0 -25 -20q0 -2 -1 -3t-2 -1h-1l-66 11q-3 0 -3 5q0 9 5.5 28t25 41.5t47.5 22.5q22 0 43 -10.5t33 -10.5q17 0 22 20q0 7 4 7zM159 391l-133 7q-5 0 -6 8t-1 44q0 62 45 106t120 44 q79 0 125 -42.5t46 -104.5v-271q0 -6 4 -7t21 -1q7 0 7 -8v-62q0 -39 -29.5 -73t-69.5 -34q-54 0 -79 38q-6 9 -10 9q-3 0 -11 -10q-25 -34 -70 -34q-38 0 -71 33.5t-33 101.5v74q0 99 108 144q52 22 64.5 35.5t12.5 41.5q0 21 -15 21q-12 0 -14 -8t-2 -44q0 -8 -9 -8z M199 160v97q0 7 -6 8q-7 0 -16.5 -8.5t-9.5 -22.5v-74q0 -17 16 -17t16 17z" />
<glyph unicode="&#xe5;" horiz-adv-x="392" d="M94 752q0 33 24.5 53t66.5 20t66 -20t24 -53q0 -16 -0.5 -24.5t-5.5 -23.5t-13.5 -23t-26.5 -14.5t-44 -6.5q-32 0 -52 8t-27.5 24.5t-9.5 28t-2 31.5zM169 761q0 -40 2 -48.5t14 -8.5q11 0 13 8.5t2 48.5q0 20 -15 20q-16 0 -16 -20zM159 391l-133 7q-5 0 -6 8t-1 44 q0 62 45 106t120 44q79 0 125 -42.5t46 -104.5v-271q0 -6 4 -7t21 -1q7 0 7 -8v-62q0 -39 -29.5 -73t-69.5 -34q-54 0 -79 38q-6 9 -10 9q-3 0 -11 -10q-25 -34 -70 -34q-38 0 -71 33.5t-33 101.5v74q0 99 108 144q52 22 64.5 35.5t12.5 41.5q0 21 -15 21q-12 0 -14 -8 t-2 -44q0 -8 -9 -8zM199 160v97q0 7 -6 8q-7 0 -16.5 -8.5t-9.5 -22.5v-74q0 -17 16 -17t16 17z" />
<glyph unicode="&#xea;" horiz-adv-x="378" d="M317 660h-77q-5 0 -28 20.5t-26 20.5t-4 -1q-5 -5 -26.5 -22.5t-23.5 -17.5h-77q-5 0 -5 5q0 3 3 6l90 105q4 4 10 4h66q4 0 10 -4l91 -106q2 -2 2 -5q0 -5 -5 -5zM14 190v248q0 82 51.5 122t120.5 40q82 0 130 -54t48 -131v-61q0 -9 -9 -9h-167q-6 0 -6 -8v-157 q0 -22 16 -22t16 21v61q0 8 9 8l129 -7q10 -2 10 -11v-64q0 -89 -50.5 -127.5t-129.5 -38.5t-123.5 51.5t-44.5 138.5zM182 454v-50q0 -5 6 -5q26 0 26 5q0 49 -2.5 60t-14.5 11q-15 0 -15 -21z" />
<glyph unicode="&#xee;" horiz-adv-x="202" d="M233 838h-77q-5 0 -28 20.5t-26 20.5t-4 -1q-5 -5 -26.5 -22.5t-23.5 -17.5h-77q-5 0 -5 5q0 3 3 6l90 105q4 4 10 4h66q4 0 10 -4l91 -106q2 -2 2 -5q0 -5 -5 -5zM182 590v-582q0 -8 -7 -8h-147q-8 0 -8 9v579q0 12 10 12h142q10 0 10 -10zM172 770v-128q0 -11 -10 -11 h-122q-10 0 -10 12v124q0 4 3 7.5t7 3.5h123q9 0 9 -8z" />
<glyph unicode="&#xf1;" horiz-adv-x="374" d="M242 776l67 -12q3 0 3 -5q0 -25 -21.5 -59.5t-57.5 -34.5q-17 0 -40 10.5t-33 10.5q-21 0 -25 -20q0 -2 -1 -3t-2 -1h-1l-66 11q-3 0 -3 5q0 9 5.5 28t25 41.5t47.5 22.5q22 0 43 -10.5t33 -10.5q17 0 22 20q0 7 4 7zM165 0h-137q-8 0 -8 10v583q0 7 7 7h125 q4 0 10.5 -21t8.5 -21t7 7q29 37 78 37q39 0 68.5 -29t29.5 -77v-491q0 -5 -5 -5h-138q-7 0 -7 7v409q0 20 -16 20t-16 -20v-410q0 -6 -7 -6z" />
<glyph unicode="&#xf4;" horiz-adv-x="372" d="M317 660h-77q-5 0 -28 20.5t-26 20.5t-4 -1q-5 -5 -26.5 -22.5t-23.5 -17.5h-77q-5 0 -5 5q0 3 3 6l90 105q4 4 10 4h66q4 0 10 -4l91 -106q2 -2 2 -5q0 -5 -5 -5zM14 156v289q0 69 47.5 112t124.5 43q78 0 125 -43.5t47 -116.5v-284q0 -70 -47.5 -113t-124.5 -43 q-76 0 -124 43.5t-48 112.5zM170 420v-238q0 -20 16 -20t16 20v238q0 20 -16 20t-16 -20z" />
<glyph unicode="&#xf5;" horiz-adv-x="372" d="M241 774l67 -12q3 0 3 -5q0 -25 -21.5 -59.5t-57.5 -34.5q-17 0 -40 10.5t-33 10.5q-21 0 -25 -20q0 -2 -1 -3t-2 -1h-1l-66 11q-3 0 -3 5q0 9 5.5 28t25 41.5t47.5 22.5q22 0 43 -10.5t33 -10.5q17 0 22 20q0 7 4 7zM14 156v289q0 69 47.5 112t124.5 43q78 0 125 -43.5 t47 -116.5v-284q0 -70 -47.5 -113t-124.5 -43q-76 0 -124 43.5t-48 112.5zM170 420v-238q0 -20 16 -20t16 20v238q0 20 -16 20t-16 -20z" />
<glyph unicode="&#xfb;" horiz-adv-x="360" d="M311 660h-77q-5 0 -28 20.5t-26 20.5t-4 -1q-5 -5 -26.5 -22.5t-23.5 -17.5h-77q-5 0 -5 5q0 3 3 6l90 105q4 4 10 4h66q4 0 10 -4l91 -106q2 -2 2 -5q0 -5 -5 -5zM20 104v486q0 10 8 10h126q8 0 8 -8v-382q0 -20 16 -20t16 20v382q0 8 7 8h130q9 0 9 -7v-586q0 -7 -8 -7 h-118q-3 0 -9 17.5t-9 17.5t-11 -8q-29 -27 -71 -27q-35 0 -64.5 27.5t-29.5 76.5z" />
<glyph unicode="&#x152;" horiz-adv-x="824" d="M444 13v724q0 8 8 8h345q3 0 4 -3q1 -1 1 -3v-180q0 -3 -3 -4q-1 -1 -3 -1h-163q-4 0 -7.5 -3.5t-3.5 -8.5v-56q0 -5 3.5 -8.5t7.5 -3.5h75q2 0 2 -2v-182q0 -4 -3 -4h-77q-11 0 -11 -13v-59q0 -12 11 -12h168q2 0 3 -1q3 -1 3 -4v-186q0 -6 -6 -6h-348q-1 0 -2 1 q-4 2 -4 7zM14 226v296q0 108 57.5 166.5t140.5 58.5t140.5 -58.5t57.5 -166.5v-296q0 -107 -57.5 -165.5t-140.5 -58.5t-140.5 58t-57.5 166zM192 519v-290q0 -31 20 -31t20 31v290q0 12 -5 22t-15 10q-9 0 -14.5 -9t-5.5 -23z" />
<glyph unicode="&#x153;" horiz-adv-x="750" d="M386 190v248q0 82 51.5 122t120.5 40q82 0 130 -54t48 -131v-61q0 -9 -9 -9h-167q-6 0 -6 -8v-157q0 -22 16 -22t16 21v61q0 8 9 8l129 -7q10 -2 10 -11v-64q0 -89 -50.5 -127.5t-129.5 -38.5t-123.5 51.5t-44.5 138.5zM554 454v-50q0 -5 6 -5q26 0 26 5q0 49 -2.5 60 t-14.5 11q-15 0 -15 -21zM14 156v289q0 69 47.5 112t124.5 43q78 0 125 -43.5t47 -116.5v-284q0 -70 -47.5 -113t-124.5 -43q-76 0 -124 43.5t-48 112.5zM170 420v-238q0 -20 16 -20t16 20v238q0 20 -16 20t-16 -20z" />
<glyph unicode="&#x2c6;" horiz-adv-x="348" d="M305 635h-77q-5 0 -28 20.5t-26 20.5t-4 -1q-5 -5 -26.5 -22.5t-23.5 -17.5h-77q-5 0 -5 5q0 3 3 6l90 105q4 4 10 4h66q4 0 10 -4l91 -106q2 -2 2 -5q0 -5 -5 -5z" />
<glyph unicode="&#x2c9;" horiz-adv-x="349" d="M283 709v-65q0 -9 -9 -9h-200q-8 0 -8 10v61q0 4 3 7t5 3h200q9 0 9 -7z" />
<glyph unicode="&#x2da;" horiz-adv-x="349" d="M84 727q0 33 24.5 53t66.5 20t66 -20t24 -53q0 -16 -0.5 -24.5t-5.5 -23.5t-13.5 -23t-26.5 -14.5t-44 -6.5q-32 0 -52 8t-27.5 24.5t-9.5 28t-2 31.5zM159 736q0 -40 2 -48.5t14 -8.5q11 0 13 8.5t2 48.5q0 20 -15 20q-16 0 -16 -20z" />
<glyph unicode="&#x2dc;" horiz-adv-x="348" d="M229 749l67 -12q3 0 3 -5q0 -25 -21.5 -59.5t-57.5 -34.5q-17 0 -40 10.5t-33 10.5q-21 0 -25 -20q0 -2 -1 -3t-2 -1h-1l-66 11q-3 0 -3 5q0 9 5.5 28t25 41.5t47.5 22.5q22 0 43 -10.5t33 -10.5q17 0 22 20q0 7 4 7z" />
<glyph unicode="&#x3bc;" horiz-adv-x="360" d="M163 -15v-126q0 -8 -8 -8h-127q-2 0 -5 3t-3 7v729q0 10 8 10h126q8 0 8 -8v-382q0 -20 16 -20t16 20v382q0 8 7 8h130q9 0 9 -7v-586q0 -7 -8 -7h-118q-4 0 -10 17.5t-8 17.5q-9 0 -21 -14t-12 -36z" />
<glyph unicode="&#x2000;" horiz-adv-x="479" />
<glyph unicode="&#x2001;" horiz-adv-x="958" />
<glyph unicode="&#x2002;" horiz-adv-x="479" />
<glyph unicode="&#x2003;" horiz-adv-x="958" />
<glyph unicode="&#x2004;" horiz-adv-x="319" />
<glyph unicode="&#x2005;" horiz-adv-x="239" />
<glyph unicode="&#x2006;" horiz-adv-x="159" />
<glyph unicode="&#x2007;" horiz-adv-x="159" />
<glyph unicode="&#x2008;" horiz-adv-x="119" />
<glyph unicode="&#x2009;" horiz-adv-x="191" />
<glyph unicode="&#x200a;" horiz-adv-x="53" />
<glyph unicode="&#x2010;" horiz-adv-x="262" d="M20 430h222v-123h-222v123z" />
<glyph unicode="&#x2011;" horiz-adv-x="262" d="M20 430h222v-123h-222v123z" />
<glyph unicode="&#x2013;" horiz-adv-x="500" d="M0 430h500v-123h-500v123z" />
<glyph unicode="&#x2014;" horiz-adv-x="1000" d="M0 430h1000v-123h-1000v123z" />
<glyph unicode="&#x2018;" horiz-adv-x="208" d="M92 750h95q9 0 7 -7l-37 -172q-2 -7 -8 -7h-128q-7 0 -7 6q0 2 1 5l68 169q3 6 9 6z" />
<glyph unicode="&#x2019;" horiz-adv-x="208" d="M59 750h128q7 0 7 -6q0 -2 -1 -5l-68 -169q-3 -6 -9 -6h-95q-9 0 -7 7l37 172q2 7 8 7z" />
<glyph unicode="&#x201a;" horiz-adv-x="176" d="M31 118h128q7 0 7 -5q0 -2 -1 -5l-68 -169q-3 -6 -9 -6h-95q-9 0 -7 7l37 172q1 6 8 6z" />
<glyph unicode="&#x201c;" horiz-adv-x="415" d="M299 750h95q9 0 7 -7l-37 -172q-2 -7 -8 -7h-128q-10 0 -6 11l68 169q3 6 9 6zM92 750h95q9 0 7 -7l-37 -172q-2 -7 -8 -7h-128q-7 0 -7 6q0 2 1 5l68 169q3 6 9 6z" />
<glyph unicode="&#x201d;" horiz-adv-x="415" d="M59 750h128q10 0 6 -11l-68 -169q-3 -6 -9 -6h-95q-9 0 -7 7l37 172q2 7 8 7zM266 750h128q7 0 7 -6q0 -2 -1 -5l-68 -169q-3 -6 -9 -6h-95q-9 0 -7 7l37 172q2 7 8 7z" />
<glyph unicode="&#x201e;" horiz-adv-x="350" d="M31 118h128q10 0 6 -10l-68 -169q-3 -6 -9 -6h-95q-9 0 -7 7l37 172q1 6 8 6zM206 118h128q7 0 7 -5q0 -2 -1 -5l-68 -169q-3 -6 -9 -6h-95q-9 0 -7 7l37 172q2 6 8 6z" />
<glyph unicode="&#x2022;" horiz-adv-x="289" d="M145 192q-62 0 -96.5 47.5t-34.5 135.5t34.5 136t96.5 48t96 -48t34 -136q0 -87 -34.5 -135t-95.5 -48z" />
<glyph unicode="&#x2026;" horiz-adv-x="516" d="M158 139v-128q0 -11 -11 -11h-122q-10 0 -10 12v124q0 4 3.5 7.5t6.5 3.5h123q10 0 10 -8zM330 139v-128q0 -11 -11 -11h-122q-10 0 -10 12v124q0 4 3.5 7.5t6.5 3.5h123q10 0 10 -8zM502 139v-128q0 -11 -11 -11h-122q-10 0 -10 12v124q0 4 3.5 7.5t6.5 3.5h123 q10 0 10 -8z" />
<glyph unicode="&#x202f;" horiz-adv-x="191" />
<glyph unicode="&#x2039;" horiz-adv-x="150" d="M135 504v-76q0 -5 -20.5 -28.5t-20.5 -26.5q0 -1 2 -3t12 -15l18 -24q9 -11 9 -12v-76q0 -5 -5 -5q-3 0 -5 2l-105 91q-5 3 -5 9v66q0 7 5 10l105 91q2 2 5 2q5 0 5 -5z" />
<glyph unicode="&#x203a;" horiz-adv-x="150" d="M15 428v76q0 5 5 5q3 0 5 -2l105 -91q5 -3 5 -10v-66q0 -6 -5 -9l-105 -91q-2 -2 -5 -2q-5 0 -5 5v76q0 1 9 12l18 24q10 13 12 15t2 3q0 3 -20.5 26.5t-20.5 28.5z" />
<glyph unicode="&#x2044;" horiz-adv-x="241" d="M34 -5h-111l284 726h111z" />
<glyph unicode="&#x205f;" horiz-adv-x="239" />
<glyph unicode="&#x20ac;" horiz-adv-x="500" d="M22 353h12v28h-11q-10 0 -10 9v63q0 7 21 8v61q0 96 53 157t145 61t146 -61t54 -157v-18l-183 -7v21q0 20 -16 20t-16 -19v-58h92q35 0 43 -1t8 -7v-63q0 -9 -10 -9h-133v-28h133q10 0 10 -8v-63q0 -9 -10 -9h-133v-48q0 -20 16 -20t16 20v22l183 -7v-19 q0 -98 -54 -159.5t-146 -61.5t-145 61.5t-53 159.5v52h-11q-10 0 -10 9v63q0 8 9 8z" />
<glyph unicode="&#x2122;" horiz-adv-x="782" d="M216 300h-110q-9 0 -9 8v313q0 8 -9 8h-65q-2 0 -5 2.5t-3 5.5v107q0 6 6 6h278q8 0 8 -7v-106q0 -8 -9 -8h-65q-7 0 -7 -9v-312q0 -8 -10 -8zM455 300h-110q-6 0 -6 5v439q0 6 6 6h174q4 0 6 -6l20 -133q0 -6 3 -6q2 0 3 6l15 132q2 7 7 7h181q7 0 7 -7v-437q0 -6 -7 -6 h-118q-7 0 -7 6v198q0 7 -3 7q-5 0 -6 -12l-31 -194q-1 -5 -7 -5h-74q-6 0 -7 6l-30 193q-2 12 -6 12q-3 0 -3 -8v-197q0 -6 -7 -6z" />
</font>
</defs>
</svg>
