<?xml version="1.0" standalone="no"?>
<!DOCTYPE svg PUBLIC "-//W3C//DTD SVG 1.1//EN" "http://www.w3.org/Graphics/SVG/1.1/DTD/svg11.dtd" >
<svg xmlns="http://www.w3.org/2000/svg">
<metadata>
This is a custom SVG webfont generated by Font Squirrel.
</metadata>
<defs>
<font id="webfontcYOruZlw" horiz-adv-x="1008" >
<font-face units-per-em="2048" ascent="1638" descent="-410" />
<missing-glyph horiz-adv-x="205" />
<glyph unicode=" "  horiz-adv-x="205" />
<glyph unicode="&#x09;" horiz-adv-x="205" />
<glyph unicode="&#xa0;" horiz-adv-x="205" />
<glyph unicode="!" horiz-adv-x="442" d="M369 285q-2 16 -21 16h-252q-18 -2 -20 -22v-254q0 -23 20 -25h250q21 0 23 23v262zM76 391q6 -22 22 -22h248q21 2 23 26l43 1122q0 17 -21 19h-344q-16 -2 -16 -19z" />
<glyph unicode="$" horiz-adv-x="872" d="M537 115q299 65 305 381q-2 192 -195 337q-205 144 -205 205q0 29 27 31q14 -2 37 -37q20 -39 31 -41l280 14q23 5 23 23q-2 137 -80 242q-80 102 -223 133q0 88 -3 112q-2 21 -12 21h-2h-149q-15 -2 -15 -19v-112q-141 -33 -217 -135q-76 -103 -76 -224q0 -110 56 -198 q51 -88 137 -154q121 -84 168 -131q43 -47 43 -84q-2 -45 -45 -45q-72 2 -94 115q-4 22 -23 22l-260 -14q-16 -2 -16 -18q0 -363 327 -422q0 -88 2 -113q2 -24 15 -24h147q14 2 17 16v119z" />
<glyph unicode="%" horiz-adv-x="1433" d="M29 876q2 -118 84 -194q79 -78 198 -78q121 0 203 78q80 76 82 194v371q0 109 -76 186q-76 80 -209 82q-125 -2 -200 -79q-82 -80 -82 -189v-371zM279 1229q0 35 34 37q33 -2 33 -37v-334q0 -37 -33 -39q-14 0 -24 14q-10 11 -10 27v332zM838 272q2 -118 84 -194 q79 -78 198 -78q121 0 203 78q80 76 82 194v371q0 109 -76 186q-76 80 -209 82q-125 -2 -201 -80q-81 -79 -81 -188v-371zM1087 625q0 34 35 36q33 -2 33 -36v-334q0 -37 -33 -39q-14 0 -24 14q-11 10 -11 27v332zM522 18q-2 -20 12 -22h154q19 0 23 18l204 1499 q2 17 -12 19h-160q-14 0 -18 -19z" />
<glyph unicode="&#x26;" horiz-adv-x="1073" d="M922 395q-15 27 -15 41q0 12 19 35l133 160q8 10 8 24q0 11 -4 19l-111 159q-8 11 -18 11q-6 0 -12 -6l-123 -150q-9 -12 -19 -14q-10 0 -18 16l-80 158q-10 18 -10 33q0 16 16 32q53 39 111 121q55 80 57 205q-2 129 -92 213q-90 82 -246 84q-145 0 -248 -88 q-106 -90 -108 -262q0 -99 28 -181q27 -81 48 -118q8 -21 8 -33t-23 -29q-82 -51 -135 -151q-59 -101 -59 -262q2 -193 102 -299q98 -113 248 -113q65 0 129 27q63 24 110 77q19 19 29 19q12 0 23 -17q24 -40 63 -71q39 -35 100 -35q93 2 158 55q33 23 51 43q17 21 17 27 t-4 16zM479 401q4 -14 -8 -18q-14 -6 -23 -6q-18 0 -36 22q-19 21 -33 49q-31 64 -31 101q0 22 10 41q11 16 17 16t8 -6zM549 1128q-10 17 -17 37q-8 21 -8 37q0 43 31 45q33 -2 35 -49q0 -29 -10 -49q-11 -25 -23 -25q-4 0 -8 4z" />
<glyph unicode="(" horiz-adv-x="463" d="M319 915q7 377 146 709q2 14 -10 14h-256q-19 -2 -45 -65q-13 -31 -27 -74l-31 -98q-65 -223 -67 -479v-238q2 -289 65 -528q29 -115 55 -185q27 -69 43 -71h265q10 0 10 8q0 6 -2 10q-137 301 -146 760v237z" />
<glyph unicode=")" horiz-adv-x="463" d="M143 678q-8 -459 -145 -760q-2 -6 -2 -8q0 -10 10 -10h264q19 2 47 71q25 70 54 185q59 239 63 528v238q-4 256 -63 479l-25 98q-14 43 -31 74q-28 63 -51 65h-256q-14 -2 -10 -12q139 -334 145 -711v-237z" />
<glyph unicode="*" horiz-adv-x="565" d="M365 1343q-7 -6 -11 -6q-4 2 -4 13l8 176q0 10 -10 10h-133q-10 -2 -10 -12l8 -177q2 -10 -4 -10q-2 0 -8 4l-97 82q-8 2 -12 -4l-74 -104q-2 -6 -2 -8q0 -7 4 -11l142 -82q10 -6 10 -10q-2 -6 -6 -12l-107 -148q-4 -8 4 -12l111 -67q8 -5 14 2l88 161q0 9 7 9q4 0 6 -9 l86 -161q2 -5 8 -5q4 0 8 3l109 65q6 4 6 10q-2 4 -2 6l-103 146q-8 8 -8 12q0 6 8 10l144 84q5 3 5 8q0 3 -3 7l-76 108q-2 2 -6 2q-2 0 -6 -2z" />
<glyph unicode="," horiz-adv-x="360" d="M63 242q-14 0 -16 -13l-76 -352q0 -12 15 -14h194q12 0 19 12l139 346q2 5 2 8q0 11 -14 13h-263z" />
<glyph unicode="-" horiz-adv-x="537" d="M41 881v-252h455v252h-455z" />
<glyph unicode="." horiz-adv-x="375" d="M334 285q-2 16 -21 16h-252q-18 -2 -20 -22v-254q0 -23 20 -25h250q21 0 23 23v262z" />
<glyph unicode="/" horiz-adv-x="393" d="M0 23v-5q0 -18 12 -18h152q18 0 22 18l207 1499q0 17 -14 19h-158q-14 0 -18 -19z" />
<glyph unicode="0" horiz-adv-x="913" d="M31 453q2 -201 116 -324q115 -127 308 -129q194 2 311 129q115 123 117 324v616q-2 199 -117 321q-115 123 -311 125q-193 -2 -308 -125q-114 -122 -116 -321v-616zM424 1063q0 39 33 39q32 0 32 -41v-600q-2 -41 -32 -41q-33 0 -33 41v602z" />
<glyph unicode="1" horiz-adv-x="545" d="M92 14q0 -14 14 -14h383q15 0 15 16v1483q-2 14 -17 16h-448q-19 -2 -19 -16v-418q0 -8 11 -12q10 -2 49 -2q10 -2 12 -12v-1041z" />
<glyph unicode="2" horiz-adv-x="881" d="M453 424q-13 0 -13 8t8 14q189 123 302 258q110 134 112 357q-2 188 -110 319q-109 131 -312 135q-194 -2 -297 -135q-106 -131 -106 -325q0 -60 4 -76q2 -17 20 -17l318 -14q14 0 16 17q0 49 17 84q10 18 18 28q10 8 18 8q29 -2 29 -47q-2 -63 -43 -125 q-43 -61 -112 -127l-140 -137q-71 -76 -131 -164q-20 -34 -20 -61v-410q2 -14 18 -14h778q21 0 21 16v389q0 17 -17 19h-378z" />
<glyph unicode="3" horiz-adv-x="917" d="M307 666q-2 -15 19 -19q16 -4 82 -4q59 0 71 -35q10 -37 10 -147q-2 -41 -32 -41q-23 -2 -29 22q-4 23 -4 109q0 16 -14 16l-369 -14q-1 1 -2 1q-10 0 -10 -76v-25q2 -201 120 -324q117 -127 308 -129q196 2 313 131q115 127 117 326q-2 133 -64 213q-59 80 -121 98 q-26 8 -26 14t22 17q62 32 117 112q53 80 55 207q-2 186 -112 293q-113 102 -301 104q-152 -2 -236 -53t-123 -129q-37 -76 -45 -155q-8 -68 -8 -121v-21q0 -16 16 -16l340 -15q23 0 23 21q0 70 4 88q6 14 29 14q24 2 28 -20q4 -25 4 -111q-2 -57 -81 -59q-66 0 -82 -2 q-21 -4 -19 -29v-241z" />
<glyph unicode="4" horiz-adv-x="922" d="M403 14q0 -14 15 -14h381q16 0 16 14v254q0 13 16 21q15 6 31 6q19 0 35 4q14 4 14 12v316q-2 22 -59 22q-39 2 -37 33v817q-2 14 -16 16h-303q-15 -2 -23 -16l-457 -838q-6 -10 -6 -24v-328q0 -14 15 -14h368q10 0 10 -10v-271zM383 801q6 12 12 12q8 0 8 -12v-142 q-2 -10 -12 -10q-53 0 -67 2t-14 6q0 1 1 2z" />
<glyph unicode="5" horiz-adv-x="954" d="M45 676q0 -21 16 -19l240 -20q18 -2 25 18q10 29 28 47q19 21 49 21q97 -2 97 -131q0 -92 -4 -119q-5 -27 -29 -25q-23 -2 -29 25q-4 27 -4 94q0 15 -12 15l-383 -15q-10 0 -10 -14v-105q0 -167 116 -303q113 -141 316 -145q454 0 467 526q-2 226 -117 369 q-117 141 -315 143q-78 0 -121 -26q-13 -7 -15 -7q-4 -2 -4 7q0 18 6 59q7 39 21 41l471 -31q16 -2 18 15l39 405q0 14 -12 14h-762q-12 0 -16 -14z" />
<glyph unicode="6" horiz-adv-x="938" d="M29 582v-9q0 -240 110 -401q111 -170 342 -172q178 2 301 123q125 117 127 317q-2 187 -78 285q-75 98 -192 98q-57 -2 -94 -18q-37 -19 -58 -45q-16 -17 -24 -17q-12 0 -12 19v352q0 18 12 29q10 8 20 8q25 0 29 -25q4 -28 4 -102q0 -19 14 -19l355 15q16 4 16 20 q-2 226 -123 350q-123 125 -321 125q-183 -2 -301 -143q-125 -141 -127 -381v-409zM514 436q-2 -26 -29 -26h-4h-4q-26 0 -26 24v76q0 41 32 41q29 0 31 -41v-74z" />
<glyph unicode="7" horiz-adv-x="733" d="M20 1122q0 -14 13 -14h280q17 0 19 -6q0 -6 -10 -23q-68 -102 -121 -260q-52 -160 -86 -328q-72 -358 -72 -466q0 -25 20 -25h428q15 0 17 16q6 770 192 1055q11 16 11 39v391q-2 14 -31 14h-645q-15 0 -15 -12v-381z" />
<glyph unicode="8" horiz-adv-x="917" d="M457 1515q-185 -2 -295 -102q-115 -104 -117 -285q2 -254 152 -325q26 -15 26 -19q0 -2 -28 -20q-66 -35 -115 -111q-51 -76 -51 -209q2 -215 125 -327q118 -117 303 -117q186 0 307 117q123 112 125 327q-2 133 -62 215q-59 80 -125 105q-26 12 -26 16q0 6 22 17 q66 28 117 112q53 80 55 207q-2 186 -112 293q-113 106 -301 106zM491 465q-2 -41 -32 -41q-33 0 -35 41v137q2 39 33 39q32 -2 34 -39v-137zM491 960q-2 -24 -34 -24q-33 0 -33 24v127q2 39 33 39q32 -2 34 -39v-127z" />
<glyph unicode="9" horiz-adv-x="930" d="M901 928q0 250 -108 415q-109 168 -345 172q-176 -2 -299 -122q-126 -121 -129 -324q3 -184 80 -283q74 -100 191 -100q61 0 96 21q35 20 55 43q17 16 25 16q10 0 12 -27v-342q0 -39 -33 -39q-20 0 -26 27l-6 100q-2 17 -17 19l-354 -15q-14 -2 -14 -18q2 -225 127 -346 q120 -125 317 -125q184 0 305 143q121 140 123 375v410zM416 1073q2 29 30 29q33 -2 33 -31v-72q-2 -41 -31 -41q-32 0 -32 41v74z" />
<glyph unicode=":" horiz-adv-x="377" d="M334 999q-2 17 -21 17h-252q-18 -2 -20 -23v-254q0 -22 20 -24h250q21 0 23 22v262zM334 285q-2 16 -21 16h-252q-18 -2 -20 -22v-254q0 -23 20 -25h250q21 0 23 23v262z" />
<glyph unicode=";" horiz-adv-x="377" d="M63 242q-14 0 -16 -13l-76 -352q0 -12 15 -14h194q12 0 19 12l139 346q2 5 2 8q0 11 -14 13h-263zM334 999q-2 17 -21 17h-252q-18 -2 -20 -23v-254q0 -22 20 -24h250q21 0 23 22v262z" />
<glyph unicode="?" horiz-adv-x="864" d="M328 1040q22 -2 30 25q7 29 23 47q12 18 33 18q34 -2 34 -55q3 -72 -131 -244q-65 -84 -92 -192q-14 -55 -20 -113q-8 -61 -8 -123q0 -12 10 -22q10 -12 18 -12h256q23 -2 29 32q4 25 16 60q11 35 29 73q41 80 117 158q188 176 192 383q-2 205 -110 332 q-109 127 -314 129q-198 -2 -317 -127q-121 -127 -123 -334q0 -20 20 -20zM498 285q-2 16 -21 16h-252q-18 -2 -20 -22v-254q0 -23 20 -25h250q21 0 23 23v262z" />
<glyph unicode="A" d="M299 1536q-20 -2 -25 -25l-274 -1476v-6q0 -11 6 -19q6 -10 19 -10h337q21 0 27 23l39 301q4 20 18 20h111q16 0 20 -16l41 -308q7 -20 27 -20h332q18 0 26 16q5 7 5 16q0 6 -3 13l-280 1464q-4 25 -27 27h-399zM545 567q2 -4 2 -6q0 -7 -10 -8q-15 -4 -62 -4 q-14 0 -12 20l26 195q5 47 15 47q10 -2 14 -47z" />
<glyph unicode="B" horiz-adv-x="897" d="M41 23q0 -23 20 -23h381q158 0 248 57q88 52 125 127q39 76 47 150q6 71 6 110q0 123 -57 217q-59 93 -158 127v5q78 26 123 69q43 43 62 96q18 54 22 109q2 53 2 100q0 135 -108 250q-109 115 -310 119h-381q-22 -2 -22 -25v-1488zM408 1221q0 12 14 12q20 0 41 -12 q16 -13 18 -41v-177q0 -30 -16 -43q-21 -16 -43 -16q-14 0 -14 14v263zM408 620q0 17 12 17q26 0 45 -12q18 -15 18 -43v-215q0 -25 -16 -41q-19 -19 -45 -19q-14 0 -14 15v298z" />
<glyph unicode="C" horiz-adv-x="969" d="M29 543q0 -226 116 -383q115 -162 328 -166h5q196 0 325 147q129 152 131 516q0 15 -17 17l-387 14q-12 2 -18 -8t-6 -21v-206q0 -35 -33 -37q-33 0 -33 35v636q2 35 33 37q31 0 33 -39v-129q2 -41 37 -41l379 15q14 -2 16 12q2 10 2 49q0 227 -115 385 q-116 160 -342 164q-446 -8 -454 -590v-407z" />
<glyph unicode="D" horiz-adv-x="981" d="M448 0q242 2 373 164q131 158 131 411v381q-8 574 -518 580h-366q-27 -2 -27 -31v-1480q0 -25 25 -25h382zM541 479q0 -20 -4 -33q-7 -12 -17 -18q-17 -8 -28 -8h-5q-12 0 -12 16v680q0 19 12 19q19 -3 35 -13q19 -16 19 -47v-596z" />
<glyph unicode="E" horiz-adv-x="860" d="M41 27q0 -27 22 -27h734q20 0 22 23v380q0 19 -22 21h-355q-12 0 -12 14v121q0 16 14 16h166q15 0 17 19v373q0 14 -15 14h-161q-15 0 -15 14v115q0 14 15 14h342q20 0 22 21v368q0 21 -20 23h-727q-27 -2 -27 -27v-1482z" />
<glyph unicode="F" horiz-adv-x="860" d="M41 27q2 -27 22 -27h357q26 0 26 29v497q0 25 21 27h153q23 0 25 22v371q-2 19 -22 21h-156q-21 0 -21 18v123q0 22 23 22h332q24 0 26 27v356q-2 21 -24 23h-737q-25 -2 -25 -29v-1480z" />
<glyph unicode="G" horiz-adv-x="991" d="M504 514q0 -12 8 -12h10q8 -2 8 -13v-30q0 -35 -12 -47q-12 -15 -33 -15h-2q-43 0 -45 90v564q0 47 33 47q31 0 33 -23v-117q0 -14 10 -24t18 -10l371 16q21 0 21 27q-2 213 -54 333q-53 119 -129 168q-73 54 -141 64q-70 8 -102 8q-254 -2 -363 -176 q-106 -169 -106 -452v-11v-240q2 -667 457 -667h3q121 2 203 47t133 117q99 146 99 303v6q-2 22 14 24h35q8 0 8 17v235q-2 23 -27 25h-415q-11 0 -21 -4q-14 -6 -14 -25v-225z" />
<glyph unicode="H" horiz-adv-x="922" d="M41 31q0 -29 27 -31h337q17 0 19 20v537q0 14 14 16h47q13 -2 13 -16v-534q0 -21 18 -23h348q17 2 17 23v1494q0 17 -21 19h-346q-16 -2 -16 -19v-534q-2 -14 -19 -14h-41q-14 0 -14 14v537q0 16 -19 16h-344q-20 0 -20 -21v-1484z" />
<glyph unicode="I" horiz-adv-x="475" d="M410 0q22 2 24 27v1488q-2 21 -24 21h-351q-18 -2 -18 -21v-1484q0 -29 27 -31h342z" />
<glyph unicode="J" horiz-adv-x="870" d="M436 471q0 -27 -6 -37q-6 -12 -22 -12q-27 0 -43 39q-17 37 -23 98q-4 25 -25 25l-286 -15q-21 -2 -21 -22q0 -180 53 -289q50 -109 119 -166q70 -53 131 -74q62 -18 88 -18q205 2 318 129q108 121 110 289v1091q-2 25 -24 27h-346q-23 -2 -23 -21v-1044z" />
<glyph unicode="K" horiz-adv-x="942" d="M528 16q4 -16 17 -16h377q14 0 14 11q0 4 -2 9l-268 760q-5 13 -5 23t7 26l260 678q2 6 2 13q0 16 -15 16h-360q-16 -2 -23 -19l-79 -358q-7 -14 -13 -14t-6 14v356q0 21 -26 21h-349q-18 -2 -18 -21v-1484q0 -13 8 -21q6 -10 17 -10h342q24 2 26 27v395q0 16 6 16 t11 -14z" />
<glyph unicode="L" horiz-adv-x="852" d="M446 424q-12 0 -12 14v1075q0 21 -20 23h-346q-27 -2 -27 -29v-1480q0 -27 22 -27h734q20 0 22 23v380q0 19 -22 21h-351z" />
<glyph unicode="M" horiz-adv-x="1411" d="M405 0q21 0 21 23v600q0 26 10 26q10 2 21 -41l94 -585q6 -23 22 -23h232q18 0 22 16l107 629q8 43 14 41q6 0 6 -22v-641q0 -23 23 -23h370q21 0 23 20v1493q0 23 -23 23h-569q-18 -2 -22 -23l-49 -403q0 -23 -9 -23q-6 0 -10 21l-61 407q-4 21 -21 21h-549 q-16 -2 -16 -21v-1497q0 -16 16 -18h348z" />
<glyph unicode="N" horiz-adv-x="987" d="M41 29q0 -29 20 -29h312q24 0 26 27v362q0 29 11 29q10 0 18 -29l90 -369q6 -20 23 -20h383q22 0 22 27v1480q0 27 -27 29h-307q-24 -2 -24 -27v-456q-2 -27 -13 -27q-6 0 -14 25l-123 460q-6 25 -28 25h-347q-22 -2 -22 -27v-1480z" />
<glyph unicode="O" horiz-adv-x="909" d="M29 463q2 -236 129 -352q123 -117 297 -117t299 117q125 116 127 352v606q-2 240 -127 356q-121 115 -299 115q-174 0 -297 -115q-127 -116 -129 -356v-606zM422 1063q0 22 10 39q6 16 23 16q18 0 26 -16q6 -17 6 -39v-594q0 -51 -32 -53q-33 2 -33 53v594z" />
<glyph unicode="P" horiz-adv-x="954" d="M41 37q0 -35 33 -37h358q35 0 35 29v649q-2 18 20 22q19 2 90 2q152 2 259 119q106 113 108 260q-2 148 -47 238q-47 88 -115 137q-67 49 -131 66q-65 14 -104 14h-477q-29 -2 -29 -35v-1464zM467 1132q0 13 6 17q6 2 14 2q41 -2 43 -55v-84q0 -66 -43 -68q-20 2 -20 23 v165z" />
<glyph unicode="Q" horiz-adv-x="905" d="M879 1071q-3 240 -127 354q-121 115 -299 115q-174 0 -297 -115q-125 -114 -127 -354v-606q2 -236 129 -352q121 -119 295 -119q22 2 53 8q28 6 51 6q4 0 6 -4q55 -92 139 -94q21 2 45 8q78 31 125 76q47 43 50 59q-5 10 -70 47l-45 35q-25 17 -25 25q0 6 4 8 q37 41 66 115q27 73 27 182v606zM418 1065q0 22 10 39q6 14 23 14q18 0 26 -14q6 -17 6 -39v-594q0 -53 -32 -55q-33 2 -33 48v5v596z" />
<glyph unicode="R" horiz-adv-x="1036" d="M63 1536q-22 -2 -22 -25v-1484q0 -27 25 -27h350q22 2 24 25v655q-2 22 15 24q47 0 51 -98v-315q6 -293 246 -295q28 0 73 8t88 35q47 31 80 90q29 57 31 162q-2 16 -19 28q-32 15 -43 33q-12 17 -12 35q0 80 -2 143q-4 66 -29 117q-20 53 -71 92q-53 37 -148 62v4 q74 12 119 53q43 39 64 88q20 53 28 107q4 53 4 94q-4 188 -129 289q-122 100 -266 100h-457zM440 1087q0 19 17 19q41 -2 47 -74q0 -70 -6 -110q-9 -41 -43 -41h-3q-12 0 -12 18v188z" />
<glyph unicode="S" horiz-adv-x="946" d="M893 1055q24 0 24 26q-2 191 -116 322q-119 133 -328 137q-207 -4 -317 -137q-113 -133 -113 -299q0 -223 205 -404q108 -82 178 -147q35 -31 55 -55q19 -29 19 -47q-2 -66 -44 -66h-3q-37 2 -60 55q-24 51 -33 115q-2 27 -24 27l-283 -15q-24 -2 -24 -20 q0 -250 112 -398q111 -153 342 -155q205 4 318 145q112 137 114 348q-2 117 -65 220q-64 100 -168 169q-94 64 -154 119q-65 56 -65 105q0 35 31 37q43 0 61 -74q6 -23 25 -23z" />
<glyph unicode="T" horiz-adv-x="983" d="M666 0q26 0 28 27v1067q0 28 25 28h205q26 0 28 29v360q-2 25 -26 25h-877q-18 0 -18 -21v-364q0 -8 10 -19q6 -10 16 -10h205q25 -2 27 -24v-1069q2 -29 28 -29h349z" />
<glyph unicode="U" horiz-adv-x="934" d="M61 1536q-20 0 -20 -23v-1095q0 -166 113 -289q108 -127 313 -129q205 2 315 129q109 121 111 289v1097q-2 21 -23 21h-346q-22 -2 -22 -21v-1044q0 -41 -35 -43q-35 0 -35 45v1040q-2 23 -22 23h-349z" />
<glyph unicode="V" horiz-adv-x="1012" d="M405 1515q-4 21 -24 21h-367q-15 -2 -15 -16q0 -3 1 -7l276 -1488q5 -23 25 -25h399q23 0 27 25l285 1484q2 25 -19 27h-352q-18 -2 -25 -27l-86 -635q-2 -16 -10 -16q-4 0 -10 16z" />
<glyph unicode="W" horiz-adv-x="1274" d="M23 1536q-23 0 -23 -27l197 -1482q6 -27 28 -27h303q19 0 23 25l72 491q4 33 16 35q12 -2 16 -33l78 -495q4 -23 25 -23h299q20 0 26 31l191 1476v6q0 21 -25 23h-332q-18 -2 -22 -25l-41 -487q-4 -39 -18 -39q-13 0 -17 39l-53 489q-6 21 -25 23h-209q-20 0 -24 -27 l-49 -485q-4 -39 -19 -39q-12 0 -16 39l-45 485q-6 27 -31 27h-325z" />
<glyph unicode="X" horiz-adv-x="928" d="M2 20q-2 -4 -2 -10q0 -10 12 -10h377q14 0 19 14l47 252q2 13 8 13q4 0 8 -13l47 -252q4 -14 14 -14h381q14 0 14 12q0 3 -1 8l-238 746q-4 12 -4 22q0 11 6 27l234 690q2 8 2 15q-2 16 -17 16h-375q-12 0 -16 -16l-47 -213q-4 -15 -10 -15q-4 0 -8 15l-48 213 q-4 14 -16 16h-375q-18 -2 -12 -23l234 -706q4 -12 4 -21q0 -8 -4 -16z" />
<glyph unicode="Y" horiz-adv-x="1018" d="M260 645q19 -61 19 -100v-520q4 -23 24 -25h399q25 0 29 27v514q2 49 19 108l268 862q1 4 1 7q0 16 -18 18h-356q-20 -2 -25 -27l-94 -417q-2 -17 -10 -17q-4 0 -10 17l-98 423q-5 21 -23 21h-373q-14 -2 -12 -16z" />
<glyph unicode="Z" horiz-adv-x="768" d="M451 424q-19 0 -15 20l283 678q8 19 8 35l-2 354q-2 23 -18 25h-648q-16 -2 -16 -23v-370q0 -19 16 -19h269q12 -2 10 -18l-289 -696q-8 -17 -8 -35v-355q2 -20 18 -20h645q21 0 23 23v380q0 19 -23 21h-253z" />
<glyph unicode="[" horiz-adv-x="410" d="M61 1638q-18 -2 -20 -22v-1702q0 -12 16 -14h320q10 0 12 12v207q4 14 -53 12q-14 0 -14 16v1243q0 13 10 15h43q12 0 14 12v211q-2 8 -12 10h-316z" />
<glyph unicode="]" horiz-adv-x="410" d="M31 1638q-11 -2 -11 -12v-209q0 -12 13 -12h47q8 -2 8 -15v-1245q-2 -14 -16 -14h-41q-11 -2 -11 -14v-207q0 -10 11 -10h319q17 2 19 14v1702q-2 20 -23 22h-315z" />
<glyph unicode="_" horiz-adv-x="1024" d="M0 -154v-102h1024v102h-1024z" />
<glyph unicode="`" horiz-adv-x="715" d="M530 1300q13 0 13 15q0 6 -4 12l-140 229q-8 15 -24 17h-187q-16 -2 -16 -17q0 -6 2 -8l182 -235q9 -13 21 -13h153z" />
<glyph unicode="a" horiz-adv-x="803" d="M326 801q16 0 18 16q0 68 4 90q6 17 29 17q28 0 31 -43v-7q0 -45 -23 -73q-27 -31 -135 -78q-86 -33 -152 -103q-67 -71 -69 -192v-152q0 -75 22 -127q23 -51 53 -86q33 -32 70 -47q35 -16 68 -16q55 0 92 25q35 22 51 45q18 20 23 20q6 0 20 -18q23 -33 57 -56 q35 -22 105 -22q88 2 145 74q58 67 58 145v127q0 14 -15 16q-33 0 -41 2q-10 2 -10 15v555q0 125 -90 211q-90 88 -260 90q-160 -2 -248 -90q-90 -90 -90 -217q0 -68 2 -89q4 -20 12 -18zM408 328q-3 -35 -33 -35q-31 0 -33 35v151q0 35 23 49q20 15 30 15q13 -4 13 -17 v-198z" />
<glyph unicode="b" horiz-adv-x="750" d="M317 0q9 2 21 27q10 22 18 24q6 0 23 -14q49 -37 121 -37h4q80 0 145 80q33 45 51 125q19 78 19 203v428q0 116 -19 194q-22 76 -57 119q-33 45 -74 63q-43 17 -84 17q-69 0 -116 -43q-15 -15 -19 -15q-6 0 -6 17v358q-2 19 -18 21h-267q-18 0 -18 -17v-1532 q2 -18 18 -18h258zM344 852q0 24 12 41q11 12 27 12q27 -2 27 -39v-514q0 -10 -2 -22q-5 -17 -25 -17q-14 0 -23 11q-16 12 -16 38v490z" />
<glyph unicode="c" horiz-adv-x="747" d="M29 391q0 -180 94 -282q88 -109 237 -109q134 0 209 57q76 52 107 127q33 80 39 158q4 76 4 129q0 20 -23 25l-272 14q-23 0 -23 -21v-131q-2 -41 -30 -41q-33 0 -35 41v545q0 19 12 31q10 10 21 10q30 -2 32 -41v-151q0 -23 25 -25l268 14q19 0 23 23q2 18 2 90 q-2 147 -92 258q-95 113 -258 117q-164 -2 -250 -109q-90 -104 -90 -246v-483z" />
<glyph unicode="d" horiz-adv-x="750" d="M688 0q16 0 19 18v1532q-3 17 -19 17h-266q-19 -2 -19 -21v-358q-2 -17 -6 -17q-6 0 -20 15q-43 43 -115 43h-4q-82 0 -152 -80q-32 -43 -55 -119q-22 -78 -22 -194v-428q0 -125 22 -203q21 -80 51 -125q33 -45 70 -62q39 -18 76 -18q74 0 119 37q20 14 24 14 q8 -2 21 -24q10 -25 18 -27h258zM403 362q-2 -26 -16 -38q-10 -11 -22 -11q-17 0 -23 17q-4 12 -4 22v514q0 17 8 29q6 10 19 10q36 -2 38 -53v-490z" />
<glyph unicode="e" horiz-adv-x="774" d="M29 389q0 -176 92 -280q88 -109 252 -109q147 0 256 74q108 73 112 266v131q0 18 -20 23l-264 14q-19 -2 -19 -17v-124q0 -21 -10 -31q-10 -12 -23 -12q-32 -2 -32 45v321q0 17 12 17h342q16 0 18 18v125q0 155 -94 266t-270 113q-129 0 -238 -74q-112 -78 -114 -258 v-508zM373 930q2 43 30 43h4q21 0 27 -23q4 -26 4 -123q3 -10 -38 -10h-15q-12 0 -12 10v103z" />
<glyph unicode="f" horiz-adv-x="463" d="M655 1325q15 4 15 16q0 47 -4 88q-7 41 -33 72q-27 31 -84 49q-58 17 -162 17q-143 0 -229 -50q-90 -53 -90 -151v-127q-2 -10 -25 -10q-18 0 -25 -6q-8 -7 -8 -17v-287q-2 -16 29 -16q29 0 29 -16v-869q0 -16 16 -18h278q15 0 17 18v871q-2 14 31 14q16 0 30 6 q13 2 13 15v284q-2 21 -41 21q-33 0 -33 14v127q0 27 29 25q10 0 16 -11q2 -12 2 -57q0 -16 18 -16z" />
<glyph unicode="g" horiz-adv-x="659" d="M29 631q0 -62 32 -119q29 -59 70 -98q-39 -29 -68 -84q-32 -56 -32 -113q2 -102 49 -139q-64 -43 -66 -150q0 -90 82 -159q80 -74 250 -76q139 2 227 69q86 68 88 203v5q0 268 -315 298q-59 11 -84 23q-26 12 -26 28q0 13 12 33q39 -10 84 -10q135 0 217 82q80 76 82 205 v305q-2 115 -43 170q14 10 59 31q45 18 47 34q0 17 -33 66q-14 22 -32 39q-19 14 -41 14q-35 -2 -68 -35q-33 -32 -45 -55q-53 31 -143 31q-135 -2 -217 -78q-84 -78 -86 -209v-311zM297 895q0 39 35 39q28 0 30 -41v-225q0 -41 -30 -41q-35 0 -35 41v227zM379 0 q31 0 31 -23q0 -24 -27 -32q-27 -11 -55 -11q-17 0 -60 11q-18 6 -35 18q-16 10 -16 29q0 18 12 28q68 -16 150 -20z" />
<glyph unicode="h" horiz-adv-x="780" d="M41 18q0 -16 16 -18h293q15 0 15 16v846q2 41 32 41q31 0 33 -41v-848q0 -14 14 -14h283q10 0 12 12v1006q0 61 -16 102q-19 39 -49 64q-29 24 -64 37q-33 8 -67 8q-90 -2 -144 -60q-16 -12 -20 -12q-6 -2 -6 18v373q0 19 -21 19h-289q-22 0 -22 -25v-1524z" />
<glyph unicode="i" horiz-adv-x="414" d="M373 1208q0 19 -21 21h-291q-20 -2 -20 -25v-1186q0 -16 16 -18h301q15 0 15 16v1192zM352 1577q-2 16 -18 16h-252q-21 -2 -21 -22v-254q0 -23 21 -25h250q20 0 20 23v262z" />
<glyph unicode="j" horiz-adv-x="410" d="M-225 -68q-10 -4 -10 -14q0 -45 6 -86q4 -41 30 -72q27 -30 84 -47q58 -18 162 -20q145 0 234 53q84 53 86 148v1316q-2 17 -19 19h-289q-16 0 -18 -17v-1312q0 -35 -16 -33q-13 0 -15 12q-2 10 -2 55q0 15 -14 13zM346 1577q-2 16 -18 16h-252q-21 -2 -21 -22v-254 q0 -23 21 -25h250q20 0 20 23v262z" />
<glyph unicode="k" horiz-adv-x="754" d="M414 16q6 -16 16 -16h301q12 2 12 18l-174 652q-6 8 -6 14t4 16l152 510q0 17 -15 19h-284q-10 0 -17 -17l-55 -282l-2 -8q-4 0 -4 8v620q0 15 -12 17h-275q-14 -2 -14 -17v-1530q0 -20 16 -20h281q14 0 14 12v379q0 8 4 8t4 -8z" />
<glyph unicode="l" horiz-adv-x="414" d="M356 0q15 0 17 16v1532q0 19 -21 19h-289q-22 0 -22 -25v-1524q0 -16 16 -18h299z" />
<glyph unicode="m" horiz-adv-x="1153" d="M1112 1014q-2 92 -55 149q-56 58 -138 60q-57 0 -96 -21q-41 -22 -71 -51q-15 -16 -25 -16q-8 0 -25 20q-24 35 -61 55q-39 19 -94 19q-49 0 -88 -21q-41 -22 -66 -51q-14 -16 -22 -16q-9 2 -19 45q-12 41 -24 43h-269q-18 -2 -18 -17v-1196q0 -16 14 -16h281q16 0 16 14 v840q2 41 33 41t33 -41v-836q0 -18 18 -18h281q18 0 18 20v832q2 43 33 43t33 -43v-829q0 -23 18 -23h275q18 0 18 23v991z" />
<glyph unicode="n" horiz-adv-x="766" d="M338 0q14 0 14 12v840q2 41 33 41t33 -41v-838q0 -14 14 -14h283q10 0 10 10v1006q-2 106 -61 162q-60 55 -140 55q-63 0 -98 -19q-35 -20 -61 -57q-13 -16 -15 -14q-6 2 -16 45q-10 39 -23 41h-256q-14 0 -14 -15v-1194q0 -20 16 -20h281z" />
<glyph unicode="o" horiz-adv-x="762" d="M29 319q2 -143 98 -229q94 -90 254 -90q162 0 256 90q94 86 96 229v582q-2 152 -96 240t-256 88q-160 -2 -254 -86q-96 -88 -98 -232v-592zM348 860q0 39 33 41q33 -2 33 -41v-487q0 -41 -33 -41t-33 41v487z" />
<glyph unicode="p" horiz-adv-x="745" d="M59 1229q-16 -2 -18 -19v-1499q0 -16 18 -18h267q16 2 18 20v328q0 16 6 16q4 0 19 -14q47 -43 116 -43h4q84 0 154 80q35 45 57 121q19 75 19 192v428q0 125 -19 207q-18 80 -51 125q-31 45 -69 61q-39 15 -80 15q-72 -2 -121 -37q-17 -14 -23 -14q-8 2 -18 26 q-12 23 -21 25h-258zM344 868q0 25 16 39q9 8 23 8q20 -2 25 -12q2 -14 2 -24v-514q0 -17 -7 -27q-6 -14 -20 -14q-39 2 -39 53v491z" />
<glyph unicode="q" horiz-adv-x="750" d="M430 1229q-6 -2 -16 -25q-13 -22 -23 -24q-4 0 -22 14q-47 35 -121 35h-4q-78 0 -142 -76q-30 -43 -51 -123q-22 -82 -22 -207v-428q0 -116 22 -192q23 -76 58 -121q69 -82 149 -82h4q72 0 117 45q14 14 18 14t6 -16v-358q0 -19 19 -21h266q16 2 19 19v1529q-3 17 -19 17 h-258zM403 379q0 -21 -10 -37t-28 -16q-27 2 -27 41v514q0 10 4 24q6 10 23 12q12 0 22 -8q16 -14 16 -39v-491z" />
<glyph unicode="r" horiz-adv-x="561" d="M41 16q0 -16 14 -16h299q17 0 19 18v666q0 125 35 174q34 47 110 47q14 0 14 14v295q-2 15 -12 15q-45 0 -80 -6q-32 -9 -49 -45q-6 -15 -12 -15q-6 2 -17 33q-10 31 -20 33h-289q-12 0 -12 -17v-1196z" />
<glyph unicode="s" horiz-adv-x="717" d="M674 817q18 0 20 19q0 159 -82 274q-84 115 -268 119q-139 -2 -231 -90q-95 -88 -97 -230q0 -112 50 -196q45 -82 108 -136q88 -71 141 -126q52 -60 52 -97q0 -35 -29 -35q-49 3 -59 119q-5 15 -17 15l-223 -15q-14 -2 -14 -18q0 -127 32 -209q31 -82 78 -129 q51 -45 107 -64q53 -18 104 -18q186 2 264 109q74 99 74 232v7q0 96 -41 172q-43 76 -131 154q-174 147 -174 207q2 34 31 36q45 0 45 -96q0 -20 16 -18z" />
<glyph unicode="t" horiz-adv-x="512" d="M70 322q0 -181 61 -252q57 -70 152 -70q77 0 122 35q43 33 62 82q18 51 22 106q2 53 2 96q1 1 1 2q0 11 -61 11h-19q-13 0 -13 16v539q-2 12 13 14q14 2 59 2q14 0 14 14v297q0 13 -8 15h-61q-17 0 -17 18v172q0 12 -2 17q-2 2 -18 2h-295q-14 0 -14 -15v-180 q0 -8 -7 -12q-10 -2 -45 -2q-8 -2 -8 -13v-299q0 -8 8 -12q9 -2 39 -2q13 0 13 -14v-567z" />
<glyph unicode="u" horiz-adv-x="737" d="M41 213q2 -107 68 -160q59 -53 124 -53q56 0 89 16q32 15 57 39q18 17 22 17q11 -2 19 -35q10 -35 18 -37h242q16 0 16 14v1200q-2 15 -18 15h-266q-15 0 -15 -17v-782q-2 -43 -32 -41q-31 -2 -33 41v782q0 17 -17 17h-258q-16 0 -16 -21v-995z" />
<glyph unicode="v" horiz-adv-x="704" d="M195 18q4 -18 18 -18h281q12 0 16 16l194 1194v5q0 12 -12 14h-264q-10 0 -16 -17l-54 -364q-4 -19 -8 -19t-8 19l-49 366q-4 15 -17 15h-268q-10 0 -8 -15z" />
<glyph unicode="w" horiz-adv-x="1096" d="M604 18q4 -18 19 -18h260q12 0 16 16l197 1194q0 17 -15 19h-264q-10 0 -16 -17l-54 -344q-4 -18 -8 -18t-8 18l-49 346q-4 15 -16 15h-236q-10 0 -16 -17l-54 -344q-4 -20 -8 -18q-4 0 -8 18l-53 346q0 15 -17 15h-266q-10 0 -8 -15l197 -1196q4 -18 18 -18h260 q12 0 16 16l46 381q6 45 12 43q6 2 12 -43z" />
<glyph unicode="x" horiz-adv-x="735" d="M0 14q-2 -14 8 -14h309q13 0 17 16l31 162l4 8q4 0 4 -8l35 -162q4 -16 16 -16h295q14 0 14 18l-190 584q-4 8 -4 16q0 7 4 17l192 575q2 17 -12 19h-295q-10 0 -16 -17l-39 -153l-4 -8q-4 0 -4 6l-39 155q-4 17 -17 17h-299q-10 -2 -8 -17l195 -575q4 -12 -2 -25z" />
<glyph unicode="y" horiz-adv-x="723" d="M233 258q5 -14 0 -31l-94 -516q-2 -16 15 -18h262q16 2 18 16l289 1512q2 6 -12 8h-271q-10 -2 -12 -11l-57 -311q-4 -16 -9 -16q-6 0 -8 16l-45 307q-2 15 -16 15h-283q-10 -2 -10 -15z" />
<glyph unicode="z" horiz-adv-x="631" d="M47 326q-6 -13 -6 -23v-291q-2 -12 8 -12h531q8 0 10 12v312q-2 8 -13 10h-206q-11 0 -9 12l224 555q6 8 6 18v289q0 21 -19 21h-520q-12 -2 -12 -13v-303q0 -16 14 -16h213q8 0 6 -8z" />
<glyph unicode="{" horiz-adv-x="438" d="M360 565q-4 164 -129 203q-18 6 -18 10t18 12q125 37 129 211v389q0 15 11 15q53 -2 49 12v211q0 8 -10 10h-148q-82 -2 -133 -59q-57 -59 -57 -158v-508q0 -41 -21 -41q-35 0 -33 -8v-172q0 -8 11 -8q22 0 34 -6q9 -8 9 -43v-522q0 -97 57 -154q55 -57 131 -59h148 q10 0 12 12v205q-2 14 -12 14q-31 0 -39 2q-9 4 -9 12v420z" />
<glyph unicode="}" horiz-adv-x="438" d="M78 145q0 -8 -6 -12q-9 -2 -41 -2q-13 0 -13 -14v-205q0 -12 13 -12h147q76 2 131 59q56 57 58 154v522q0 35 12 43q10 6 31 6q10 0 10 8v172q2 8 -33 8q-20 0 -20 41v508q-2 99 -54 158q-55 57 -137 59h-147q-11 -2 -11 -10v-211q-4 -14 50 -12q8 0 10 -15v-389 q2 -174 129 -211q18 -8 18 -12t-18 -10q-125 -39 -129 -203v-420z" />
<glyph unicode="&#xa1;" horiz-adv-x="442" d="M367 1520q-2 16 -21 16h-252q-18 -2 -20 -23v-254q0 -22 20 -24h250q21 0 23 22v263zM31 20q0 -20 16 -20h342q21 0 23 18l-45 1127q0 10 -7 18q-6 8 -16 8h-246q-20 -2 -22 -22z" />
<glyph unicode="&#xa2;" horiz-adv-x="745" d="M424 659q-23 0 -23 -22v-131q-2 -39 -32 -39q-31 0 -33 41v545q0 18 12 30q10 11 21 11q28 -2 30 -43v-150q0 -22 27 -25l268 15q19 -2 23 20q2 21 2 92q0 127 -72 232q-72 102 -203 133v149q0 17 -16 19h-149q-15 -2 -15 -19v-155q-112 -37 -172 -129q-63 -94 -63 -209 v-483q4 -305 233 -379l2 -166q0 -14 17 -16h147q14 2 14 16l2 162q103 26 160 75q57 50 82 115q25 66 29 137q4 72 4 135q0 21 -23 25z" />
<glyph unicode="&#xa3;" horiz-adv-x="897" d="M817 962q19 0 23 17q2 16 2 76q0 194 -103 325q-104 133 -301 135q-198 -2 -307 -120q-115 -121 -115 -308q0 -102 31 -174q25 -75 66 -135h-24q-74 0 -74 -10q0 -1 1 -2v-160q-2 -12 23 -14q22 -2 106 -2q-2 -121 -104 -182q-10 -9 -10 -23v-369q-2 -16 20 -16h797 q14 0 16 16v392q0 16 -16 18h-447q27 33 45 82q11 24 19 47q6 18 6 35h229q13 0 13 16v158q-2 14 -15 14h-229q-10 39 -39 131l-22 76q-13 35 -13 49q0 21 10 37q11 14 25 14q23 -2 39 -36q14 -35 14 -84q0 -17 17 -17z" />
<glyph unicode="&#xa5;" horiz-adv-x="1016" d="M1018 1489q1 4 1 7q0 17 -18 19h-356q-20 -2 -25 -26l-94 -420q-2 -14 -10 -14q-4 0 -10 16l-98 424q-5 20 -23 20h-373q-14 -2 -12 -18l252 -846q-80 0 -103 -2q-24 -2 -22 -14v-129q0 -19 20 -19h132v-98h-134q-18 -2 -18 -16v-129q0 -19 20 -19h132v-202q4 -21 24 -23 h399q25 0 29 25v200h131q19 0 21 19v129q-2 14 -21 16h-131v98h131q19 0 21 19v129q2 12 -19 14q-24 2 -106 2z" />
<glyph unicode="&#xa8;" horiz-adv-x="713" d="M322 1503q-3 12 -15 12h-182q-14 -2 -14 -16v-182q0 -17 14 -17h180q17 0 17 15v188zM602 1503q-2 12 -14 12h-183q-14 -2 -14 -16v-182q0 -17 14 -17h181q16 0 16 15v188z" />
<glyph unicode="&#xa9;" horiz-adv-x="936" d="M29 465q2 -236 135 -356q125 -123 303 -123q184 0 309 123q127 120 131 356v606q-2 240 -133 360q-129 119 -307 119t-303 -119q-133 -120 -135 -360v-606zM90 1075q2 199 113 307q106 109 264 111q160 -2 268 -111q109 -108 111 -307v-614q-2 -193 -109 -303 q-106 -115 -270 -115q-158 0 -264 113q-111 110 -113 305v614zM166 637q0 -135 84 -229q78 -99 217 -101h9q21 0 63 6q49 9 102 43q57 35 96 117t41 225q-2 9 -10 11l-254 14q-8 2 -12 -19q-2 -24 -2 -104q-2 -39 -35 -39q-29 0 -31 41v342q0 39 31 41q26 0 31 -18 q4 -21 4 -82q2 -25 24 -25l246 12q12 -3 12 24v9q-2 139 -80 234q-82 94 -227 96q-137 -2 -221 -92q-88 -92 -88 -262v-244z" />
<glyph unicode="&#xaa;" horiz-adv-x="561" d="M223 1278q10 0 13 10q0 29 4 47q6 17 28 17q33 0 33 -41q-2 -45 -104 -80q-168 -60 -168 -195v-13q0 -65 18 -138q14 -37 45 -62q31 -26 82 -26q80 2 111 43q12 12 14 12q6 0 12 -10q29 -45 111 -47q57 0 92 43q35 38 35 94q0 80 -7 80h-1q-39 -2 -35 10v319 q0 95 -64 144q-61 51 -174 51q-106 -2 -166 -55q-65 -56 -65 -131v-17q0 -43 8 -43h2zM233 1053q0 28 13 49q12 20 35 20q18 0 18 -16v-80q0 -49 -41 -51q-25 0 -25 24v54z" />
<glyph unicode="&#xab;" horiz-adv-x="610" d="M580 1032q0 10 -11 10q-4 0 -10 -4l-215 -186q-10 -6 -10 -21v-135q0 -10 10 -18l215 -187q6 -4 10 -4q11 0 11 11v155q-3 11 -35 51q-31 39 -45 54q-4 4 -4 6q2 16 43 57q38 39 41 55v156zM276 1032q0 10 -10 10q-4 0 -10 -4l-215 -186q-10 -6 -10 -21v-135 q0 -10 10 -18l215 -187q6 -4 10 -4q10 0 10 11v155q-2 11 -34 51q-31 39 -45 54q-5 4 -5 6q3 16 44 57q38 39 40 55v156z" />
<glyph unicode="&#xad;" horiz-adv-x="592" d="M41 881v-252h455v252h-455z" />
<glyph unicode="&#xae;" horiz-adv-x="936" d="M29 465q2 -236 135 -356q125 -123 303 -123q184 0 309 123q127 120 131 356v606q-2 240 -133 360q-129 119 -307 119t-303 -119q-133 -120 -135 -360v-606zM190 1235q-12 0 -12 -14v-891q0 -17 14 -17h228q16 0 16 15v393q0 14 8 14q33 0 35 -59v-189q4 -178 160 -178h5 q40 0 101 29q29 18 50 53q20 37 20 96q0 13 -12 17q-21 10 -27 22q-8 11 -8 19v17q0 85 -18 140q-25 62 -144 91v4q45 6 76 28q27 23 41 54q22 63 22 122q-2 115 -84 174q-77 60 -172 60h-299zM90 1075q2 199 113 307q106 109 264 111q160 -2 268 -111q109 -108 111 -307 v-614q-2 -193 -109 -303q-106 -115 -270 -115q-158 0 -264 113q-111 110 -113 305v614zM424 975q0 12 10 12q27 0 31 -45q0 -41 -2 -63q-4 -27 -23 -27q-16 0 -16 33v90z" />
<glyph unicode="&#xaf;" horiz-adv-x="715" d="M580 1452q-3 14 -19 14h-409q-15 -2 -17 -20v-125q0 -21 17 -21h409q16 0 19 19v133z" />
<glyph unicode="&#xb2;" horiz-adv-x="602" d="M315 881q-8 0 -8 6q0 4 6 8q123 72 195 154q72 79 74 215q0 112 -72 192q-72 78 -203 80q-127 -2 -201 -76q-75 -74 -75 -190q0 -31 2 -39q4 -10 12 -10l207 -15q10 0 10 8q6 62 43 64q27 -2 27 -31q0 -35 -29 -72q-31 -38 -78 -81l-92 -89q-49 -49 -90 -100 q-12 -18 -12 -35v-235q0 -10 12 -10h516q12 0 12 12v233q0 11 -10 11h-246z" />
<glyph unicode="&#xb3;" horiz-adv-x="639" d="M219 1024q-5 -12 51 -12h17q47 0 57 -17q8 -18 8 -76q-2 -43 -33 -43q-32 0 -32 63v15q0 13 -11 13l-239 -15q-8 3 -8 -37v-18q2 -119 86 -195q80 -77 204 -77q127 2 209 79q80 76 82 195q-2 80 -39 129q-39 47 -80 57q-18 7 -18 11q0 2 14 8q43 20 78 69q33 50 35 123 q-2 103 -78 170q-76 68 -203 70q-20 0 -65 -4q-43 -4 -94 -31q-47 -27 -84 -84q-37 -59 -37 -166q0 -8 14 -8l217 -14q15 0 15 10q-2 27 6 45q6 18 28 18q33 0 33 -63v-14q-2 -37 -59 -37h-6q-45 0 -56 -2q-14 -2 -12 -17v-145z" />
<glyph unicode="&#xb4;" horiz-adv-x="713" d="M336 1300q12 0 22 13l181 235q4 4 4 6q-2 15 -19 17h-186q-14 0 -25 -15l-139 -229q-4 -6 -4 -12q0 -15 12 -15h154z" />
<glyph unicode="&#xb5;" horiz-adv-x="737" d="M334 -31q2 54 28 78q25 25 39 25q11 -2 19 -35q10 -35 18 -37h242q16 0 16 14v1200q-2 15 -18 15h-266q-15 0 -15 -17v-782q-2 -43 -32 -41q-31 -2 -33 41v782q0 17 -17 17h-258q-16 0 -16 -21v-1493q2 -18 16 -20h260q15 2 17 16v258z" />
<glyph unicode="&#xb8;" horiz-adv-x="713" d="M225 -139q-6 -17 13 -23q86 -26 110 -37q12 -6 17 -14q2 -8 2 -23q0 -30 -43 -34q-15 0 -29 4l-62 18q-45 13 -55 13q-10 -3 -29 -52q-22 -45 -22 -61q2 -17 76 -41q67 -27 137 -29q94 2 154 51q57 48 59 132q0 63 -39 112q-43 49 -131 72l33 92l-119 6z" />
<glyph unicode="&#xb9;" horiz-adv-x="377" d="M68 635q0 -10 8 -10h250q8 0 8 10v891q0 8 -10 10h-291q-13 -2 -13 -10v-252q3 -6 25 -8q21 -2 23 -9v-622z" />
<glyph unicode="&#xba;" horiz-adv-x="541" d="M29 1012q0 -90 67 -152q64 -63 174 -63q113 0 178 63q64 62 64 152v307q0 92 -61 153q-62 62 -181 64q-114 -2 -176 -62q-65 -61 -65 -155v-307zM238 1296q0 41 32 41q33 0 33 -39v-260q0 -43 -33 -43q-32 0 -32 41v260z" />
<glyph unicode="&#xbb;" horiz-adv-x="610" d="M31 876q2 -16 43 -55q39 -41 41 -57q0 -2 -4 -6q-11 -15 -43 -54q-35 -40 -37 -51v-155q0 -11 10 -11q6 0 10 4l215 187q10 8 10 18v135q0 15 -10 21l-215 186q-4 4 -10 4q-10 0 -10 -10v-156zM334 876q2 -16 43 -55q39 -41 41 -57q0 -2 -4 -6q-11 -15 -43 -54 q-35 -40 -37 -51v-155q0 -11 10 -11q6 0 10 4l215 187q11 8 11 18v135q0 15 -11 21l-215 186q-4 4 -10 4q-10 0 -10 -10v-156z" />
<glyph unicode="&#xbf;" horiz-adv-x="864" d="M537 496q-25 0 -31 -25t-19 -45q-14 -21 -36 -21q-35 3 -35 56q0 37 28 98q31 57 103 145q35 43 59 93q23 49 37 104q25 113 25 234q0 14 -7 24q-10 10 -22 10h-256q-23 0 -29 -32q-6 -50 -43 -132q-39 -81 -119 -161q-188 -176 -192 -383q0 -203 113 -330 q110 -129 311 -131q201 2 319 131q117 123 119 330q0 18 -18 20zM657 1520q-2 16 -20 16h-252q-18 -2 -20 -23v-254q0 -22 20 -24h250q20 0 22 22v263z" />
<glyph unicode="&#xc0;" d="M299 1536q-20 -2 -25 -25l-274 -1476v-6q0 -11 6 -19q6 -10 19 -10h337q21 0 27 23l39 301q4 20 18 20h111q16 0 20 -16l41 -308q7 -20 27 -20h332q18 0 26 16q5 7 5 16q0 6 -3 13l-280 1464q-4 25 -27 27h-399zM545 567q6 -12 -8 -14q-15 -4 -62 -4q-14 0 -12 20l26 195 q5 47 15 47q10 -2 14 -47zM678 1608q12 0 12 14q0 6 -4 12l-139 230q-8 14 -25 16h-186q-17 -2 -17 -16q0 -7 3 -9l182 -235q8 -12 20 -12h154z" />
<glyph unicode="&#xc1;" d="M299 1536q-20 -2 -25 -25l-274 -1476v-6q0 -11 6 -19q6 -10 19 -10h337q21 0 27 23l39 301q4 20 18 20h111q16 0 20 -16l41 -308q7 -20 27 -20h332q18 0 26 16q5 7 5 16q0 6 -3 13l-280 1464q-4 25 -27 27h-399zM545 567q6 -12 -8 -14q-15 -4 -62 -4q-14 0 -12 20l26 195 q5 47 15 47q10 -2 14 -47zM483 1608q13 0 23 12l180 235q4 4 4 6q-2 15 -18 17h-187q-14 0 -24 -14l-139 -230q-5 -6 -5 -12q0 -14 13 -14h153z" />
<glyph unicode="&#xc2;" d="M299 1536q-20 -2 -25 -25l-274 -1476v-6q0 -11 6 -19q6 -10 19 -10h337q21 0 27 23l39 301q4 20 18 20h111q16 0 20 -16l41 -308q7 -20 27 -20h332q18 0 26 16q5 7 5 16q0 6 -3 13l-280 1464q-4 25 -27 27h-399zM545 567q6 -12 -8 -14q-15 -4 -62 -4q-14 0 -12 20l26 195 q5 47 15 47q10 -2 14 -47zM772 1608q8 0 10 10q0 6 -4 10l-186 217q-10 8 -21 8h-135q-12 0 -20 -8l-185 -215q-6 -6 -6 -12q0 -10 11 -10h157q10 2 51 36q39 33 52 45q4 3 8 3q14 -3 55 -41q39 -41 55 -43h158z" />
<glyph unicode="&#xc3;" d="M299 1536q-20 -2 -25 -25l-274 -1476v-6q0 -11 6 -19q6 -10 19 -10h337q21 0 27 23l39 301q4 20 18 20h111q16 0 20 -16l41 -308q7 -20 27 -20h332q18 0 26 16q5 7 5 16q0 6 -3 13l-280 1464q-4 25 -27 27h-399zM545 567q6 -12 -8 -14q-15 -4 -62 -4q-14 0 -12 20l26 195 q5 47 15 47q10 -2 14 -47zM616 1841q-8 0 -8 -14q-2 -13 -10 -27q-10 -14 -35 -14q-37 2 -65 22q-31 19 -90 21q-46 0 -76 -27q-33 -27 -51 -61q-19 -35 -25 -64q-8 -28 -8 -37q0 -10 6 -10l135 -22h2q6 0 6 8q6 39 51 41q33 -2 70 -21q33 -20 80 -22q86 4 125 80 q37 71 37 112q0 10 -6 10z" />
<glyph unicode="&#xc4;" d="M299 1536q-20 -2 -25 -25l-274 -1476v-6q0 -11 6 -19q6 -10 19 -10h337q21 0 27 23l39 301q4 20 18 20h111q16 0 20 -16l41 -308q7 -20 27 -20h332q18 0 26 16q5 7 5 16q0 6 -3 13l-280 1464q-4 25 -27 27h-399zM545 567q6 -12 -8 -14q-15 -4 -62 -4q-14 0 -12 20l26 195 q5 47 15 47q10 -2 14 -47zM469 1810q-2 13 -14 13h-183q-14 -2 -14 -17v-182q0 -16 14 -16h181q16 0 16 14v188zM750 1810q-3 13 -15 13h-182q-14 -2 -14 -17v-182q0 -16 14 -16h180q17 0 17 14v188z" />
<glyph unicode="&#xc5;" d="M545 567q6 -12 -8 -14q-15 -4 -62 -4q-14 0 -12 20l26 195q5 47 15 47q10 -2 14 -47zM428 324q4 20 18 20h111q16 0 20 -16l41 -308q7 -20 27 -20h332q18 0 26 16q5 7 5 16q0 6 -3 13l-280 1464q-4 25 -27 27h-67v4q39 27 51 72q8 43 8 82q-4 145 -184 149 q-184 -4 -187 -149q0 -41 11 -84q10 -43 49 -70v-4h-80q-20 -2 -25 -25l-274 -1476v-6q0 -11 6 -19q6 -10 19 -10h337q21 0 27 23zM506 1749q31 0 31 -41q0 -74 -3 -96q-4 -21 -24 -21h-4h-4q-19 0 -25 21q-4 22 -4 96q0 41 33 41z" />
<glyph unicode="&#xc6;" horiz-adv-x="1409" d="M455 1536q-21 -2 -27 -25l-426 -1476q-1 -6 -1 -11q0 -24 24 -24h354q18 0 26 23l68 301q4 18 18 20h82q17 -2 17 -25v-290q0 -29 22 -29h733q21 0 23 25v376q0 21 -23 23h-354q-12 0 -12 14v121q0 14 14 16h166q14 0 16 17v375q0 12 -14 14h-162q-14 0 -14 12v115 q0 14 14 16h342q21 0 23 21v368q0 21 -21 23h-888zM567 799q8 30 17 30q6 -2 6 -24v-242q0 -14 -10 -14h-54q-15 0 -15 12q0 3 1 6z" />
<glyph unicode="&#xc7;" horiz-adv-x="971" d="M530 688q-12 2 -18 -8t-6 -21v-206q0 -35 -33 -37q-33 0 -33 35v636q2 35 33 37q31 0 33 -39v-129q2 -41 37 -41l379 15q14 -2 16 12q2 10 2 49q0 227 -115 385q-116 160 -342 164q-446 -8 -454 -590v-407q0 -205 100 -357q96 -153 279 -186l-54 -139q-6 -17 13 -23 q86 -26 110 -37q12 -6 17 -14q2 -8 2 -23q0 -30 -43 -34q-15 0 -29 4l-62 18q-45 13 -55 13q-10 -3 -28 -52q-23 -45 -23 -61q2 -17 76 -41q67 -27 137 -29q94 2 154 51q57 48 59 132q0 63 -39 112q-43 49 -131 72l18 51q177 14 289 168q113 154 115 489q0 15 -17 17z" />
<glyph unicode="&#xc8;" horiz-adv-x="860" d="M41 27q0 -27 22 -27h734q20 0 22 23v380q0 19 -22 21h-355q-12 0 -12 14v121q0 16 14 16h166q15 0 17 19v373q0 14 -15 14h-161q-15 0 -15 14v115q0 14 15 14h342q20 0 22 21v368q0 21 -20 23h-727q-27 -2 -27 -27v-1482zM604 1608q12 0 12 14q0 6 -4 12l-139 230 q-8 14 -25 16h-186q-16 -2 -16 -16q0 -7 2 -9l182 -235q8 -12 21 -12h153z" />
<glyph unicode="&#xc9;" horiz-adv-x="860" d="M41 27q0 -27 22 -27h734q20 0 22 23v380q0 19 -22 21h-355q-12 0 -12 14v121q0 16 14 16h166q15 0 17 19v373q0 14 -15 14h-161q-15 0 -15 14v115q0 14 15 14h342q20 0 22 21v368q0 21 -20 23h-727q-27 -2 -27 -27v-1482zM410 1608q12 0 22 12l180 235q4 4 4 6 q-2 15 -18 17h-186q-15 0 -25 -14l-139 -230q-4 -6 -4 -12q0 -14 12 -14h154z" />
<glyph unicode="&#xca;" horiz-adv-x="860" d="M41 27q0 -27 22 -27h734q20 0 22 23v380q0 19 -22 21h-355q-12 0 -12 14v121q0 16 14 16h166q15 0 17 19v373q0 14 -15 14h-161q-15 0 -15 14v115q0 14 15 14h342q20 0 22 21v368q0 21 -20 23h-727q-27 -2 -27 -27v-1482zM698 1608q9 0 11 10q0 6 -5 10l-186 217 q-10 8 -20 8h-136q-12 0 -20 -8l-184 -215q-6 -6 -6 -12q0 -10 10 -10h157q11 2 52 36q39 33 51 45q4 3 8 3q14 -3 55 -41q39 -41 56 -43h157z" />
<glyph unicode="&#xcb;" horiz-adv-x="860" d="M41 27q0 -27 22 -27h734q20 0 22 23v380q0 19 -22 21h-355q-12 0 -12 14v121q0 16 14 16h166q15 0 17 19v373q0 14 -15 14h-161q-15 0 -15 14v115q0 14 15 14h342q20 0 22 21v368q0 21 -20 23h-727q-27 -2 -27 -27v-1482zM395 1810q-2 13 -14 13h-182q-15 -2 -15 -17 v-182q0 -16 15 -16h180q16 0 16 14v188zM676 1810q-2 13 -15 13h-182q-14 -2 -14 -17v-182q0 -16 14 -16h180q17 0 17 14v188z" />
<glyph unicode="&#xcc;" horiz-adv-x="475" d="M410 0q22 2 24 27v1488q-2 21 -24 21h-351q-18 -2 -18 -21v-1484q0 -29 27 -31h342zM412 1608q12 0 12 14q0 6 -4 12l-139 230q-9 14 -25 16h-186q-17 -2 -17 -16q0 -7 2 -9l183 -235q8 -12 20 -12h154z" />
<glyph unicode="&#xcd;" horiz-adv-x="475" d="M410 0q22 2 24 27v1488q-2 21 -24 21h-351q-18 -2 -18 -21v-1484q0 -29 27 -31h342zM217 1608q12 0 23 12l180 235q4 4 4 6q-2 15 -19 17h-186q-14 0 -24 -14l-140 -230q-4 -6 -4 -12q0 -14 12 -14h154z" />
<glyph unicode="&#xce;" horiz-adv-x="475" d="M410 0q22 2 24 27v1488q-2 21 -24 21h-351q-18 -2 -18 -21v-1484q0 -29 27 -31h342zM506 1608q8 0 10 10q0 6 -4 10l-186 217q-11 8 -21 8h-135q-12 0 -21 -8l-184 -215q-6 -6 -6 -12q2 -10 10 -10h158q10 2 51 36q39 33 51 45q4 3 9 3q14 -3 55 -41q39 -41 55 -43h158z " />
<glyph unicode="&#xcf;" horiz-adv-x="475" d="M410 0q22 2 24 27v1488q-2 21 -24 21h-351q-18 -2 -18 -21v-1484q0 -29 27 -31h342zM203 1810q-2 13 -15 13h-182q-12 -2 -14 -17v-182q2 -16 14 -16h180q17 0 17 14v188zM483 1810q-2 13 -14 13h-182q-15 -2 -15 -17v-182q0 -16 15 -16h180q16 0 16 14v188z" />
<glyph unicode="&#xd0;" horiz-adv-x="1012" d="M98 1536q-26 -2 -26 -31v-575h-56q-16 -2 -16 -21v-250q0 -16 20 -16h52v-616q0 -27 24 -27h383q242 2 373 164q131 158 131 411v381q-8 574 -518 580h-367zM506 1118q0 17 12 17q19 0 35 -13q18 -16 18 -47v-596q0 -20 -4 -33q-6 -12 -16 -18q-17 -8 -29 -8h-4 q-12 0 -12 16v682z" />
<glyph unicode="&#xd1;" horiz-adv-x="987" d="M41 29q0 -29 20 -29h312q24 0 26 27v362q0 29 11 29q10 0 18 -29l90 -369q6 -20 23 -20h383q22 0 22 27v1480q0 27 -27 29h-307q-24 -2 -24 -27v-456q-2 -27 -13 -27q-6 0 -14 25l-123 460q-6 25 -28 25h-347q-22 -2 -22 -27v-1480zM606 1841q-8 0 -8 -14q-2 -13 -10 -27 q-11 -14 -35 -14q-37 2 -66 22q-30 19 -90 21q-45 0 -75 -27q-33 -27 -52 -61q-18 -35 -24 -64q-8 -28 -8 -37q0 -10 6 -10l135 -22h2q6 0 6 8q6 39 51 41q33 -2 70 -21q33 -20 80 -22q86 4 125 80q37 71 37 112q0 10 -7 10z" />
<glyph unicode="&#xd2;" horiz-adv-x="909" d="M29 463q2 -236 129 -352q123 -117 297 -117t299 117q125 116 127 352v606q-2 240 -127 356q-121 115 -299 115q-174 0 -297 -115q-127 -116 -129 -356v-606zM422 1063q0 22 10 39q6 16 23 16q18 0 26 -16q6 -17 6 -39v-594q0 -51 -32 -53q-33 2 -33 53v594zM629 1608 q12 0 12 14q0 6 -4 12l-139 230q-9 14 -25 16h-186q-17 -2 -17 -16q0 -7 2 -9l183 -235q8 -12 20 -12h154z" />
<glyph unicode="&#xd3;" horiz-adv-x="909" d="M29 463q2 -236 129 -352q123 -117 297 -117t299 117q125 116 127 352v606q-2 240 -127 356q-121 115 -299 115q-174 0 -297 -115q-127 -116 -129 -356v-606zM422 1063q0 22 10 39q6 16 23 16q18 0 26 -16q6 -17 6 -39v-594q0 -51 -32 -53q-33 2 -33 53v594zM434 1608 q12 0 23 12l180 235q4 4 4 6q-2 15 -18 17h-187q-14 0 -24 -14l-140 -230q-4 -6 -4 -12q0 -14 13 -14h153z" />
<glyph unicode="&#xd4;" horiz-adv-x="909" d="M29 463q2 -236 129 -352q123 -117 297 -117t299 117q125 116 127 352v606q-2 240 -127 356q-121 115 -299 115q-174 0 -297 -115q-127 -116 -129 -356v-606zM422 1063q0 22 10 39q6 16 23 16q18 0 26 -16q6 -17 6 -39v-594q0 -51 -32 -53q-33 2 -33 53v594zM723 1608 q8 0 10 10q0 6 -4 10l-186 217q-11 8 -21 8h-135q-12 0 -20 -8l-185 -215q-6 -6 -6 -12q0 -10 10 -10h158q10 2 51 36q39 33 51 45q5 3 9 3q14 -3 55 -41q39 -41 55 -43h158z" />
<glyph unicode="&#xd5;" horiz-adv-x="909" d="M29 463q2 -236 129 -352q123 -117 297 -117t299 117q125 116 127 352v606q-2 240 -127 356q-121 115 -299 115q-174 0 -297 -115q-127 -116 -129 -356v-606zM422 1063q0 22 10 39q6 16 23 16q18 0 26 -16q6 -17 6 -39v-594q0 -51 -32 -53q-33 2 -33 53v594zM567 1841 q-8 0 -8 -14q-2 -13 -10 -27q-10 -14 -35 -14q-37 2 -66 22q-30 19 -90 21q-45 0 -75 -27q-33 -27 -52 -61q-18 -35 -24 -64q-8 -28 -8 -37q0 -10 6 -10l135 -22h2q6 0 6 8q6 39 51 41q33 -2 70 -21q33 -20 80 -22q86 4 125 80q37 71 37 112q0 10 -7 10z" />
<glyph unicode="&#xd6;" horiz-adv-x="909" d="M29 463q2 -236 129 -352q123 -117 297 -117t299 117q125 116 127 352v606q-2 240 -127 356q-121 115 -299 115q-174 0 -297 -115q-127 -116 -129 -356v-606zM422 1063q0 22 10 39q6 16 23 16q18 0 26 -16q6 -17 6 -39v-594q0 -51 -32 -53q-33 2 -33 53v594zM420 1810 q-2 13 -15 13h-182q-14 -2 -14 -17v-182q0 -16 14 -16h180q17 0 17 14v188zM700 1810q-2 13 -14 13h-182q-15 -2 -15 -17v-182q0 -16 15 -16h180q16 0 16 14v188z" />
<glyph unicode="&#xd8;" horiz-adv-x="909" d="M287 25q80 -31 168 -31q174 0 299 117q125 116 127 352v606q-5 186 -74 283l88 163q4 9 4 17t-8 14l-168 96q-2 2 -8 2q-8 0 -15 -10l-71 -131q-66 33 -174 37q-174 0 -297 -115q-127 -116 -129 -356v-606q4 -178 77 -293l-79 -154q-7 -6 -7 -16q0 -6 11 -14l166 -97 q6 0 8 -2q10 0 14 11zM422 1063q0 22 10 39q6 16 23 16q18 0 26 -16q6 -17 6 -39v-594q0 -51 -32 -53q-33 2 -33 53v594z" />
<glyph unicode="&#xd9;" horiz-adv-x="934" d="M61 1536q-20 0 -20 -23v-1095q0 -166 113 -289q108 -127 313 -129q205 2 315 129q109 121 111 289v1097q-2 21 -23 21h-346q-22 -2 -22 -21v-1044q0 -41 -35 -43q-35 0 -35 45v1040q-2 23 -22 23h-349zM641 1608q12 0 12 14q0 6 -4 12l-139 230q-8 14 -25 16h-186 q-16 -2 -16 -16q0 -7 2 -9l182 -235q8 -12 20 -12h154z" />
<glyph unicode="&#xda;" horiz-adv-x="934" d="M61 1536q-20 0 -20 -23v-1095q0 -166 113 -289q108 -127 313 -129q205 2 315 129q109 121 111 289v1097q-2 21 -23 21h-346q-22 -2 -22 -21v-1044q0 -41 -35 -43q-35 0 -35 45v1040q-2 23 -22 23h-349zM446 1608q13 0 23 12l180 235q4 4 4 6q-2 15 -18 17h-187 q-14 0 -24 -14l-139 -230q-4 -6 -4 -12q0 -14 12 -14h153z" />
<glyph unicode="&#xdb;" horiz-adv-x="934" d="M61 1536q-20 0 -20 -23v-1095q0 -166 113 -289q108 -127 313 -129q205 2 315 129q109 121 111 289v1097q-2 21 -23 21h-346q-22 -2 -22 -21v-1044q0 -41 -35 -43q-35 0 -35 45v1040q-2 23 -22 23h-349zM735 1608q8 0 10 10q0 6 -4 10l-186 217q-10 8 -21 8h-135 q-12 0 -20 -8l-184 -215q-7 -6 -7 -12q0 -10 11 -10h157q11 2 52 36l51 45q4 3 8 3q14 -3 55 -41q39 -41 55 -43h158z" />
<glyph unicode="&#xdc;" horiz-adv-x="934" d="M61 1536q-20 0 -20 -23v-1095q0 -166 113 -289q108 -127 313 -129q205 2 315 129q109 121 111 289v1097q-2 21 -23 21h-346q-22 -2 -22 -21v-1044q0 -41 -35 -43q-35 0 -35 45v1040q-2 23 -22 23h-349zM432 1810q-2 13 -14 13h-182q-15 -2 -15 -17v-182q0 -16 15 -16h180 q16 0 16 14v188zM713 1810q-2 13 -15 13h-182q-14 -2 -14 -17v-182q0 -16 14 -16h180q17 0 17 14v188z" />
<glyph unicode="&#xdd;" horiz-adv-x="1018" d="M260 645q19 -61 19 -100v-520q4 -23 24 -25h399q25 0 29 27v514q2 49 19 108l268 862q1 4 1 7q0 16 -18 18h-356q-20 -2 -25 -27l-94 -417q-2 -17 -10 -17q-4 0 -10 17l-98 423q-5 21 -23 21h-373q-14 -2 -12 -16zM489 1608q13 0 23 12l180 235q4 4 4 6q-2 15 -18 17 h-187q-14 0 -24 -14l-139 -230q-4 -6 -4 -12q0 -14 12 -14h153z" />
<glyph unicode="&#xde;" horiz-adv-x="954" d="M70 1536q-29 -2 -29 -35v-1464q0 -35 33 -37h358q35 0 35 29v315q-2 18 20 23q19 2 90 2q13 0 37 4q23 4 52 10q57 14 120 57q66 45 111 135q45 89 47 238v37q-2 22 -12 51q-17 61 -64 131q-45 70 -137 119q-94 49 -246 51q-16 2 -18 19v284q0 29 -33 31h-364zM467 870 q0 13 6 17q6 2 14 2q41 -2 43 -56v-104q0 -45 -36 -47q-29 2 -27 22v166z" />
<glyph unicode="&#xdf;" horiz-adv-x="831" d="M41 23q0 -23 20 -23h283q21 0 23 23v1152q2 60 49 60t49 -62v-198q-2 -8 -17 -23q-20 -16 -20 -24v-273q0 -6 20 -20q19 -12 21 -21v-282q-2 -6 -21 -21q-20 -16 -20 -24v-269q0 -18 23 -18q131 0 204 53q74 51 103 123q32 72 39 148q4 71 4 122q0 123 -39 218 q-45 92 -154 126v5q72 22 111 65q39 41 53 92q18 53 21 109q2 55 2 108q-5 387 -379 398q-183 -2 -279 -111t-96 -264v-1169z" />
<glyph unicode="&#xe0;" horiz-adv-x="803" d="M326 801q16 0 18 16q0 68 4 90q6 17 29 17q28 0 31 -43v-7q0 -45 -23 -73q-27 -31 -135 -78q-86 -33 -152 -103q-67 -71 -69 -192v-152q0 -75 22 -127q23 -51 53 -86q33 -32 70 -47q35 -16 68 -16q55 0 92 25q35 22 51 45q18 20 23 20q6 0 20 -18q23 -33 57 -56 q35 -22 105 -22q88 2 145 74q58 67 58 145v127q0 14 -15 16q-33 0 -41 2q-10 2 -10 15v555q0 125 -90 211q-90 88 -260 90q-160 -2 -248 -90q-90 -90 -90 -217q0 -68 2 -89q4 -20 12 -18zM408 328q-3 -35 -33 -35q-31 0 -33 35v151q0 35 23 49q20 15 30 15q13 -4 13 -17 v-198zM575 1300q13 0 13 15q0 6 -4 12l-140 229q-8 15 -24 17h-187q-16 -2 -16 -17q0 -6 2 -8l182 -235q9 -13 21 -13h153z" />
<glyph unicode="&#xe1;" horiz-adv-x="803" d="M326 801q16 0 18 16q0 68 4 90q6 17 29 17q28 0 31 -43v-7q0 -45 -23 -73q-27 -31 -135 -78q-86 -33 -152 -103q-67 -71 -69 -192v-152q0 -75 22 -127q23 -51 53 -86q33 -32 70 -47q35 -16 68 -16q55 0 92 25q35 22 51 45q18 20 23 20q6 0 20 -18q23 -33 57 -56 q35 -22 105 -22q88 2 145 74q58 67 58 145v127q0 14 -15 16q-33 0 -41 2q-10 2 -10 15v555q0 125 -90 211q-90 88 -260 90q-160 -2 -248 -90q-90 -90 -90 -217q0 -68 2 -89q4 -20 12 -18zM408 328q-3 -35 -33 -35q-31 0 -33 35v151q0 35 23 49q20 15 30 15q13 -4 13 -17 v-198zM381 1300q12 0 22 13l181 235q4 4 4 6q-2 15 -19 17h-186q-14 0 -25 -15l-139 -229q-4 -6 -4 -12q0 -15 12 -15h154z" />
<glyph unicode="&#xe2;" horiz-adv-x="803" d="M326 801q16 0 18 16q0 68 4 90q6 17 29 17q28 0 31 -43v-7q0 -45 -23 -73q-27 -31 -135 -78q-86 -33 -152 -103q-67 -71 -69 -192v-152q0 -75 22 -127q23 -51 53 -86q33 -32 70 -47q35 -16 68 -16q55 0 92 25q35 22 51 45q18 20 23 20q6 0 20 -18q23 -33 57 -56 q35 -22 105 -22q88 2 145 74q58 67 58 145v127q0 14 -15 16q-33 0 -41 2q-10 2 -10 15v555q0 125 -90 211q-90 88 -260 90q-160 -2 -248 -90q-90 -90 -90 -217q0 -68 2 -89q4 -20 12 -18zM408 328q-3 -35 -33 -35q-31 0 -33 35v151q0 35 23 49q20 15 30 15q13 -4 13 -17 v-198zM670 1300q8 0 10 11q0 6 -4 10l-187 217q-10 8 -20 8h-135q-12 0 -21 -8l-184 -215q-6 -6 -6 -12q0 -11 10 -11h158q10 2 51 37q39 33 51 45q4 2 8 2q15 -2 56 -41q39 -41 55 -43h158z" />
<glyph unicode="&#xe3;" horiz-adv-x="803" d="M326 801q16 0 18 16q0 68 4 90q6 17 29 17q28 0 31 -43v-7q0 -45 -23 -73q-27 -31 -135 -78q-86 -33 -152 -103q-67 -71 -69 -192v-152q0 -75 22 -127q23 -51 53 -86q33 -32 70 -47q35 -16 68 -16q55 0 92 25q35 22 51 45q18 20 23 20q6 0 20 -18q23 -33 57 -56 q35 -22 105 -22q88 2 145 74q58 67 58 145v127q0 14 -15 16q-33 0 -41 2q-10 2 -10 15v555q0 125 -90 211q-90 88 -260 90q-160 -2 -248 -90q-90 -90 -90 -217q0 -68 2 -89q4 -20 12 -18zM408 328q-3 -35 -33 -35q-31 0 -33 35v151q0 35 23 49q20 15 30 15q13 -4 13 -17 v-198zM514 1534q-8 0 -8 -14q-2 -13 -10 -27q-11 -14 -35 -14q-37 2 -66 22q-30 19 -90 21q-45 0 -76 -27q-32 -27 -51 -62q-18 -34 -24 -63q-9 -29 -9 -37q0 -10 7 -10l135 -23h2q6 0 6 9q6 38 51 41q33 -3 70 -21q32 -20 80 -22q86 4 124 79q37 72 37 113q0 10 -6 10z" />
<glyph unicode="&#xe4;" horiz-adv-x="803" d="M326 801q16 0 18 16q0 68 4 90q6 17 29 17q28 0 31 -43v-7q0 -45 -23 -73q-27 -31 -135 -78q-86 -33 -152 -103q-67 -71 -69 -192v-152q0 -75 22 -127q23 -51 53 -86q33 -32 70 -47q35 -16 68 -16q55 0 92 25q35 22 51 45q18 20 23 20q6 0 20 -18q23 -33 57 -56 q35 -22 105 -22q88 2 145 74q58 67 58 145v127q0 14 -15 16q-33 0 -41 2q-10 2 -10 15v555q0 125 -90 211q-90 88 -260 90q-160 -2 -248 -90q-90 -90 -90 -217q0 -68 2 -89q4 -20 12 -18zM408 328q-3 -35 -33 -35q-31 0 -33 35v151q0 35 23 49q20 15 30 15q13 -4 13 -17 v-198zM367 1503q-2 12 -15 12h-182q-14 -2 -14 -16v-182q0 -17 14 -17h180q17 0 17 15v188zM647 1503q-2 12 -14 12h-182q-15 -2 -15 -16v-182q0 -17 15 -17h180q16 0 16 15v188z" />
<glyph unicode="&#xe5;" horiz-adv-x="803" d="M326 801q16 0 18 16q0 68 4 90q6 17 29 17q28 0 31 -43v-7q0 -45 -23 -73q-27 -31 -135 -78q-86 -33 -152 -103q-67 -71 -69 -192v-152q0 -75 22 -127q23 -51 53 -86q33 -32 70 -47q35 -16 68 -16q55 0 92 25q35 22 51 45q18 20 23 20q6 0 20 -18q23 -33 57 -56 q35 -22 105 -22q88 2 145 74q58 67 58 145v127q0 14 -15 16q-33 0 -41 2q-10 2 -10 15v555q0 125 -90 211q-90 88 -260 90q-160 -2 -248 -90q-90 -90 -90 -217q0 -68 2 -89q4 -20 12 -18zM408 328q-3 -35 -33 -35q-31 0 -33 35v151q0 35 23 49q20 15 30 15q13 -4 13 -17 v-198zM217 1489q0 -29 6 -60q2 -34 21 -63q28 -64 159 -66q70 0 109 21q39 18 53 47q19 29 21 61q2 31 2 60q-4 145 -185 149q-184 -4 -186 -149zM371 1507q0 41 32 41q31 0 31 -41q0 -74 -2 -96q-4 -21 -25 -21h-4h-3q-19 0 -25 21q-4 22 -4 96z" />
<glyph unicode="&#xe6;" horiz-adv-x="1157" d="M1124 471q0 23 -20 23l-264 14q-19 2 -19 -17v-122q0 -21 -10 -33t-23 -12q-32 0 -32 45v321q0 17 12 17h342q16 0 18 18v125q0 155 -94 266t-270 113q-98 0 -191 -45q-79 45 -196 45q-123 -2 -193 -43q-69 -41 -102 -105q-29 -63 -37 -129q-6 -52 -6 -95v-21 q0 -21 14 -21l273 -14q16 0 18 16q0 72 4 90q6 17 29 17q33 -2 33 -61v-13q-2 -70 -160 -127q-86 -33 -152 -103q-67 -71 -69 -192v-152q0 -75 22 -127q23 -51 58 -86q34 -32 77 -47q41 -16 80 -16q76 0 127 27q51 24 84 65q19 19 23 19q8 0 22 -19q72 -90 234 -92 q147 0 256 74q108 73 112 266v131zM410 328q-2 -35 -31 -35q-33 0 -35 35v151q2 37 25 51q20 17 30 13q11 -2 11 -15v-200zM756 932q2 41 30 41h4q21 0 27 -23q4 -26 4 -123q3 -8 -36 -8h-17q-12 0 -12 8v105z" />
<glyph unicode="&#xe7;" horiz-adv-x="750" d="M424 510q-23 0 -23 -21v-131q-2 -41 -30 -41q-33 0 -35 41v545q0 19 12 31q10 10 21 10q30 -2 32 -41v-151q0 -23 25 -25l268 14q19 0 23 23q2 18 2 90q-2 147 -92 258q-95 113 -258 117q-164 -2 -250 -109q-90 -104 -90 -246v-483q6 -328 270 -391l-55 -139 q-6 -17 12 -23q86 -26 111 -37q12 -6 16 -14q2 -8 2 -23q0 -30 -43 -34q-14 0 -29 4l-61 18q-45 13 -55 13q-11 -3 -29 -52q-23 -45 -23 -61q2 -17 76 -41q68 -27 137 -29q95 2 154 51q57 48 59 132q0 63 -39 112q-43 49 -131 72l21 51q112 16 174 74q59 57 86 129 q27 76 33 147q4 70 4 121q0 20 -23 25z" />
<glyph unicode="&#xe8;" horiz-adv-x="774" d="M29 389q0 -176 92 -280q88 -109 252 -109q147 0 256 74q108 73 112 266v131q0 18 -20 23l-264 14q-19 -2 -19 -17v-124q0 -21 -10 -31q-10 -12 -23 -12q-32 -2 -32 45v321q0 17 12 17h342q16 0 18 18v125q0 155 -94 266t-270 113q-129 0 -238 -74q-112 -78 -114 -258 v-508zM373 930q2 43 30 43q25 2 31 -23q4 -26 4 -123q3 -10 -38 -10h-15q-12 0 -12 10v103zM561 1300q12 0 12 15q0 6 -4 12l-139 229q-8 15 -25 17h-186q-16 -2 -16 -17q0 -6 2 -8l182 -235q8 -13 21 -13h153z" />
<glyph unicode="&#xe9;" horiz-adv-x="774" d="M29 389q0 -176 92 -280q88 -109 252 -109q147 0 256 74q108 73 112 266v131q0 18 -20 23l-264 14q-19 -2 -19 -17v-124q0 -21 -10 -31q-10 -12 -23 -12q-32 -2 -32 45v321q0 17 12 17h342q16 0 18 18v125q0 155 -94 266t-270 113q-129 0 -238 -74q-112 -78 -114 -258 v-508zM373 930q2 43 30 43q25 2 31 -23q4 -26 4 -123q3 -10 -38 -10h-15q-12 0 -12 10v103zM367 1300q12 0 22 13l180 235q4 4 4 6q-2 15 -18 17h-186q-15 0 -25 -15l-139 -229q-4 -6 -4 -12q0 -15 12 -15h154z" />
<glyph unicode="&#xea;" horiz-adv-x="774" d="M29 389q0 -176 92 -280q88 -109 252 -109q147 0 256 74q108 73 112 266v131q0 18 -20 23l-264 14q-19 -2 -19 -17v-124q0 -21 -10 -31q-10 -12 -23 -12q-32 -2 -32 45v321q0 17 12 17h342q16 0 18 18v125q0 155 -94 266t-270 113q-129 0 -238 -74q-112 -78 -114 -258 v-508zM373 930q2 43 30 43q25 2 31 -23q4 -26 4 -123q3 -10 -38 -10h-15q-12 0 -12 10v103zM655 1300q9 0 11 11q0 6 -5 10l-186 217q-10 8 -20 8h-136q-12 0 -20 -8l-184 -215q-6 -6 -6 -12q0 -11 10 -11h157q11 2 52 37q39 33 51 45q4 2 8 2q14 -2 55 -41q39 -41 56 -43 h157z" />
<glyph unicode="&#xeb;" horiz-adv-x="774" d="M29 389q0 -176 92 -280q88 -109 252 -109q147 0 256 74q108 73 112 266v131q0 18 -20 23l-264 14q-19 -2 -19 -17v-124q0 -21 -10 -31q-10 -12 -23 -12q-32 -2 -32 45v321q0 17 12 17h342q16 0 18 18v125q0 155 -94 266t-270 113q-129 0 -238 -74q-112 -78 -114 -258 v-508zM373 930q2 43 30 43q25 2 31 -23q4 -26 4 -123q3 -10 -38 -10h-15q-12 0 -12 10v103zM352 1503q-2 12 -14 12h-182q-15 -2 -15 -16v-182q0 -17 15 -17h180q16 0 16 15v188zM633 1503q-2 12 -15 12h-182q-14 -2 -14 -16v-182q0 -17 14 -17h180q17 0 17 15v188z" />
<glyph unicode="&#xec;" horiz-adv-x="414" d="M373 1208q0 19 -21 21h-291q-20 -2 -20 -25v-1186q0 -16 16 -18h301q15 0 15 16v1192zM360 1300q13 0 13 15q0 6 -4 12l-140 229q-8 15 -24 17h-187q-16 -2 -16 -17q0 -6 2 -8l182 -235q9 -13 21 -13h153z" />
<glyph unicode="&#xed;" horiz-adv-x="414" d="M373 1208q0 19 -21 21h-291q-20 -2 -20 -25v-1186q0 -16 16 -18h301q15 0 15 16v1192zM207 1300q12 0 22 13l181 235q4 4 4 6q-2 15 -19 17h-186q-14 0 -25 -15l-139 -229q-4 -6 -4 -12q0 -15 12 -15h154z" />
<glyph unicode="&#xee;" horiz-adv-x="414" d="M373 1208q0 19 -21 21h-291q-20 -2 -20 -25v-1186q0 -16 16 -18h301q15 0 15 16v1192zM475 1300q8 0 10 11q0 6 -4 10l-186 217q-10 8 -21 8h-135q-12 0 -20 -8l-185 -215q-6 -6 -6 -12q2 -11 11 -11h157q10 2 51 37q39 33 52 45q4 2 8 2q14 -2 55 -41q39 -41 55 -43h158 z" />
<glyph unicode="&#xef;" horiz-adv-x="414" d="M373 1208q0 19 -21 21h-291q-20 -2 -20 -25v-1186q0 -16 16 -18h301q15 0 15 16v1192zM172 1503q-2 12 -14 12h-183q-12 -2 -14 -16v-182q2 -17 14 -17h181q16 0 16 15v188zM453 1503q-2 12 -15 12h-182q-14 -2 -14 -16v-182q0 -17 14 -17h180q17 0 17 15v188z" />
<glyph unicode="&#xf0;" horiz-adv-x="762" d="M29 319q2 -143 98 -229q94 -90 254 -90q162 0 256 90q94 86 96 229v613q-6 385 -231 542q8 9 28 29q19 21 21 25q-2 14 -39 49t-45 37h1q1 0 -79 -74q-70 27 -160 27q-14 0 -18 -7l-43 -114q-6 -21 8 -21q49 0 86 -14q-57 -59 -53 -59q0 -7 4 -9q23 -20 49 -45 q25 -28 29 -28q8 0 33 26l30 31q23 -41 23 -98q-158 -2 -252 -88q-96 -86 -96 -230v-592zM348 860q0 39 33 41q33 -2 33 -41v-487q0 -41 -33 -41t-33 41v487z" />
<glyph unicode="&#xf1;" horiz-adv-x="766" d="M338 0q14 0 14 12v840q2 41 33 41t33 -41v-838q0 -14 14 -14h283q10 0 10 10v1006q-2 106 -61 162q-60 55 -140 55q-63 0 -98 -19q-35 -20 -61 -57q-13 -16 -15 -14q-6 2 -16 45q-10 39 -23 41h-256q-14 0 -14 -15v-1194q0 -20 16 -20h281zM496 1534q-9 0 -9 -14 q-2 -13 -10 -27q-10 -14 -35 -14q-37 2 -65 22q-31 19 -90 21q-45 0 -76 -27q-33 -27 -51 -62q-19 -34 -25 -63q-8 -29 -8 -37q0 -10 6 -10l135 -23h2q6 0 6 9q7 38 52 41q32 -3 69 -21q33 -20 80 -22q86 4 125 79q37 72 37 113q0 10 -6 10z" />
<glyph unicode="&#xf2;" horiz-adv-x="762" d="M29 319q2 -143 98 -229q94 -90 254 -90q162 0 256 90q94 86 96 229v582q-2 152 -96 240t-256 88q-160 -2 -254 -86q-96 -88 -98 -232v-592zM348 860q0 39 33 41q33 -2 33 -41v-487q0 -41 -33 -41t-33 41v487zM555 1300q12 0 12 15q0 6 -4 12l-139 229q-8 15 -25 17h-186 q-16 -2 -16 -17q0 -6 2 -8l182 -235q8 -13 20 -13h154z" />
<glyph unicode="&#xf3;" horiz-adv-x="762" d="M29 319q2 -143 98 -229q94 -90 254 -90q162 0 256 90q94 86 96 229v582q-2 152 -96 240t-256 88q-160 -2 -254 -86q-96 -88 -98 -232v-592zM348 860q0 39 33 41q33 -2 33 -41v-487q0 -41 -33 -41t-33 41v487zM360 1300q13 0 23 13l180 235q4 4 4 6q-2 15 -18 17h-187 q-14 0 -24 -15l-139 -229q-4 -6 -4 -12q0 -15 12 -15h153z" />
<glyph unicode="&#xf4;" horiz-adv-x="762" d="M29 319q2 -143 98 -229q94 -90 254 -90q162 0 256 90q94 86 96 229v582q-2 152 -96 240t-256 88q-160 -2 -254 -86q-96 -88 -98 -232v-592zM348 860q0 39 33 41q33 -2 33 -41v-487q0 -41 -33 -41t-33 41v487zM649 1300q8 0 10 11q0 6 -4 10l-186 217q-10 8 -21 8h-135 q-12 0 -20 -8l-184 -215q-7 -6 -7 -12q0 -11 11 -11h157q11 2 52 37l51 45q4 2 8 2q14 -2 55 -41q39 -41 55 -43h158z" />
<glyph unicode="&#xf5;" horiz-adv-x="762" d="M29 319q2 -143 98 -229q94 -90 254 -90q162 0 256 90q94 86 96 229v582q-2 152 -96 240t-256 88q-160 -2 -254 -86q-96 -88 -98 -232v-592zM348 860q0 39 33 41q33 -2 33 -41v-487q0 -41 -33 -41t-33 41v487zM494 1534q-9 0 -9 -14q-2 -13 -10 -27q-10 -14 -35 -14 q-37 2 -65 22q-31 19 -90 21q-45 0 -76 -27q-33 -27 -51 -62q-19 -34 -25 -63q-8 -29 -8 -37q0 -10 6 -10l135 -23h2q6 0 6 9q7 38 52 41q32 -3 69 -21q33 -20 80 -22q86 4 125 79q37 72 37 113q0 10 -6 10z" />
<glyph unicode="&#xf6;" horiz-adv-x="762" d="M29 319q2 -143 98 -229q94 -90 254 -90q162 0 256 90q94 86 96 229v582q-2 152 -96 240t-256 88q-160 -2 -254 -86q-96 -88 -98 -232v-592zM348 860q0 39 33 41q33 -2 33 -41v-487q0 -41 -33 -41t-33 41v487zM346 1503q-2 12 -14 12h-183q-14 -2 -14 -16v-182 q0 -17 14 -17h181q16 0 16 15v188zM627 1503q-2 12 -15 12h-182q-14 -2 -14 -16v-182q0 -17 14 -17h180q17 0 17 15v188z" />
<glyph unicode="&#xf8;" horiz-adv-x="766" d="M733 901q0 113 -51 186l35 70q16 41 18 49q0 6 -6 10l-145 76q-3 3 -6 3q-6 0 -13 -11q-10 -16 -39 -78q-51 21 -143 23q-162 -2 -256 -86q-96 -88 -98 -232v-592q2 -122 59 -186q-57 -109 -58 -109l1 1q0 -9 6 -13l139 -84q2 -1 4 -1q9 0 21 14q10 16 45 79 q47 -20 137 -20q160 0 254 90q94 86 96 229v582zM348 860q0 39 35 41q29 -2 31 -41v-487q0 -41 -31 -41q-35 0 -35 41v487z" />
<glyph unicode="&#xf9;" horiz-adv-x="737" d="M41 213q2 -107 68 -160q59 -53 124 -53q56 0 89 16q32 15 57 39q18 17 22 17q11 -2 19 -35q10 -35 18 -37h242q16 0 16 14v1200q-2 15 -18 15h-266q-15 0 -15 -17v-782q-2 -43 -32 -41q-31 -2 -33 41v782q0 17 -17 17h-258q-16 0 -16 -21v-995zM543 1300q12 0 12 15 q0 6 -4 12l-139 229q-9 15 -25 17h-186q-17 -2 -17 -17q0 -6 2 -8l183 -235q8 -13 20 -13h154z" />
<glyph unicode="&#xfa;" horiz-adv-x="737" d="M41 213q2 -107 68 -160q59 -53 124 -53q56 0 89 16q32 15 57 39q18 17 22 17q11 -2 19 -35q10 -35 18 -37h242q16 0 16 14v1200q-2 15 -18 15h-266q-15 0 -15 -17v-782q-2 -43 -32 -41q-31 -2 -33 41v782q0 17 -17 17h-258q-16 0 -16 -21v-995zM348 1300q12 0 23 13 l180 235q4 4 4 6q-2 15 -18 17h-187q-14 0 -24 -15l-140 -229q-4 -6 -4 -12q0 -15 13 -15h153z" />
<glyph unicode="&#xfb;" horiz-adv-x="737" d="M41 213q2 -107 68 -160q59 -53 124 -53q56 0 89 16q32 15 57 39q18 17 22 17q11 -2 19 -35q10 -35 18 -37h242q16 0 16 14v1200q-2 15 -18 15h-266q-15 0 -15 -17v-782q-2 -43 -32 -41q-31 -2 -33 41v782q0 17 -17 17h-258q-16 0 -16 -21v-995zM637 1300q8 0 10 11 q0 6 -4 10l-186 217q-11 8 -21 8h-135q-12 0 -20 -8l-185 -215q-6 -6 -6 -12q0 -11 10 -11h158q10 2 51 37q39 33 51 45q5 2 9 2q14 -2 55 -41q39 -41 55 -43h158z" />
<glyph unicode="&#xfc;" horiz-adv-x="737" d="M41 213q2 -107 68 -160q59 -53 124 -53q56 0 89 16q32 15 57 39q18 17 22 17q11 -2 19 -35q10 -35 18 -37h242q16 0 16 14v1200q-2 15 -18 15h-266q-15 0 -15 -17v-782q-2 -43 -32 -41q-31 -2 -33 41v782q0 17 -17 17h-258q-16 0 -16 -21v-995zM334 1503q-2 12 -15 12 h-182q-14 -2 -14 -16v-182q0 -17 14 -17h180q17 0 17 15v188zM614 1503q-2 12 -14 12h-182q-15 -2 -15 -16v-182q0 -17 15 -17h180q16 0 16 15v188z" />
<glyph unicode="&#xfd;" horiz-adv-x="723" d="M233 258q5 -14 0 -31l-94 -516q-2 -16 15 -18h262q16 2 18 16l289 1512q2 6 -12 8h-271q-10 -2 -12 -11l-57 -311q-4 -16 -9 -16q-6 0 -8 16l-45 307q-2 15 -16 15h-283q-10 -2 -10 -15zM342 1300q12 0 23 13l180 235q4 4 4 6q-2 15 -19 17h-186q-14 0 -25 -15l-139 -229 q-4 -6 -4 -12q0 -15 12 -15h154z" />
<glyph unicode="&#xfe;" horiz-adv-x="745" d="M57 1567q-16 -2 -16 -19v-1837q0 -16 18 -18h267q16 2 18 20v328q0 16 6 16q4 0 19 -14q47 -43 116 -43h4q84 0 154 80q35 45 57 121q19 75 19 192v428q0 125 -19 207q-18 80 -51 125q-31 45 -69 61q-39 15 -80 15q-74 -2 -119 -37q-14 -14 -27 -14q-10 0 -10 14v360 q0 13 -10 15h-277zM344 868q0 25 16 39q9 8 23 8q20 -2 25 -12q2 -14 2 -24v-514q0 -17 -7 -27q-6 -14 -20 -14q-39 2 -39 53v491z" />
<glyph unicode="&#xff;" horiz-adv-x="723" d="M233 258q5 -14 0 -31l-94 -516q-2 -16 15 -18h262q16 2 18 16l289 1512q2 6 -12 8h-271q-10 -2 -12 -11l-57 -311q-4 -16 -9 -16q-6 0 -8 16l-45 307q-2 15 -16 15h-283q-10 -2 -10 -15zM328 1503q-2 12 -15 12h-182q-14 -2 -14 -16v-182q0 -17 14 -17h180q17 0 17 15 v188zM608 1503q-2 12 -14 12h-182q-15 -2 -15 -16v-182q0 -17 15 -17h180q16 0 16 15v188z" />
<glyph unicode="&#x152;" horiz-adv-x="1304" d="M1241 0q20 0 23 23v380q0 19 -23 21h-354q-13 0 -13 14v121q0 14 13 16h166q16 0 18 19v373q0 14 -16 14h-160q-14 0 -14 14v115q0 14 12 14h344q20 0 22 21v368q0 21 -20 23h-784q-174 0 -297 -115q-127 -114 -129 -354v-598q2 -236 129 -352q123 -117 297 -117h786z M420 1061q0 49 31 51q18 0 26 -14q8 -15 8 -37v-586q0 -51 -34 -53q-31 2 -31 47v6v586z" />
<glyph unicode="&#x153;" horiz-adv-x="1159" d="M1126 471q0 18 -20 23l-264 14q-19 0 -19 -17v-122q0 -21 -10 -33t-23 -12q-32 0 -32 45v321q0 17 12 17h342q16 0 18 18v125q0 155 -94 266t-270 113q-100 0 -193 -45q-71 43 -192 45q-160 -2 -254 -86q-96 -88 -98 -232v-592q2 -143 98 -229q94 -90 254 -90 q108 0 194 47q74 -47 183 -47q147 0 256 74q108 73 112 266v131zM346 852q0 39 35 41q31 -2 31 -41v-487q0 -41 -31 -41q-35 0 -35 41v487zM758 932q2 41 30 41h4q21 0 27 -23q4 -26 4 -123q3 -8 -36 -8h-17q-12 0 -12 8v105z" />
<glyph unicode="&#x178;" horiz-adv-x="1018" d="M260 645q19 -61 19 -100v-520q4 -23 24 -25h399q25 0 29 27v514q2 49 19 108l268 862q1 4 1 7q0 16 -18 18h-356q-20 -2 -25 -27l-94 -417q-2 -17 -10 -17q-4 0 -10 17l-98 423q-5 21 -23 21h-373q-14 -2 -12 -16zM475 1810q-2 13 -14 13h-182q-15 -2 -15 -17v-182 q0 -16 15 -16h180q16 0 16 14v188zM756 1810q-2 13 -15 13h-182q-14 -2 -14 -17v-182q0 -16 14 -16h180q17 0 17 14v188z" />
<glyph unicode="&#x2c6;" horiz-adv-x="713" d="M625 1300q8 0 10 11q0 6 -4 10l-187 217q-10 8 -20 8h-135q-13 0 -21 -8l-184 -215q-6 -6 -6 -12q0 -11 10 -11h158q10 2 51 37q39 33 51 45q4 2 8 2q15 -2 56 -41q39 -41 55 -43h158z" />
<glyph unicode="&#x2dc;" horiz-adv-x="713" d="M469 1534q-8 0 -8 -14q-2 -13 -10 -27q-11 -14 -35 -14q-37 2 -66 22q-31 19 -90 21q-45 0 -76 -27q-32 -27 -51 -62q-18 -34 -24 -63q-9 -29 -9 -37q0 -10 6 -10l136 -23h2q6 0 6 9q6 38 51 41q33 -3 70 -21q32 -20 80 -22q86 4 124 79q37 72 37 113q0 10 -6 10z" />
<glyph unicode="&#x2000;" horiz-adv-x="940" />
<glyph unicode="&#x2001;" horiz-adv-x="1880" />
<glyph unicode="&#x2002;" horiz-adv-x="940" />
<glyph unicode="&#x2003;" horiz-adv-x="1880" />
<glyph unicode="&#x2004;" horiz-adv-x="626" />
<glyph unicode="&#x2005;" horiz-adv-x="470" />
<glyph unicode="&#x2006;" horiz-adv-x="313" />
<glyph unicode="&#x2007;" horiz-adv-x="313" />
<glyph unicode="&#x2008;" horiz-adv-x="235" />
<glyph unicode="&#x2009;" horiz-adv-x="376" />
<glyph unicode="&#x200a;" horiz-adv-x="104" />
<glyph unicode="&#x2010;" horiz-adv-x="537" d="M41 881v-252h455v252h-455z" />
<glyph unicode="&#x2011;" horiz-adv-x="537" d="M41 881v-252h455v252h-455z" />
<glyph unicode="&#x2013;" horiz-adv-x="1024" d="M0 881v-252h1024v252h-1024z" />
<glyph unicode="&#x2014;" horiz-adv-x="2048" d="M0 881v-252h2048v252h-2048z" />
<glyph unicode="&#x2018;" horiz-adv-x="426" d="M188 1536q-12 0 -18 -12l-139 -346q-1 -5 -1 -9q0 -13 13 -14h262q14 0 17 14l75 353q0 14 -14 14h-195z" />
<glyph unicode="&#x2019;" horiz-adv-x="426" d="M121 1536q-15 0 -17 -14l-75 -353q0 -14 14 -14h195q12 0 18 12l139 346q1 5 1 9q0 12 -13 14h-262z" />
<glyph unicode="&#x201a;" horiz-adv-x="360" d="M63 242q-14 0 -16 -13l-76 -352q0 -12 15 -14h194q12 0 19 12l139 346q2 5 2 8q0 11 -14 13h-263z" />
<glyph unicode="&#x201c;" horiz-adv-x="850" d="M612 1536q-12 0 -18 -12l-139 -346q-7 -21 12 -23h262q14 0 16 14l76 353q0 14 -14 14h-195zM188 1536q-12 0 -18 -12l-139 -346q-1 -5 -1 -9q0 -13 13 -14h262q14 0 17 14l75 353q0 14 -14 14h-195z" />
<glyph unicode="&#x201d;" horiz-adv-x="850" d="M121 1536q-15 0 -17 -14l-75 -353q0 -14 14 -14h195q12 0 18 12l139 346q6 21 -12 23h-262zM545 1536q-15 0 -17 -14l-75 -353q0 -14 14 -14h194q13 0 19 12l139 346q1 5 1 9q0 12 -13 14h-262z" />
<glyph unicode="&#x201e;" horiz-adv-x="717" d="M63 242q-14 0 -16 -13l-76 -352q0 -12 15 -14h194q12 0 19 12l139 346q6 19 -12 21h-263zM422 242q-14 0 -17 -13l-75 -352q0 -12 14 -14h195q12 0 18 12l139 346q2 5 2 8q0 11 -14 13h-262z" />
<glyph unicode="&#x2022;" horiz-adv-x="592" d="M297 393q262 4 266 375q-4 373 -266 377q-266 -4 -268 -377q2 -371 268 -375z" />
<glyph unicode="&#x2026;" horiz-adv-x="1057" d="M324 285q-2 14 -21 16h-252q-18 -2 -20 -22v-254q0 -23 20 -25h250q21 0 23 23v262zM676 285q-2 14 -21 16h-252q-18 -2 -20 -22v-254q0 -23 20 -25h250q21 0 23 23v262zM1028 285q-2 14 -20 16h-252q-19 -2 -21 -22v-254q0 -23 21 -25h249q21 0 23 23v262z" />
<glyph unicode="&#x202f;" horiz-adv-x="376" />
<glyph unicode="&#x2039;" horiz-adv-x="307" d="M276 1032q0 10 -10 10q-4 0 -10 -4l-215 -186q-10 -6 -10 -21v-135q0 -10 10 -18l215 -187q6 -4 10 -4q10 0 10 11v155q-2 11 -34 51q-31 39 -45 54q-5 4 -5 6q3 16 44 57q38 39 40 55v156z" />
<glyph unicode="&#x203a;" horiz-adv-x="307" d="M31 876q2 -16 43 -55q39 -41 41 -57q0 -2 -4 -6q-11 -15 -43 -54q-35 -40 -37 -51v-155q0 -11 10 -11q6 0 10 4l215 187q10 8 10 18v135q0 15 -10 21l-215 186q-4 4 -10 4q-10 0 -10 -10v-156z" />
<glyph unicode="&#x205f;" horiz-adv-x="470" />
<glyph unicode="&#x2122;" horiz-adv-x="1601" d="M442 614q21 0 21 17v639q0 16 14 18h133q19 0 19 16v218q0 14 -17 14h-569q-12 -2 -12 -12v-220q2 -16 16 -16h133q17 0 19 -16v-641q0 -17 18 -17h225zM932 614q14 0 14 13v403q0 16 6 16q6 3 13 -24l61 -395q4 -13 14 -13h152q10 0 14 11l64 397q4 24 12 24q6 0 6 -14 v-405q0 -13 14 -13h242q14 0 14 13v895q0 14 -14 14h-371q-12 0 -14 -14l-31 -271q-2 -12 -6 -12q-6 0 -6 12l-41 273q-2 10 -12 12h-356q-13 -2 -13 -12v-899q0 -11 13 -11h225z" />
</font>
</defs>
</svg>
