<?xml version="1.0" standalone="no"?>
<!DOCTYPE svg PUBLIC "-//W3C//DTD SVG 1.1//EN" "http://www.w3.org/Graphics/SVG/1.1/DTD/svg11.dtd" >
<svg xmlns="http://www.w3.org/2000/svg">
<metadata>
This is a custom SVG webfont generated by Font Squirrel.
Designer    : Barbara Lind
Foundry URL : httpwwwadobecomtype
</metadata>
<defs>
<font id="webfontehJCX3HB" horiz-adv-x="452" >
<font-face units-per-em="1000" ascent="765" descent="-235" />
<missing-glyph horiz-adv-x="100" />
<glyph unicode=" "  horiz-adv-x="100" />
<glyph unicode="&#x09;" horiz-adv-x="100" />
<glyph unicode="&#xa0;" horiz-adv-x="100" />
<glyph unicode="!" horiz-adv-x="216" d="M180 139v-128q0 -11 -11 -11h-122q-10 0 -10 12v124q0 4 3.5 7.5t6.5 3.5h123q10 0 10 -8zM37 191l-22 550q0 9 8 9h168q10 0 10 -9l-21 -548q0 -4 -3.5 -8.5t-7.5 -4.5h-121q-9 0 -11 11z" />
<glyph unicode="&#x22;" horiz-adv-x="415" d="M42 750h124q10 0 10 -11l-16 -169q0 -6 -8 -6h-95q-9 0 -9 7l-16 168q0 3 3 7t7 4zM249 750h124q10 0 10 -11l-16 -169q0 -6 -8 -6h-95q-9 0 -9 7l-16 168q0 3 3 7t7 4z" />
<glyph unicode="#" horiz-adv-x="522" d="M171 0h-109l32 198h-80v122h96l17 79h-81v121h95l34 195h107l-31 -195h66l31 195h112l-32 -195h80v-121h-95l-19 -79h81v-122h-95l-34 -198h-106l30 198h-67zM218 320h67l17 79h-67z" />
<glyph unicode="$" horiz-adv-x="426" d="M262 56v-58q0 -8 -8 -8h-72q-6 0 -7 10t-1 57q-160 29 -160 206q0 7 8 9l127 7q9 0 11 -11q11 -56 46 -56q22 0 22 22q0 19 -21 40t-82 65q-94 68 -94 172q0 60 38 110.5t105 64.5v55q0 9 7 9h73q6 0 7 -9.5t1 -55.5q68 -14 108 -65t40 -118q0 -9 -11 -11l-137 -7 q-3 0 -16 19t-17 19q-13 0 -13 -15q0 -16 20.5 -35.5t79.5 -64.5q95 -72 95 -165q0 -75 -39.5 -123.5t-109.5 -62.5z" />
<glyph unicode="%" horiz-adv-x="700" d="M14 428v181q0 53 39.5 92t98.5 39q62 0 100.5 -39t38.5 -92v-181q0 -57 -40.5 -95t-98.5 -38t-98 38t-40 95zM136 600v-162q0 -20 17 -20q16 0 16 19v163q0 18 -16 18q-17 0 -17 -18zM409 133v181q0 53 39.5 92t98.5 39q62 0 100.5 -39t38.5 -92v-181q0 -57 -40.5 -95 t-98.5 -38t-98 38t-40 95zM531 305v-162q0 -20 17 -20q16 0 16 19v163q0 18 -16 18q-17 0 -17 -18zM255 9l99 730q2 9 9 9h78q8 0 6 -9l-100 -732q-1 -9 -11 -9h-75q-8 0 -6 11z" />
<glyph unicode="&#x26;" horiz-adv-x="524" d="M450 193l65 -124q2 -6 2 -8q0 -6 -15 -20.5t-42 -27.5t-53 -13q-48 0 -80 52q-5 8 -11 8t-14 -9q-44 -51 -117 -51q-74 0 -122.5 55t-48.5 146q0 138 95 202q11 8 11 14q0 8 -4 16q-12 20 -24.5 62t-12.5 84q0 80 50.5 125.5t123.5 45.5t119 -41.5t46 -103.5 q0 -93 -82 -159q-8 -6 -8 -16q0 -4 5 -16l39 -77q3 -8 9 -8q2 0 9 7l60 73q3 3 6 3q4 0 9 -5l54 -78q2 -4 2 -9q0 -8 -4 -12l-65 -78q-9 -10 -9 -17q0 -6 7 -20zM234 196l-47 97q-1 3 -4 3q-4 0 -8.5 -9t-4.5 -19q0 -20 15.5 -52t33.5 -32q3 0 6.5 1t7 4t1.5 7zM268 551 q1 -2 4 -2q5 0 10.5 11.5t5.5 24.5q0 24 -17 24q-15 0 -15 -22q0 -18 12 -36z" />
<glyph unicode="'" horiz-adv-x="208" d="M42 750h124q10 0 10 -11l-16 -169q0 -6 -8 -6h-95q-9 0 -9 7l-16 168q0 3 3 7t7 4z" />
<glyph unicode="(" horiz-adv-x="226" d="M156 447v-116q0 -98 20.5 -200t50.5 -171q1 -2 1 -5q0 -4 -5 -4h-129q-11 0 -30 57t-34.5 150t-15.5 176v116q0 73 15.5 157.5t35 138.5t32.5 54h125q7 0 5 -7q-31 -72 -51 -169t-20 -177z" />
<glyph unicode=")" horiz-adv-x="226" d="M70 331v116q0 80 -20 177t-51 170q-1 2 -1 3q0 3 6 3h125q13 0 32.5 -54t35 -138.5t15.5 -157.5v-116q0 -83 -15.5 -176t-34.5 -150t-30 -57h-129q-5 0 -5 5q0 2 1 4q30 69 50.5 171t20.5 200z" />
<glyph unicode="*" horiz-adv-x="276" d="M178 656l46 38q1 1 3 1t3 -1l37 -53q2 -2 2 -3q0 -2 -3 -4l-70 -41q-4 -2 -4 -5q0 -2 4 -6l50 -71v-1l1 -2q0 -4 -3 -5l-53 -32q-1 -1 -4 -1q-2 0 -4 2l-42 79q-2 4 -3 4q-3 0 -3 -4l-43 -79q-2 -2 -4 -2t-3 1l-54 33q-5 3 -2 6l52 72l3 6q0 2 -5 5l-69 40q-2 1 -2 5 q0 2 1 4l36 51q2 3 6 2l47 -40l4 -2q4 0 2 5l-4 86q0 6 5 6h65q5 0 5 -5l-4 -86q0 -6 2 -6q1 0 2 1q2 2 3 2z" />
<glyph unicode="+" d="M414 236h-136v-199h-104v199h-136v107h136v193h104v-193h136v-107z" />
<glyph unicode="," horiz-adv-x="176" d="M31 118h128q7 0 7 -5q0 -2 -1 -5l-68 -169q-3 -6 -9 -6h-95q-9 0 -7 7l37 172q1 6 8 6z" />
<glyph unicode="-" horiz-adv-x="262" d="M20 430h222v-123h-222v123z" />
<glyph unicode="." horiz-adv-x="183" d="M163 139v-128q0 -11 -11 -11h-122q-4 0 -7 4t-3 8v124q0 4 3.5 7.5t6.5 3.5h123q10 0 10 -8z" />
<glyph unicode="/" horiz-adv-x="192" d="M0 11l99 730q1 9 9 9h77q7 0 7 -9l-101 -732q-1 -9 -11 -9h-74q-8 0 -6 11z" />
<glyph unicode="0" horiz-adv-x="446" d="M15 221v301q0 95 57 156.5t150 61.5t151 -61.5t58 -156.5v-301q0 -97 -58.5 -159t-150.5 -62q-93 0 -150 62t-57 159zM207 519v-294q0 -20 16 -20t16 20v293q0 20 -16 20t-16 -19z" />
<glyph unicode="1" horiz-adv-x="266" d="M45 7v508q0 6 -6 6q-20 0 -24.5 1t-4.5 6v204q0 8 9 8h219q8 0 8 -8v-724q0 -8 -7 -8h-187q-7 0 -7 7z" />
<glyph unicode="2" horiz-adv-x="430" d="M221 207h185q8 0 8 -9v-190q0 -8 -10 -8h-380q-9 0 -9 7v200q0 14 10 30q24 36 63 77.5t69 69t53 61t23 62.5q0 23 -14 23q-10 0 -18 -18t-8 -41q0 -8 -8 -8l-155 7q-9 1 -10.5 7.5t-1.5 37.5q0 96 52.5 160.5t144.5 64.5q93 0 149.5 -65t56.5 -157q0 -54 -13.5 -97 t-44.5 -79.5t-61 -61.5t-83 -62q-4 -4 -4 -7q0 -4 6 -4z" />
<glyph unicode="3" horiz-adv-x="448" d="M150 325v118q0 11 7.5 13t41.5 2q18 0 29 8.5t11 20.5q0 45 -2 54.5t-14 9.5t-14 -7.5t-2 -42.5q0 -10 -11 -10l-166 7q-8 0 -8 8q0 23 0.5 37t4.5 41.5t11 45.5t21.5 40.5t35.5 36.5t54 23.5t74 9.5q90 0 146 -52.5t56 -141.5q0 -57 -25.5 -98.5t-58.5 -57.5 q-11 -7 -11 -8q0 -2 13 -7q32 -11 61 -52t29 -100q0 -97 -58.5 -160t-151.5 -63q-92 0 -150.5 62.5t-58.5 158.5q0 34 1 41.5t5 7.5l180 7q7 0 7 -8q0 -45 2 -54.5t14 -9.5q16 0 16 20q0 42 -1.5 57t-10 23.5t-28.5 8.5q-34 0 -41.5 1.5t-7.5 9.5z" />
<glyph unicode="4" horiz-adv-x="450" d="M197 7v132q0 5 -5 5h-180q-7 0 -7 7v160q0 3 3 12l223 409q4 8 11 8h148q8 0 8 -8v-399q0 -16 18 -16q29 0 29 -11v-154q0 -8 -24 -8q-8 0 -15.5 -4t-7.5 -9v-124q0 -7 -8 -7h-186q-7 0 -7 7zM187 391l-35 -69q-1 -3 4 -4t35 -1q6 0 6 5v69q0 6 -4 6q-3 0 -6 -6z" />
<glyph unicode="5" horiz-adv-x="466" d="M22 330l37 403q2 7 8 7h372q6 0 6 -7l-19 -198q-1 -7 -9 -7l-230 15q-6 1 -9.5 -18t-3.5 -31q0 -3 2 -3q1 0 7 3q19 13 59 13q94 0 152.5 -70.5t58.5 -179.5q0 -125 -61.5 -191t-166.5 -66q-94 0 -152.5 67t-58.5 152v51q0 7 5 7l187 7q6 0 6 -7q0 -51 7 -56q3 -2 9 -2 q11 0 13.5 11t2.5 59q0 64 -47 64q-29 0 -38 -34q-3 -9 -12 -8l-117 10q-8 0 -8 9z" />
<glyph unicode="6" horiz-adv-x="458" d="M14 284v200q0 113 60 184.5t149 71.5q97 0 157 -62.5t60 -169.5q0 -8 -8 -10l-173 -7q-7 0 -7 9q0 54 -7 60q-4 2 -9 2t-10.5 -5t-5.5 -13v-172q0 -9 6 -9q4 0 12 8q29 31 74 31q57 0 94.5 -50t37.5 -137q0 -94 -61.5 -154.5t-147.5 -60.5q-109 0 -165 79.5t-56 204.5z M251 213v36q0 20 -15 20q-16 0 -16 -20v-37q0 -12 15 -12q16 0 16 13z" />
<glyph unicode="7" horiz-adv-x="358" d="M10 548v186q0 6 7 6h315q15 0 15 -7v-191q0 -9 -5 -19q-94 -165 -94 -515q0 -8 -8 -8h-209q-10 0 -10 12q0 68 38.5 249.5t97.5 265.5q5 8 5 11t-9 3h-137q-6 0 -6 7z" />
<glyph unicode="8" horiz-adv-x="448" d="M223 740q90 0 146 -53t56 -142q0 -57 -25.5 -99t-58.5 -57q-11 -5 -11 -8t13 -8q35 -15 63 -56t28 -100q0 -102 -59.5 -159.5t-151.5 -57.5t-150.5 57.5t-58.5 159.5q0 111 81 156q14 8 14 10q0 3 -13 9q-74 40 -74 159q0 86 55.5 137.5t145.5 51.5zM240 227v67 q0 8 -5.5 13.5t-11.5 5.5q-16 0 -16 -19v-67q0 -9 5 -14.5t12 -5.5q6 0 11 5.5t5 14.5zM240 469v62q0 8 -5.5 13.5t-11.5 5.5q-16 0 -16 -19v-62q0 -12 16 -12q17 0 17 12z" />
<glyph unicode="9" horiz-adv-x="454" d="M440 453v-200q0 -113 -60 -183t-149 -70q-97 0 -157 61.5t-60 168.5q0 9 7 9l173 7q8 0 8 -9l3 -49q1 -13 13 -13q16 0 16 19v167q0 13 -6 13q-4 0 -12 -8q-31 -31 -74 -31q-57 0 -94.5 50t-37.5 137q0 95 61.5 156.5t147.5 61.5q109 0 165 -80.5t56 -206.5zM203 524v-36 q0 -20 16 -20q15 0 15 20v35q0 15 -16 15q-15 0 -15 -14z" />
<glyph unicode=":" horiz-adv-x="184" d="M163 488v-128q0 -11 -11 -11h-122q-10 0 -10 12v124q0 4 3.5 7.5t6.5 3.5h123q10 0 10 -8zM163 139v-128q0 -11 -11 -11h-122q-10 0 -10 12v124q0 4 3.5 7.5t6.5 3.5h123q10 0 10 -8z" />
<glyph unicode=";" horiz-adv-x="184" d="M31 118h128q7 0 7 -5q0 -2 -1 -5l-68 -169q-3 -6 -9 -6h-95q-9 0 -7 7l37 172q1 6 8 6zM163 488v-128q0 -11 -11 -11h-122q-10 0 -10 12v124q0 4 3.5 7.5t6.5 3.5h123q10 0 10 -8z" />
<glyph unicode="&#x3c;" d="M413 16l-374 218v114l374 218v-122l-287 -151v-2l287 -152v-123z" />
<glyph unicode="=" d="M414 346h-376v107h376v-107zM414 125h-376v107h376v-107z" />
<glyph unicode="&#x3e;" d="M39 566l374 -218v-115l-374 -217v123l287 152v2l-287 151v122z" />
<glyph unicode="?" horiz-adv-x="422" d="M160 508l-150 7q-10 0 -10 10q0 99 59.5 162t155.5 63t151.5 -62.5t55.5 -162.5q0 -98 -94 -187q-35 -33 -55 -73.5t-24 -68.5q-1 -16 -14 -16h-125q-5 0 -9.5 5.5t-4.5 11.5q0 137 59 209q64 79 64 119q0 27 -17 27q-19 0 -27 -32q-3 -14 -15 -12zM243 139v-128 q0 -11 -11 -11h-122q-10 0 -10 12v124q0 4 3.5 7.5t6.5 3.5h123q10 0 10 -8z" />
<glyph unicode="@" horiz-adv-x="724" d="M491 -37l28 -77q-81 -48 -187 -48q-133 0 -215.5 104t-82.5 257q0 76 24 147t68.5 128t115.5 91t157 34q98 0 168 -47t102 -120t32 -162q0 -114 -48.5 -179t-132.5 -65q-85 0 -97 101h-3q-15 -39 -48.5 -70t-75.5 -31q-48 0 -77 42.5t-29 107.5q0 114 61 182t160 68 q79 0 131 -35l-27 -163q-5 -33 -5 -54q0 -16 2 -25q7 -22 31 -22q17 0 30.5 10.5t25 46t11.5 94.5q0 104 -59.5 173t-166.5 69q-41 0 -85 -22t-82 -60.5t-62 -100t-24 -133.5q0 -128 65.5 -206t153.5 -78q76 0 141 43zM388 255l16 66q-7 7 -21 7q-8 0 -17.5 -10.5 t-17.5 -34.5t-8 -55q0 -43 21 -43q8 0 13 14.5t14 55.5z" />
<glyph unicode="A" horiz-adv-x="492" d="M146 750h195q11 0 13 -13l137 -715q1 -3 1 -6q0 -5 -3 -10q-4 -6 -12 -6h-162q-11 0 -13 10l-20 150q-2 8 -10 8h-54q-7 0 -9 -10l-19 -147q-2 -11 -13 -11h-165q-12 0 -12 12v5l134 721q2 12 12 12zM266 277l-13 96q-3 23 -7 23t-7 -23l-13 -95q-2 -10 6 -10q25 0 30 1 t4 8z" />
<glyph unicode="B" horiz-adv-x="438" d="M20 11v727q0 12 11 12h186q92 0 148 -56t56 -124q0 -25 -1 -40t-6 -40.5t-15 -42.5t-30.5 -34t-49.5 -26v-2q47 -17 76 -63.5t29 -104.5q0 -217 -208 -217h-186q-10 0 -10 11zM199 596v-128q0 -7 7 -7q12 0 20.5 7.5t8.5 21.5v86q0 12 -9 19t-20 7q-7 0 -7 -6zM199 303 v-146q0 -7 7 -7q12 0 21 8.5t9 20.5v105q0 12 -9 19.5t-22 7.5q-6 0 -6 -8z" />
<glyph unicode="C" horiz-adv-x="473" d="M14 265v199q0 136 59.5 212t162.5 76q105 0 164 -77t59 -191q0 -21 -1 -25.5t-8 -4.5l-185 -7q-7 0 -12.5 5.5t-5.5 14.5v63q0 19 -16 19q-6 0 -11 -5t-5 -13v-311q0 -17 16 -17t16 18v101q0 5 3.5 10t8.5 4l189 -7q8 0 8 -8q0 -170 -61 -247t-164 -77 q-100 0 -158.5 77.5t-58.5 190.5z" />
<glyph unicode="D" horiz-adv-x="479" d="M219 0h-187q-12 0 -12 12v723q0 15 13 15h179q120 0 186.5 -73.5t66.5 -209.5v-186q0 -124 -66 -202.5t-180 -78.5zM264 234v291q0 15 -9 23q-8 6 -17 6q-6 0 -6 -9v-332q0 -8 6 -8q26 0 26 29z" />
<glyph unicode="E" horiz-adv-x="420" d="M20 13v724q0 5 4 9t9 4h355q10 0 10 -11v-180q0 -10 -11 -10h-167q-7 0 -7 -7v-56q0 -7 7 -7h79q7 0 7 -7v-182q0 -9 -8 -9h-81q-7 0 -7 -8v-59q0 -7 6 -7h173q11 0 11 -10v-186q0 -11 -11 -11h-358q-11 0 -11 13z" />
<glyph unicode="F" horiz-adv-x="420" d="M20 13v723q0 14 12 14h360q12 0 12 -11v-174q0 -13 -13 -13h-162q-11 0 -11 -11v-60q0 -9 10 -9h76q4 0 7.5 -3t3.5 -7v-181q0 -11 -12 -11h-75q-4 0 -7 -4t-3 -9v-243q0 -14 -13 -14h-174q-4 0 -7.5 4t-3.5 9z" />
<glyph unicode="G" horiz-adv-x="484" d="M246 251v110q0 14 17 14h203q5 0 9 -3.5t4 -8.5v-115q0 -8 -4 -8h-17q-7 0 -7 -12q0 -39 -12 -77.5t-36 -74t-66.5 -57.5t-97.5 -22q-225 0 -225 326v117q0 312 229 312q14 0 24.5 -0.5t33.5 -6t40.5 -15.5t39.5 -30.5t36 -49t24 -75t10 -103.5q0 -13 -10 -13l-181 -8 q-14 0 -14 17v57q0 11 -16 11t-16 -23v-275q0 -44 23 -44q22 0 22 30v15q0 6 -4 6h-5q-4 0 -4 6z" />
<glyph unicode="H" horiz-adv-x="450" d="M20 15v725q0 10 10 10h168q9 0 9 -8v-262q0 -7 7 -7h20q9 0 9 7v261q0 9 8 9h169q10 0 10 -9v-730q0 -11 -8 -11h-170q-9 0 -9 11v261q0 8 -6 8h-23q-7 0 -7 -8v-262q0 -10 -9 -10h-165q-13 0 -13 15z" />
<glyph unicode="I" horiz-adv-x="232" d="M200 0h-167q-13 0 -13 15v725q0 10 9 10h171q12 0 12 -10v-727q0 -13 -12 -13z" />
<glyph unicode="J" horiz-adv-x="425" d="M213 230v510q0 10 11 10h169q12 0 12 -13v-533q0 -84 -57 -144t-152 -60q-14 0 -33.5 4.5t-48.5 21.5t-52 44t-40 78.5t-17 118.5q0 9 10 11l140 7q11 0 12 -12q5 -67 32 -67q14 0 14 24z" />
<glyph unicode="K" horiz-adv-x="460" d="M258 8l-38 199q-1 7 -5 7q-3 0 -3 -8v-193q0 -5 -4 -9t-9 -4h-167q-5 0 -8.5 4.5t-3.5 10.5v725q0 10 9 10h170q13 0 13 -10v-174q0 -7 3 -7t6 7l39 175q4 9 11 9h176q7 0 7 -8q0 -4 -1 -6l-127 -331q-3 -6 -3 -13q0 -5 2 -11l131 -371q1 -2 1 -4q0 -6 -7 -6h-184 q-6 0 -8 8z" />
<glyph unicode="L" horiz-adv-x="416" d="M218 207h171q11 0 11 -10v-186q0 -11 -11 -11h-358q-11 0 -11 13v723q0 5 4 9.5t9 4.5h169q10 0 10 -11v-525q0 -7 6 -7z" />
<glyph unicode="M" horiz-adv-x="689" d="M198 0h-170q-8 0 -8 9v731q0 10 8 10h268q8 0 10 -10l30 -199q1 -10 5 -10t4 11l24 197q2 11 11 11h278q11 0 11 -11v-729q0 -10 -11 -10h-181q-11 0 -11 11v313q0 11 -3 11t-7 -20l-52 -307q-1 -8 -11 -8h-113q-8 0 -11 11l-46 286q-4 20 -10 20q-5 0 -5 -13v-293 q0 -11 -10 -11z" />
<glyph unicode="N" horiz-adv-x="482" d="M20 14v723q0 13 11 13h169q11 0 14 -12l60 -225q3 -12 7 -12q6 0 6 13v223q0 13 12 13h150q13 0 13 -14v-723q0 -13 -11 -13h-187q-9 0 -11 10l-44 180q-3 14 -9 14q-5 0 -5 -14v-177q0 -13 -13 -13h-152q-10 0 -10 14z" />
<glyph unicode="O" horiz-adv-x="444" d="M14 226v296q0 111 59.5 170.5t148.5 59.5t148.5 -59.5t59.5 -170.5v-296q0 -110 -60 -169.5t-148 -59.5t-148 59.5t-60 169.5zM206 519v-290q0 -26 16 -26t16 26v290q0 27 -16 27t-16 -27z" />
<glyph unicode="P" horiz-adv-x="466" d="M20 18v715q0 17 14 17h233q17 0 38 -4.5t49.5 -19.5t51.5 -38t39 -64.5t16 -95.5q0 -71 -54 -128t-125 -57q-38 0 -46 -1.5t-8 -10.5v-317q0 -14 -17 -14h-175q-16 0 -16 18zM228 553v-81q0 -11 10 -11q21 0 21 33v41q0 27 -21 27q-5 0 -7 -1q-3 -1 -3 -8z" />
<glyph unicode="Q" horiz-adv-x="442" d="M429 523v-296q0 -96 -45 -145q-2 -2 -2 -4q0 -8 34 -30l34 -22q0 -9 -26 -32t-59 -34q-16 -4 -22 -4q-41 0 -68 46q0 2 -3 2q-8 0 -26 -3.5t-25 -3.5q-88 0 -147.5 59.5t-59.5 170.5v296q0 111 59 170t148 59t148.5 -59t59.5 -170zM204 520v-291q0 -26 16 -26t16 27v290 q0 26 -16 26t-16 -26z" />
<glyph unicode="R" horiz-adv-x="506" d="M31 750h223q73 0 133 -52t60 -138q0 -152 -105 -167v-2q36 -10 59.5 -25.5t36 -30t18.5 -42.5t7 -46.5t1 -57.5q0 -22 27 -33q9 -5 9 -14q0 -39 -11 -67t-26 -42.5t-35.5 -23t-33.5 -10t-27 -1.5q-55 0 -87.5 37.5t-32.5 106.5v154q0 22 -8 35t-17 13q-7 0 -7 -12v-320 q0 -12 -12 -12h-171q-12 0 -12 13v725q0 12 11 12zM215 531v-92q0 -9 7 -9q16 0 20 16t4 58q0 16 -7.5 26t-15.5 10t-8 -9z" />
<glyph unicode="S" horiz-adv-x="462" d="M436 515l-153 -7q-9 0 -12 11q-9 36 -30 36q-15 0 -15 -18q0 -22 27 -47.5t80 -61.5q51 -34 82.5 -85t31.5 -105q0 -103 -57.5 -172t-153.5 -69q-110 0 -166 72.5t-56 197.5q0 10 12 10l138 7q11 0 12 -13q3 -33 15.5 -58t29.5 -25q23 0 23 32q0 9 -8 20t-30 31l-36 31 l-49 40q-49 39 -74.5 91.5t-25.5 105.5q0 83 57.5 148t152.5 65q97 0 157 -65.5t60 -158.5q0 -13 -12 -13z" />
<glyph unicode="T" horiz-adv-x="480" d="M325 0h-170q-5 0 -9.5 4t-4.5 10v522q0 12 -13 12h-100q-4 0 -8.5 4.5t-4.5 9.5v178q0 10 9 10h428q13 0 13 -12v-176q0 -14 -14 -14h-100q-12 0 -12 -14v-521q0 -13 -14 -13z" />
<glyph unicode="U" horiz-adv-x="456" d="M30 750h170q11 0 11 -11v-508q0 -22 17 -22t17 21v510q0 10 11 10h169q11 0 11 -10v-536q0 -84 -56.5 -144t-151.5 -60t-151.5 60.5t-56.5 143.5v535q0 11 10 11z" />
<glyph unicode="V" horiz-adv-x="494" d="M198 740l51 -313q2 -8 5 -8q5 0 5 8l42 310q4 13 12 13h172q11 0 9 -13l-139 -725q-2 -12 -13 -12h-195q-10 0 -12 12l-135 727q-2 11 7 11h179q11 0 12 -10z" />
<glyph unicode="W" horiz-adv-x="622" d="M11 750h159q13 0 15 -13l22 -237q2 -19 8 -19q7 0 9 19l24 237q3 13 12 13h102q10 0 12 -11l26 -239q2 -19 8 -19q7 0 9 19l20 238q2 12 11 12h162q14 0 12 -14l-93 -721q-1 -15 -13 -15h-146q-10 0 -12 11l-38 242q-2 16 -8 16t-8 -17l-35 -240q-3 -12 -11 -12h-148 q-12 0 -14 13l-96 724q-1 13 11 13z" />
<glyph unicode="X" horiz-adv-x="453" d="M1 10l114 366q2 4 2 8t-2 10l-114 345q-1 3 -1 5q0 6 7 6h183q6 0 8 -8l23 -104q2 -7 4 -7q3 0 5 7l23 104q2 8 8 8h183q8 0 8 -8q0 -4 -1 -7l-114 -337q-3 -6 -3 -13q0 -5 2 -11l116 -364q1 -2 1 -4q0 -6 -7 -6h-186q-5 0 -7 7l-23 123q-2 6 -4 6t-4 -6l-23 -123 q-2 -7 -9 -7h-184q-6 0 -6 5q0 3 1 5z" />
<glyph unicode="Y" horiz-adv-x="497" d="M127 315l-127 427q-1 2 -1 4q0 4 7 4h182q8 0 11 -10l48 -207q2 -8 5 -8q5 0 5 8l46 204q4 13 12 13h174q5 0 7 -4t1 -8l-131 -421q-9 -31 -9 -53v-251q-2 -13 -14 -13h-195q-10 0 -12 12v254q0 21 -9 49z" />
<glyph unicode="Z" horiz-adv-x="375" d="M220 207h124q11 0 11 -10v-186q0 -11 -11 -11h-315q-9 0 -9 10v173q0 10 4 17l141 340q2 9 -5 9h-131q-8 0 -8 9v181q0 11 8 11h316q9 0 9 -12l1 -173q0 -7 -4 -17l-138 -331q-2 -10 7 -10z" />
<glyph unicode="[" horiz-adv-x="200" d="M30 800h154q6 0 6 -5v-103q0 -6 -7 -6q-19 0 -22.5 -1t-3.5 -6v-607q0 -8 7 -8q25 -2 26 -6v-101q0 -6 -6 -6h-156q-8 0 -8 7v831q0 4 3.5 7.5t6.5 3.5z" />
<glyph unicode="\" horiz-adv-x="293" d="M284 -43h-105l-168 794h104z" />
<glyph unicode="]" horiz-adv-x="200" d="M15 800h154q3 0 7 -3.5t4 -7.5v-831q0 -7 -9 -7h-156q-5 0 -5 5v101q0 5 3.5 6t21.5 1q8 0 8 7v608q0 5 -4 6t-23 1q-6 0 -6 6v102q0 6 5 6z" />
<glyph unicode="^" horiz-adv-x="498" d="M464 337h-118l-99 257l-102 -257h-112l164 372h105z" />
<glyph unicode="_" horiz-adv-x="500" d="M0 -75h500v-50h-500v50z" />
<glyph unicode="`" horiz-adv-x="349" d="M259 635h-75q-4 0 -10 6l-89 115q-1 1 -1 4q0 8 8 8h91q8 0 12 -8l68 -112q2 -4 2 -6q0 -7 -6 -7z" />
<glyph unicode="a" horiz-adv-x="392" d="M159 391l-133 7q-5 0 -6 8t-1 44q0 62 45 106t120 44q79 0 125 -42.5t46 -104.5v-271q0 -6 4 -7t21 -1q7 0 7 -8v-62q0 -39 -29.5 -73t-69.5 -34q-54 0 -79 38q-6 9 -10 9q-3 0 -11 -10q-25 -34 -70 -34q-38 0 -71 33.5t-33 101.5v74q0 99 108 144q52 22 64.5 35.5 t12.5 41.5q0 21 -15 21q-12 0 -14 -8t-2 -44q0 -8 -9 -8zM199 160v97q0 7 -6 8q-7 0 -16.5 -8.5t-9.5 -22.5v-74q0 -17 16 -17t16 17z" />
<glyph unicode="b" horiz-adv-x="366" d="M155 0h-126q-9 0 -9 9v748q0 8 9 8h130q9 0 9 -10v-175q0 -8 3 -8q2 0 9 7q21 21 57 21q46 0 80 -44.5t34 -147.5v-209q0 -199 -107 -199q-34 0 -59 18q-8 7 -11 7t-10 -12.5t-9 -12.5zM168 416v-239q0 -13 8 -19q3 -5 11 -5q13 0 13 19v251q0 19 -13 19q-19 0 -19 -26z " />
<glyph unicode="c" horiz-adv-x="365" d="M14 191v236q0 70 45 121.5t121 51.5t123.5 -55.5t47.5 -127.5q0 -37 -1.5 -45.5t-10.5 -9.5l-131 -7q-5 -1 -8.5 3t-3.5 9v74q0 9 -5 14.5t-11 5.5t-11 -6t-5 -14v-266q0 -9 5.5 -14.5t11.5 -5.5t10.5 5.5t4.5 14.5v64q0 10 11 10l133 -7q11 -2 11 -12q0 -21 -0.5 -34.5 t-4 -40.5t-9.5 -45t-19 -40.5t-31 -36.5t-46.5 -23.5t-64.5 -9.5q-72 0 -117 52t-45 139z" />
<glyph unicode="d" horiz-adv-x="366" d="M336 0h-126q-3 0 -10 12.5t-9 12.5t-12 -7q-23 -18 -58 -18q-107 0 -107 199v209q0 104 33.5 148t80.5 44q35 0 56 -21q7 -7 10 -7t3 8v175q0 10 9 10h130q9 0 9 -8v-748q0 -9 -9 -9zM197 177v239q0 11 -5.5 18.5t-13.5 7.5q-13 0 -13 -19v-251q0 -19 13 -19q6 0 11 5 q8 8 8 19z" />
<glyph unicode="e" horiz-adv-x="378" d="M14 190v248q0 82 51.5 122t120.5 40q82 0 130 -54t48 -131v-61q0 -9 -9 -9h-167q-6 0 -6 -8v-157q0 -22 16 -22t16 21v61q0 8 9 8l129 -7q10 -2 10 -11v-64q0 -89 -50.5 -127.5t-129.5 -38.5t-123.5 51.5t-44.5 138.5zM182 454v-50q0 -5 6 -5q26 0 26 5q0 49 -2.5 60 t-14.5 11q-15 0 -15 -21z" />
<glyph unicode="f" horiz-adv-x="226" d="M320 647l-103 -7q-9 -2 -9 8q0 33 -9 33q-14 0 -14 -12v-62q0 -7 16 -7q20 0 20 -10v-139q0 -10 -21 -10q-15 0 -15 -7v-425q0 -9 -8 -9h-136q-8 0 -8 9v424q0 8 -14 8t-14 8v140q0 11 16 11q12 0 12 5v62q0 46 42.5 72t113.5 26q48 0 77.5 -8t42 -25.5t15.5 -33t3 -43.5 q0 -7 -7 -8z" />
<glyph unicode="g" horiz-adv-x="322" d="M14 308v152q0 62 41.5 101t106.5 39q44 0 70 -15q7 12 24 28t31 16q16 0 34 -25t18 -33q0 -4 -11.5 -11t-25 -13t-15.5 -8q21 -28 21 -83v-149q0 -62 -40.5 -101t-105.5 -39q-24 0 -41 5q-6 -10 -6 -16q0 -17 54 -25q82 -11 118 -45t36 -103q0 -64 -43 -98.5t-111 -34.5 q-79 0 -120.5 34t-41.5 81q0 49 32 73q-24 21 -24 68q0 26 15 54t34 42q-21 18 -35.5 47.5t-14.5 58.5zM145 437v-111q0 -20 17 -20q15 0 15 20v110q0 20 -15 20q-17 0 -17 -19zM185 0q-42 2 -73 10q-6 -4 -6 -14q0 -28 54 -28q40 0 40 21q0 11 -15 11z" />
<glyph unicode="h" horiz-adv-x="381" d="M20 9v744q0 12 11 12h141q10 0 10 -9v-182q0 -9 3 -9t10 6q31 29 70 29q38 0 67 -25t29 -78v-491q0 -6 -6 -6h-138q-7 0 -7 7v414q0 20 -16 20t-16 -20v-413q0 -8 -7 -8h-143q-8 0 -8 9z" />
<glyph unicode="i" horiz-adv-x="202" d="M182 590v-582q0 -8 -7 -8h-147q-8 0 -8 9v579q0 12 10 12h142q10 0 10 -10zM172 770v-128q0 -11 -10 -11h-122q-10 0 -10 12v124q0 4 3 7.5t7 3.5h123q9 0 9 -8z" />
<glyph unicode="j" horiz-adv-x="200" d="M-110 -33l107 7q7 2 7 -6q0 -23 1 -28t7 -5q8 0 8 16v641q0 8 9 8h141q9 0 9 -9v-643q0 -46 -42.5 -72t-113.5 -26q-40 0 -67 6.5t-41 14.5t-21 25t-8 28.5t-1 35.5q0 5 5 7zM169 770v-128q0 -11 -10 -11h-122q-10 0 -10 12v124q0 4 3 7.5t7 3.5h123q9 0 9 -8z" />
<glyph unicode="k" horiz-adv-x="368" d="M202 8l-26 183q0 4 -2 4t-2 -4v-185q0 -6 -7 -6h-137q-8 0 -8 10v747q0 8 7 8h134q6 0 6 -8v-303q0 -4 2 -4q1 2 1 4l27 138q2 8 8 8h139q9 0 7 -9l-74 -249q-2 -6 -2 -8q0 -1 3 -7l85 -318q1 -3 -1.5 -6t-4.5 -3h-147q-6 0 -8 8z" />
<glyph unicode="l" horiz-adv-x="202" d="M174 0h-146q-8 0 -8 9v744q0 12 11 12h141q10 0 10 -9v-748q0 -8 -8 -8z" />
<glyph unicode="m" horiz-adv-x="563" d="M543 495v-484q0 -11 -9 -11h-134q-9 0 -9 11v405q0 21 -16 21t-16 -21v-406q0 -10 -9 -10h-137q-9 0 -9 9v408q0 20 -16 20t-16 -20v-410q0 -7 -8 -7h-137q-7 0 -7 8v584q0 8 9 8h131q4 0 11 -21.5t10 -21.5q4 0 11 8q31 35 75 35q49 0 76 -36q7 -10 12 -10q6 0 12 8 q37 35 82 35q39 0 66.5 -29.5t27.5 -72.5z" />
<glyph unicode="n" horiz-adv-x="374" d="M165 0h-137q-8 0 -8 10v583q0 7 7 7h125q4 0 10.5 -21t8.5 -21t7 7q29 37 78 37q39 0 68.5 -29t29.5 -77v-491q0 -5 -5 -5h-138q-7 0 -7 7v409q0 20 -16 20t-16 -20v-410q0 -6 -7 -6z" />
<glyph unicode="o" horiz-adv-x="372" d="M14 156v289q0 69 47.5 112t124.5 43q78 0 125 -43.5t47 -116.5v-284q0 -70 -47.5 -113t-124.5 -43q-76 0 -124 43.5t-48 112.5zM170 420v-238q0 -20 16 -20t16 20v238q0 20 -16 20t-16 -20z" />
<glyph unicode="p" horiz-adv-x="364" d="M29 600h126q2 0 9 -12.5t10 -12.5t11 7q25 18 59 18q107 0 107 -199v-209q0 -103 -34 -147.5t-80 -44.5q-33 0 -57 21q-7 7 -9 7q-3 0 -3 -8v-160q0 -10 -9 -10h-130q-9 0 -9 9v732q0 9 9 9zM168 424v-240q0 -26 19 -26q13 0 13 20v251q0 18 -13 18q-7 0 -11 -4 q-8 -8 -8 -19z" />
<glyph unicode="q" horiz-adv-x="366" d="M210 600h126q9 0 9 -8v-747q0 -9 -9 -9h-130q-9 0 -9 10v175q0 8 -3 8q-2 0 -9 -7q-25 -22 -57 -22q-46 0 -80 45t-34 148v209q0 198 107 198q36 0 59 -17q8 -7 11 -7t10 12t9 12zM197 185v240q0 11 -8 19q-6 4 -11 4q-13 0 -13 -18v-251q0 -20 13 -20q19 0 19 26z" />
<glyph unicode="r" horiz-adv-x="274" d="M20 8v584q0 8 6 8h141q3 0 9.5 -16t8.5 -16q3 0 6 7q7 16 21 20.5t42 4.5q6 0 6 -7v-144q0 -7 -7 -7q-39 0 -55 -24t-16 -84v-325q0 -9 -9 -9h-146q-7 0 -7 8z" />
<glyph unicode="s" horiz-adv-x="350" d="M329 399l-119 -7q-4 -1 -6 1.5t-2 7.5q0 47 -22 47q-15 0 -15 -18q0 -24 85 -101q45 -40 64.5 -76t19.5 -83q0 -72 -40 -121t-125 -49q-28 0 -53 9t-50 30t-39.5 63.5t-14.5 102.5q0 9 7 9l109 7q6 0 8 -7q1 -27 9.5 -42.5t19.5 -15.5q14 0 14 17q0 30 -94 109 q-77 62 -77 162q0 66 46.5 111t113.5 45q85 0 128 -55.5t43 -136.5q0 -9 -10 -9z" />
<glyph unicode="t" horiz-adv-x="250" d="M34 157v277q0 7 -6 7q-16 0 -19.5 1t-3.5 6v146q0 6 4 6q18 0 21.5 1t3.5 6v88q0 7 7 7h144q7 0 8.5 -1.5t1.5 -7.5v-84q0 -9 8 -9q24 0 29 -1t5 -6v-145q0 -7 -7 -7q-24 0 -29.5 -1t-5.5 -7v-263q0 -8 6 -8q27 0 33 -1t6 -5q0 -24 -0.5 -38.5t-6 -40t-15.5 -40 t-30.5 -26t-49.5 -11.5q-104 0 -104 157z" />
<glyph unicode="u" horiz-adv-x="360" d="M20 104v486q0 10 8 10h126q8 0 8 -8v-382q0 -20 16 -20t16 20v382q0 8 7 8h130q9 0 9 -7v-586q0 -7 -8 -7h-118q-3 0 -9 17.5t-9 17.5t-11 -8q-29 -27 -71 -27q-35 0 -64.5 27.5t-29.5 76.5z" />
<glyph unicode="v" horiz-adv-x="344" d="M95 9l-95 584v3q0 4 4 4h131q6 0 8 -7l24 -179q1 -9 4 -9t4 9l26 178q2 8 8 8h129q8 0 6 -9l-95 -583q-2 -8 -8 -8h-137q-8 0 -9 9z" />
<glyph unicode="w" horiz-adv-x="535" d="M295 9l-21 185q-2 21 -6 21t-6 -21l-22 -186q-2 -8 -8 -8h-127q-7 0 -9 9l-96 584v3q0 4 4 4h130q8 0 8 -7l26 -169q2 -9 4 -9q3 0 4 9l26 168q2 8 8 8h115q6 0 8 -7l24 -169q1 -9 4 -9t4 9l26 168q2 8 8 8h129q9 0 7 -9l-96 -583q-2 -8 -8 -8h-127q-7 0 -9 9z" />
<glyph unicode="x" horiz-adv-x="359" d="M0 7l95 292q2 6 1 12l-95 281q-2 8 4 8h146q6 0 8 -8l19 -76q0 -3 2 -3l2 4l19 75q2 8 8 8h144q8 0 6 -9l-94 -281q-2 -6 -2 -8q0 -4 2 -8l93 -285q2 -9 -7 -9h-144q-6 0 -8 8l-17 79q0 4 -2 4l-2 -4l-15 -79q-2 -8 -8 -8h-151q-4 0 -4 4v3z" />
<glyph unicode="y" horiz-adv-x="353" d="M114 126l-114 467q0 7 5 7h138q6 0 8 -7l22 -150q2 -8 4 -8t4 8l28 152q3 5 6 5h132q5 -1 6 -4l-141 -738q-2 -8 -9 -8h-128q-9 0 -7 9l46 252q2 7 0 15z" />
<glyph unicode="z" horiz-adv-x="308" d="M23 159l111 275q2 4 -3 4h-104q-7 0 -7 8v148q0 6 6 6h254q11 0 9 -10v-141q0 -6 -3 -9l-109 -271q-1 -6 4 -6h101q6 0 6 -5v-152q0 -6 -5 -6h-259q-6 0 -4 6v142q0 6 3 11z" />
<glyph unicode="{" horiz-adv-x="214" d="M176 276v-205q0 -5 3.5 -6t19.5 -1q6 0 6 -7v-100q0 -6 -6 -6h-72q-37 0 -64.5 29.5t-27.5 74.5v255q0 16 -4.5 20t-16.5 4q-5 0 -5 4v84q0 4 16 4q10 0 10 20v248q0 46 27 76t66 30h72q5 0 5 -5v-103q0 -4 -3.5 -5t-20.5 -1q-5 0 -5 -7v-190q0 -83 -63 -103q-9 -4 -9 -6 t9 -5q28 -8 45.5 -34.5t17.5 -64.5z" />
<glyph unicode="|" horiz-adv-x="323" d="M80 828h162v-1103h-162v1103z" />
<glyph unicode="}" horiz-adv-x="214" d="M38 71v205q0 38 17.5 64.5t45.5 34.5q9 3 9 5t-9 6q-63 20 -63 103v190q0 7 -5 7q-23 1 -24 6v103q0 5 5 5h72q39 0 66 -30t27 -76v-248q0 -20 10 -20q16 0 16 -4v-84q0 -4 -5 -4q-12 0 -16.5 -4t-4.5 -20v-255q0 -45 -27.5 -74.5t-64.5 -29.5h-72q-6 0 -6 6v100q0 7 6 7 q16 0 19.5 1t3.5 6z" />
<glyph unicode="~" d="M367 378l59 -51q-19 -49 -53.5 -82.5t-71.5 -33.5q-43 0 -88 36q-3 2 -13.5 10.5t-13.5 10.5t-10.5 6.5t-13.5 5.5t-13 1q-13 0 -23.5 -7.5t-15.5 -15t-13 -23t-12 -21.5l-60 51q19 48 53.5 80.5t77.5 32.5q40 0 85 -29q8 -5 19 -13t17 -12t13 -7.5t13 -3.5q7 0 14 3 t11.5 6.5t10.5 11.5t9 13l10 16q7 11 9 15z" />
<glyph unicode="&#xa1;" horiz-adv-x="216" d="M179 742v-128q0 -11 -11 -11h-122q-10 0 -10 12v124q0 4 3.5 7.5t6.5 3.5h123q10 0 10 -8zM15 10l22 551q0 4 3.5 7.5t7.5 3.5h120q4 0 7.5 -4.5t3.5 -8.5l22 -550q0 -9 -11 -9h-167q-8 0 -8 10z" />
<glyph unicode="&#xa2;" horiz-adv-x="364" d="M207 322l133 -7q11 -2 11 -12q0 -25 -0.5 -38t-3 -38t-7 -40t-14.5 -35t-24 -32.5t-35.5 -24.5t-49.5 -18l-1 -79q0 -8 -7 -8h-72q-8 0 -8 8l-1 81q-52 16 -83 65t-31 120v236q0 56 30.5 102.5t84.5 62.5v76q0 9 7 9h73q8 0 8 -9v-73q61 -13 97.5 -64.5t36.5 -113.5 q0 -38 -1.5 -46t-10.5 -9l-131 -7q-5 -1 -9 3t-4 9v73q0 21 -15 21q-6 0 -11 -6t-5 -14v-266q0 -9 5 -14.5t11 -5.5q16 0 16 19v64q0 11 11 11z" />
<glyph unicode="&#xa3;" horiz-adv-x="438" d="M399 470l-155 -7q-8 0 -8 8q0 23 -8 41t-18 18q-7 0 -12 -8t-5 -17q0 -8 7.5 -34.5t17 -55t11.5 -35.5h112q7 0 7 -7v-77q0 -8 -6 -8h-112q-6 -43 -34 -80h218q8 0 8 -9v-191q0 -8 -8 -8h-389h-2q-6 0 -8 8v180q0 7 5 11q51 30 51 89q-44 0 -53.5 1t-9.5 7v78q0 4 7 5 t40 1q-47 72 -47 151q0 91 55.5 150t150.5 59q92 0 144.5 -64.5t52.5 -160.5q0 -31 -1.5 -37.5t-10.5 -7.5z" />
<glyph unicode="&#xa4;" horiz-adv-x="459" d="M430 141l-58 -54l-57 69q-36 -27 -85 -27q-54 0 -86 30l-56 -72l-59 54l64 72q-37 53 -37 133q0 86 38 132l-65 71l61 56l53 -70q35 30 86 30q57 0 88 -29l55 71l57 -58l-65 -71q41 -46 41 -132q0 -82 -40 -133zM232 462h-3q-33 0 -54.5 -33t-21.5 -83t21.5 -82t57.5 -32 q34 0 55 32.5t21 81.5q0 51 -20.5 83.5t-55.5 32.5z" />
<glyph unicode="&#xa5;" horiz-adv-x="496" d="M497 727l-127 -409q42 0 51.5 -1t9.5 -7v-63q0 -9 -10 -9h-64v-48h64q10 0 10 -8v-63q0 -9 -10 -9h-64v-98q-2 -12 -14 -12h-195q-10 0 -12 11v99h-64q-10 0 -10 9v63q0 8 9 8h65v48h-64q-10 0 -10 9v63q0 6 9 7t52 1l-123 413q-2 9 6 9h182q8 0 11 -10l48 -207 q2 -8 5 -8q5 0 5 7l46 205q4 13 12 13h174q5 0 7 -4t1 -9z" />
<glyph unicode="&#xa6;" horiz-adv-x="323" d="M80 746h162v-387h-162v387zM80 194h162v-386h-162v386z" />
<glyph unicode="&#xa7;" horiz-adv-x="510" d="M426 721l-24 -136q-35 21 -90 21q-22 0 -36.5 -5.5t-17.5 -9.5t-3 -6q0 -20 87 -51q75 -37 104 -78.5t29 -94.5q0 -71 -70 -137q17 -13 29.5 -44t12.5 -56q0 -80 -62.5 -132t-148.5 -52q-109 0 -165 35l26 140q19 -13 52 -24t61 -11q64 0 64 34q0 6 -1.5 10t-5.5 7 t-8 5.5t-12.5 5.5t-16.5 5l-20 5q-14 4 -25 8q-146 42 -146 175q0 40 22 76.5t59 51.5q-40 51 -40 104q0 91 57 137t157 46q76 0 132 -29zM195 365q0 -29 55 -49l25 -9q17 -6 26.5 -10t13.5 -8q11 4 11 33q0 18 -17 34.5t-40 23.5q-4 1 -59 17q-15 -11 -15 -32z" />
<glyph unicode="&#xa8;" horiz-adv-x="348" d="M157 734v-92q0 -7 -8 -7h-88q-7 0 -7 8v89q0 8 7 8h89q7 0 7 -6zM294 734v-92q0 -7 -8 -7h-88q-7 0 -7 8v89q0 8 7 8h89q7 0 7 -6z" />
<glyph unicode="&#xa9;" horiz-adv-x="457" d="M14 227v296q0 111 62 172.5t152 61.5t152.5 -61.5t62.5 -172.5v-296q0 -111 -62 -172.5t-153 -61.5q-90 0 -152 61.5t-62 172.5zM44 525v-300q0 -92 53 -148t131 -56q79 0 132 56t53 148v300q0 93 -53.5 148.5t-131.5 55.5t-131 -55.5t-53 -148.5zM81 311v119 q0 81 41.5 127t109.5 46t109 -46.5t41 -114.5v-8q0 -3 -0.5 -5t-2 -2.5t-3.5 -0.5l-120 -6q-12 0 -12 12q0 32 -2.5 40.5t-14.5 8.5q-15 0 -15 -20v-167q0 -20 15 -20q17 0 17 19q0 42 1 51t6 9l124 -7q5 0 5 -5q0 -54 -14.5 -93t-32 -57t-43 -28.5t-37.5 -11.5t-25 -1 q-66 0 -106.5 47t-40.5 114z" />
<glyph unicode="&#xaa;" horiz-adv-x="274" d="M109 624l-86 6q-5 1 -5 29q0 37 31.5 64t81.5 27q53 0 84.5 -25.5t31.5 -69.5v-156q0 -5 17 -5q4 0 4 -39q0 -27 -18 -47t-44 -20q-36 0 -54 23q-3 5 -6 5q-1 0 -7 -6q-17 -21 -54 -21q-20 0 -34.5 9t-21.5 19.5t-10.5 29.5t-4 30t-0.5 29q0 63 82 95q27 11 39 19.5 t12 19.5q0 20 -16 20q-8 0 -11.5 -5t-4 -10t-0.5 -16q0 -7 -6 -5zM114 514v-26q0 -12 12 -12q20 0 20 25v39q0 8 -9 8q-23 -2 -23 -34z" />
<glyph unicode="&#xab;" horiz-adv-x="298" d="M283 504v-76q0 -5 -20.5 -28.5t-20.5 -26.5q0 -1 2 -3t12 -15l18 -24q9 -11 9 -12v-76q0 -5 -5 -5q-3 0 -5 2l-105 91q-5 3 -5 9v66q0 7 5 10l105 91q2 2 5 2q5 0 5 -5zM135 504v-76q0 -5 -20.5 -28.5t-20.5 -26.5q0 -1 2 -3t12 -15l18 -24q9 -11 9 -12v-76q0 -5 -5 -5 q-3 0 -5 2l-105 91q-5 3 -5 9v66q0 7 5 10l105 91q2 2 5 2q5 0 5 -5z" />
<glyph unicode="&#xac;" d="M414 149h-103v177h-273v107h376v-284z" />
<glyph unicode="&#xad;" horiz-adv-x="262" d="M20 430h222v-123h-222v123z" />
<glyph unicode="&#xae;" horiz-adv-x="457" d="M14 227v296q0 111 62 172.5t152 61.5t152.5 -61.5t62.5 -172.5v-296q0 -111 -62 -172.5t-153 -61.5q-90 0 -152 61.5t-62 172.5zM93 603h146q47 0 86 -31.5t39 -82.5q0 -91 -68 -100v-2q23 -6 38.5 -15t23.5 -17.5t12 -25.5t4.5 -28t0.5 -35q0 -13 17 -20q6 -2 6 -8 q0 -29 -10 -48t-26 -26.5t-27 -10t-23 -2.5q-36 0 -57 22.5t-21 64.5v92q0 29 -17 29q-4 0 -4 -7v-192q0 -7 -8 -7h-111q-7 0 -7 8v435q0 7 6 7zM207 476v-44q0 -16 8 -16q12 0 12 44q0 10 -5 16t-10 6t-5 -6zM44 525v-300q0 -92 53 -148t131 -56q79 0 132 56t53 148v300 q0 93 -53.5 148.5t-131.5 55.5t-131 -55.5t-53 -148.5z" />
<glyph unicode="&#xaf;" horiz-adv-x="349" d="M283 709v-65q0 -9 -9 -9h-200q-8 0 -8 10v61q0 4 3 7t5 3h200q9 0 9 -7z" />
<glyph unicode="&#xb0;" horiz-adv-x="373" d="M183 745h2q71 0 111 -54t40 -127q0 -84 -44 -133.5t-109 -49.5q-62 0 -105 49.5t-43 133.5q0 81 43 131t105 50zM185 679h-1q-34 0 -53 -31.5t-19 -82.5q0 -52 20 -84.5t53 -32.5q34 0 53 31t19 82q0 54 -18 86t-54 32z" />
<glyph unicode="&#xb1;" d="M408 312h-132v-195h-105v195h-133v107h133v189h105v-189h132v-107zM413 -23h-370v105h370v-105z" />
<glyph unicode="&#xb2;" horiz-adv-x="294" d="M154 430h120q5 0 5 -5v-114q0 -6 -6 -6h-252q-6 0 -6 5v115q0 8 6 17q19 26 56.5 60t61 60t23.5 47q0 15 -13 15q-16 0 -21 -31q0 -6 -5 -4l-101 7q-5 0 -6 4t-1 20q0 56 37 93t98 37t97.5 -38.5t36.5 -94.5q0 -62 -31 -99t-100 -81q-3 -1 -3 -4t4 -3z" />
<glyph unicode="&#xb3;" horiz-adv-x="312" d="M107 500v71q0 7 5 8t28 1q32 0 32 18q0 16 -0.5 22.5t-4 11t-11.5 4.5q-17 0 -17 -31q0 -5 -7 -5l-106 7q-7 0 -7 4q0 39 12.5 67t28 41.5t38 21t34 8.5t24.5 1q59 0 98 -34t39 -83q0 -34 -16.5 -59t-38.5 -35q-7 -3 -7 -4q0 -2 9 -5q21 -6 39.5 -31t18.5 -60 q0 -57 -41 -95.5t-101 -38.5t-101 38t-41 95q0 27 4 27l117 7q5 0 5 -6q0 -15 0.5 -21.5t4 -11.5t11.5 -5q16 0 16 21q0 30 -4.5 37.5t-27.5 7.5q-32 2 -33 6z" />
<glyph unicode="&#xb4;" horiz-adv-x="348" d="M164 635h-75q-6 0 -6 7q0 2 2 6l68 112q5 7 12 7h91q9 0 9 -8q0 -1 -2 -3l-88 -115q-5 -6 -11 -6z" />
<glyph unicode="&#xb5;" horiz-adv-x="360" d="M163 -15v-126q0 -8 -8 -8h-127q-2 0 -5 3t-3 7v729q0 10 8 10h126q8 0 8 -8v-382q0 -20 16 -20t16 20v382q0 8 7 8h130q9 0 9 -7v-586q0 -7 -8 -7h-118q-4 0 -10 17.5t-8 17.5q-9 0 -21 -14t-12 -36z" />
<glyph unicode="&#xb6;" horiz-adv-x="489" d="M270 -54h-107v333h-4q-14 0 -34 10t-43.5 32.5t-39.5 69.5q-15 44 -15 103v7q1 118 70 179.5t192 61.5q98 0 140 -13v-783h-107v678h-52v-678z" />
<glyph unicode="&#xb7;" horiz-adv-x="183" d="M163 439v-128q0 -11 -11 -11h-122q-10 0 -10 12v124q0 4 3.5 7.5t6.5 3.5h123q10 0 10 -8z" />
<glyph unicode="&#xb8;" horiz-adv-x="348" d="M110 -68l35 91l58 -3l-16 -45q41 -11 62 -35t21 -55q0 -40 -29.5 -64.5t-74.5 -24.5q-30 0 -67 12.5t-37 21.5q0 5 10 30t15 25q12 0 57 -15q10 -2 14 -2q21 0 21 18q0 11 -9.5 16t-53.5 19q-9 3 -6 11z" />
<glyph unicode="&#xb9;" horiz-adv-x="184" d="M33 310v304q0 2 -11.5 4t-11.5 4v123q0 5 6 5h142q5 0 5 -5v-435q0 -5 -4 -5h-122q-4 0 -4 5z" />
<glyph unicode="&#xba;" horiz-adv-x="264" d="M14 494v150q0 46 31.5 76t86.5 30q54 0 86 -30.5t32 -75.5v-150q0 -45 -32.5 -75t-85.5 -30q-54 0 -86 30t-32 75zM116 633v-127q0 -20 16 -20t16 21v127q0 19 -16 19t-16 -20z" />
<glyph unicode="&#xbb;" horiz-adv-x="298" d="M15 428v76q0 5 5 5q3 0 5 -2l105 -91q5 -3 5 -10v-66q0 -6 -5 -9l-105 -91q-2 -2 -5 -2q-5 0 -5 5v76q0 1 9 12l18 24q10 13 12 15t2 3q0 3 -20.5 26.5t-20.5 28.5zM163 428v76q0 5 5 5q3 0 5 -2l105 -91q5 -3 5 -10v-66q0 -6 -5 -9l-105 -91q-2 -2 -5 -2q-5 0 -5 5v76 q0 1 9 12l18 24q10 13 12 15t2 3q0 3 -20.5 26.5t-20.5 28.5z" />
<glyph unicode="&#xbc;" horiz-adv-x="722" d="M655 0h-135v74h-140v97l142 255h133v-241h37v-111h-37v-74zM520 185v25v59l-1 2q-3 -5 -7.5 -16t-7.5 -16l-40 -53l1 -1h55zM254 -5h-111l286 725h110zM235 290h-147v297h-3l-46 -23l-30 105l89 50h137v-429z" />
<glyph unicode="&#xbd;" horiz-adv-x="750" d="M254 9h-111l285 726h110zM235 305h-147v297h-3l-46 -23l-30 105l89 50h137v-429zM433 15v92l61 74q42 51 55.5 73t13.5 38q0 13 -12.5 21.5t-29.5 8.5q-27 0 -60 -22l-27 113q15 11 56 23.5t82 12.5q62 0 104 -34.5t42 -97.5q0 -17 -1.5 -31.5t-8.5 -29.5t-9.5 -23 t-15.5 -23l-16 -20l-21 -22l-21 -22v-1h95v-130h-287z" />
<glyph unicode="&#xbe;" horiz-adv-x="750" d="M682 0h-135v74h-140v97l141 255h134v-241h36v-111h-36v-74zM547 185v25v59l-1 2q-4 -5 -8 -16.5t-7 -15.5l-40 -53l1 -1h55zM282 -5h-112l285 725h111zM44 592l-19 109q39 23 126 23q53 0 94.5 -27.5t41.5 -81.5q0 -65 -73 -103v-2q32 -6 57 -34.5t25 -58.5 q0 -62 -44.5 -97t-116.5 -35q-89 0 -120 19l17 112q24 -18 62 -18q23 0 37 8.5t14 20.5q0 16 -18.5 25.5t-41.5 9.5h-20l1 101h13q62 0 62 21q0 9 -10 17.5t-35 8.5q-26 0 -52 -18z" />
<glyph unicode="&#xbf;" horiz-adv-x="422" d="M262 242l150 -7q9 0 9 -10q0 -99 -59 -162t-155 -63t-151.5 62.5t-55.5 162.5q0 98 94 187q35 33 55 74t24 69q1 16 14 16h125q5 0 9.5 -5.5t4.5 -11.5q0 -138 -59 -210q-64 -77 -64 -119q0 -27 17 -27q19 0 27 32q3 12 15 12zM321 742v-128q0 -11 -11 -11h-122 q-10 0 -10 12v124q0 4 3.5 7.5t6.5 3.5h123q10 0 10 -8z" />
<glyph unicode="&#xc0;" horiz-adv-x="492" d="M146 750h195q11 0 13 -13l137 -715q1 -3 1 -6q0 -5 -3 -10q-4 -6 -12 -6h-162q-11 0 -13 10l-20 150q-2 8 -10 8h-54q-7 0 -9 -10l-19 -147q-2 -11 -13 -11h-165q-12 0 -12 12v5l134 721q2 12 12 12zM266 277l-13 96q-3 23 -7 23t-7 -23l-13 -95q-2 -10 6 -10q25 0 30 1 t4 8zM331 785h-75q-4 0 -10 6l-89 115q-1 1 -1 4q0 8 8 8h91q8 0 12 -8l68 -112q2 -4 2 -6q0 -7 -6 -7z" />
<glyph unicode="&#xc1;" horiz-adv-x="492" d="M146 750h195q11 0 13 -13l137 -715q1 -3 1 -6q0 -5 -3 -10q-4 -6 -12 -6h-162q-11 0 -13 10l-20 150q-2 8 -10 8h-54q-7 0 -9 -10l-19 -147q-2 -11 -13 -11h-165q-12 0 -12 12v5l134 721q2 12 12 12zM266 277l-13 96q-3 23 -7 23t-7 -23l-13 -95q-2 -10 6 -10q25 0 30 1 t4 8zM236 785h-75q-6 0 -6 7q0 2 2 6l68 112q5 7 12 7h91q9 0 9 -8q0 -1 -2 -3l-88 -115q-5 -6 -11 -6z" />
<glyph unicode="&#xc2;" horiz-adv-x="492" d="M146 750h195q11 0 13 -13l137 -715q1 -3 1 -6q0 -5 -3 -10q-4 -6 -12 -6h-162q-11 0 -13 10l-20 150q-2 8 -10 8h-54q-7 0 -9 -10l-19 -147q-2 -11 -13 -11h-165q-12 0 -12 12v5l134 721q2 12 12 12zM266 277l-13 96q-3 23 -7 23t-7 -23l-13 -95q-2 -10 6 -10q25 0 30 1 t4 8zM377 785h-77q-5 0 -28 20.5t-26 20.5t-4 -1q-5 -5 -26.5 -22.5t-23.5 -17.5h-77q-5 0 -5 5q0 3 3 6l90 105q4 4 10 4h66q4 0 10 -4l91 -106q2 -2 2 -5q0 -5 -5 -5z" />
<glyph unicode="&#xc3;" horiz-adv-x="492" d="M146 750h195q11 0 13 -13l137 -715q1 -3 1 -6q0 -5 -3 -10q-4 -6 -12 -6h-162q-11 0 -13 10l-20 150q-2 8 -10 8h-54q-7 0 -9 -10l-19 -147q-2 -11 -13 -11h-165q-12 0 -12 12v5l134 721q2 12 12 12zM266 277l-13 96q-3 23 -7 23t-7 -23l-13 -95q-2 -10 6 -10q25 0 30 1 t4 8zM301 899l67 -12q3 0 3 -5q0 -25 -21.5 -59.5t-57.5 -34.5q-17 0 -40 10.5t-33 10.5q-21 0 -25 -20q0 -2 -1 -3t-2 -1h-1l-66 11q-3 0 -3 5q0 9 5.5 28t25 41.5t47.5 22.5q22 0 43 -10.5t33 -10.5q17 0 22 20q0 7 4 7z" />
<glyph unicode="&#xc4;" horiz-adv-x="492" d="M146 750h195q11 0 13 -13l137 -715q1 -3 1 -6q0 -5 -3 -10q-4 -6 -12 -6h-162q-11 0 -13 10l-20 150q-2 8 -10 8h-54q-7 0 -9 -10l-19 -147q-2 -11 -13 -11h-165q-12 0 -12 12v5l134 721q2 12 12 12zM266 277l-13 96q-3 23 -7 23t-7 -23l-13 -95q-2 -10 6 -10q25 0 30 1 t4 8zM229 884v-92q0 -7 -8 -7h-88q-7 0 -7 8v89q0 8 7 8h89q7 0 7 -6zM366 884v-92q0 -7 -8 -7h-88q-7 0 -7 8v89q0 8 7 8h89q7 0 7 -6z" />
<glyph unicode="&#xc5;" horiz-adv-x="492" d="M266 277l-13 96q-3 23 -7 23t-7 -23l-13 -95q-2 -10 6 -10q25 0 30 1t4 8zM209 158l-19 -147q-2 -11 -13 -11h-165q-12 0 -12 12v5l134 721q2 12 12 12h39v2q-29 17 -29 75q0 33 24.5 53t66.5 20t66 -20t24 -53q0 -57 -29 -75v-2h33q11 0 13 -13l137 -715q1 -3 1 -6 q0 -5 -3 -10q-4 -6 -12 -6h-162q-11 0 -13 10l-20 150q-2 8 -10 8h-54q-7 0 -9 -10zM247 854q-16 0 -16 -20q0 -40 2 -48.5t14 -8.5q11 0 13 8.5t2 48.5q0 20 -15 20z" />
<glyph unicode="&#xc6;" horiz-adv-x="688" d="M222 750h434q10 0 10 -11v-180q0 -10 -11 -10h-167q-7 0 -7 -8v-56q0 -6 7 -6h79q7 0 7 -7v-183q0 -8 -8 -8h-81q-7 0 -7 -8v-59q0 -7 6 -7h173q11 0 11 -11v-184q0 -12 -11 -12h-358q-11 0 -11 14v142q0 12 -8 12h-40q-7 0 -9 -10l-33 -147q-3 -11 -13 -11h-173 q-6 0 -10 5q-2 3 -2 7q0 2 1 5l208 721q1 4 5 8t8 4zM277 390l-27 -113q-2 -9 7 -9h26q5 0 5 7v118q0 12 -3 12q-4 0 -8 -15z" />
<glyph unicode="&#xc7;" horiz-adv-x="474" d="M259 336l189 -7q8 0 8 -8q0 -158 -53 -235t-144 -86l-9 -25q41 -11 62 -35t21 -55q0 -40 -29.5 -64.5t-74.5 -24.5q-30 0 -67 12.5t-37 21.5q0 5 10 30t15 25q12 0 57 -15q10 -2 14 -2q21 0 21 18q0 11 -9.5 16t-53.5 19q-9 3 -6 11l26 68q-86 13 -135.5 88t-49.5 177 v199q0 136 59.5 212t162.5 76q105 0 164 -77t59 -191q0 -21 -1 -25.5t-8 -4.5l-185 -7q-7 0 -12.5 5.5t-5.5 14.5v63q0 19 -16 19q-6 0 -11 -5t-5 -13v-311q0 -17 16 -17t16 18v101q0 5 3.5 10t8.5 4z" />
<glyph unicode="&#xc8;" horiz-adv-x="420" d="M20 13v724q0 5 4 9t9 4h355q10 0 10 -11v-180q0 -10 -11 -10h-167q-7 0 -7 -7v-56q0 -7 7 -7h79q7 0 7 -7v-182q0 -9 -8 -9h-81q-7 0 -7 -8v-59q0 -7 6 -7h173q11 0 11 -10v-186q0 -11 -11 -11h-358q-11 0 -11 13zM295 785h-75q-4 0 -10 6l-89 115q-1 1 -1 4q0 8 8 8h91 q8 0 12 -8l68 -112q2 -4 2 -6q0 -7 -6 -7z" />
<glyph unicode="&#xc9;" horiz-adv-x="420" d="M20 13v724q0 5 4 9t9 4h355q10 0 10 -11v-180q0 -10 -11 -10h-167q-7 0 -7 -7v-56q0 -7 7 -7h79q7 0 7 -7v-182q0 -9 -8 -9h-81q-7 0 -7 -8v-59q0 -7 6 -7h173q11 0 11 -10v-186q0 -11 -11 -11h-358q-11 0 -11 13zM200 785h-75q-6 0 -6 7q0 2 2 6l68 112q5 7 12 7h91 q9 0 9 -8q0 -1 -2 -3l-88 -115q-5 -6 -11 -6z" />
<glyph unicode="&#xca;" horiz-adv-x="420" d="M20 13v724q0 5 4 9t9 4h355q10 0 10 -11v-180q0 -10 -11 -10h-167q-7 0 -7 -7v-56q0 -7 7 -7h79q7 0 7 -7v-182q0 -9 -8 -9h-81q-7 0 -7 -8v-59q0 -7 6 -7h173q11 0 11 -10v-186q0 -11 -11 -11h-358q-11 0 -11 13zM341 785h-77q-5 0 -28 20.5t-26 20.5t-4 -1 q-5 -5 -26.5 -22.5t-23.5 -17.5h-77q-5 0 -5 5q0 3 3 6l90 105q4 4 10 4h66q4 0 10 -4l91 -106q2 -2 2 -5q0 -5 -5 -5z" />
<glyph unicode="&#xcb;" horiz-adv-x="420" d="M20 13v724q0 5 4 9t9 4h355q10 0 10 -11v-180q0 -10 -11 -10h-167q-7 0 -7 -7v-56q0 -7 7 -7h79q7 0 7 -7v-182q0 -9 -8 -9h-81q-7 0 -7 -8v-59q0 -7 6 -7h173q11 0 11 -10v-186q0 -11 -11 -11h-358q-11 0 -11 13zM193 884v-92q0 -7 -8 -7h-88q-7 0 -7 8v89q0 8 7 8h89 q7 0 7 -6zM330 884v-92q0 -7 -8 -7h-88q-7 0 -7 8v89q0 8 7 8h89q7 0 7 -6z" />
<glyph unicode="&#xcc;" horiz-adv-x="232" d="M200 0h-167q-13 0 -13 15v725q0 10 9 10h171q12 0 12 -10v-727q0 -13 -12 -13zM201 785h-75q-4 0 -10 6l-89 115q-1 1 -1 4q0 8 8 8h91q8 0 12 -8l68 -112q2 -4 2 -6q0 -7 -6 -7z" />
<glyph unicode="&#xcd;" horiz-adv-x="232" d="M200 0h-167q-13 0 -13 15v725q0 10 9 10h171q12 0 12 -10v-727q0 -13 -12 -13zM106 785h-75q-6 0 -6 7q0 2 2 6l68 112q5 7 12 7h91q9 0 9 -8q0 -1 -2 -3l-88 -115q-5 -6 -11 -6z" />
<glyph unicode="&#xce;" horiz-adv-x="232" d="M200 0h-167q-13 0 -13 15v725q0 10 9 10h171q12 0 12 -10v-727q0 -13 -12 -13zM247 785h-77q-5 0 -28 20.5t-26 20.5t-4 -1q-5 -5 -26.5 -22.5t-23.5 -17.5h-77q-5 0 -5 5q0 3 3 6l90 105q4 4 10 4h66q4 0 10 -4l91 -106q2 -2 2 -5q0 -5 -5 -5z" />
<glyph unicode="&#xcf;" horiz-adv-x="232" d="M200 0h-167q-13 0 -13 15v725q0 10 9 10h171q12 0 12 -10v-727q0 -13 -12 -13zM99 884v-92q0 -7 -8 -7h-88q-7 0 -7 8v89q0 8 7 8h89q7 0 7 -6zM236 884v-92q0 -7 -8 -7h-88q-7 0 -7 8v89q0 8 7 8h89q7 0 7 -6z" />
<glyph unicode="&#xd0;" horiz-adv-x="494" d="M48 750h179q120 0 186.5 -73.5t66.5 -209.5v-186q0 -124 -66 -202.5t-180 -78.5h-187q-12 0 -12 13v301h-25q-10 0 -10 8v122q0 10 8 10h27v281q0 15 13 15zM247 546v-333q0 -8 6 -8q26 0 26 29v291q0 15 -9 23q-6 6 -17 6q-6 0 -6 -8z" />
<glyph unicode="&#xd1;" horiz-adv-x="482" d="M20 14v723q0 13 11 13h169q11 0 14 -12l60 -225q3 -12 7 -12q6 0 6 13v223q0 13 12 13h150q13 0 13 -14v-723q0 -13 -11 -13h-187q-9 0 -11 10l-44 180q-3 14 -9 14q-5 0 -5 -14v-177q0 -13 -13 -13h-152q-10 0 -10 14zM296 899l67 -12q3 0 3 -5q0 -25 -21.5 -59.5 t-57.5 -34.5q-17 0 -40 10.5t-33 10.5q-21 0 -25 -20q0 -2 -1 -3t-2 -1h-1l-66 11q-3 0 -3 5q0 9 5.5 28t25 41.5t47.5 22.5q22 0 43 -10.5t33 -10.5q17 0 22 20q0 7 4 7z" />
<glyph unicode="&#xd2;" horiz-adv-x="444" d="M14 226v296q0 111 59.5 170.5t148.5 59.5t148.5 -59.5t59.5 -170.5v-296q0 -110 -60 -169.5t-148 -59.5t-148 59.5t-60 169.5zM206 519v-290q0 -26 16 -26t16 26v290q0 27 -16 27t-16 -27zM307 785h-75q-4 0 -10 6l-89 115q-1 1 -1 4q0 8 8 8h91q8 0 12 -8l68 -112 q2 -4 2 -6q0 -7 -6 -7z" />
<glyph unicode="&#xd3;" horiz-adv-x="444" d="M14 226v296q0 111 59.5 170.5t148.5 59.5t148.5 -59.5t59.5 -170.5v-296q0 -110 -60 -169.5t-148 -59.5t-148 59.5t-60 169.5zM206 519v-290q0 -26 16 -26t16 26v290q0 27 -16 27t-16 -27zM212 785h-75q-6 0 -6 7q0 2 2 6l68 112q5 7 12 7h91q9 0 9 -8q0 -1 -2 -3 l-88 -115q-5 -6 -11 -6z" />
<glyph unicode="&#xd4;" horiz-adv-x="444" d="M14 226v296q0 111 59.5 170.5t148.5 59.5t148.5 -59.5t59.5 -170.5v-296q0 -110 -60 -169.5t-148 -59.5t-148 59.5t-60 169.5zM206 519v-290q0 -26 16 -26t16 26v290q0 27 -16 27t-16 -27zM353 785h-77q-5 0 -28 20.5t-26 20.5t-4 -1q-5 -5 -26.5 -22.5t-23.5 -17.5h-77 q-5 0 -5 5q0 3 3 6l90 105q4 4 10 4h66q4 0 10 -4l91 -106q2 -2 2 -5q0 -5 -5 -5z" />
<glyph unicode="&#xd5;" horiz-adv-x="444" d="M14 226v296q0 111 59.5 170.5t148.5 59.5t148.5 -59.5t59.5 -170.5v-296q0 -110 -60 -169.5t-148 -59.5t-148 59.5t-60 169.5zM206 519v-290q0 -26 16 -26t16 26v290q0 27 -16 27t-16 -27zM277 899l67 -12q3 0 3 -5q0 -25 -21.5 -59.5t-57.5 -34.5q-17 0 -40 10.5 t-33 10.5q-21 0 -25 -20q0 -2 -1 -3t-2 -1h-1l-66 11q-3 0 -3 5q0 9 5.5 28t25 41.5t47.5 22.5q22 0 43 -10.5t33 -10.5q17 0 22 20q0 7 4 7z" />
<glyph unicode="&#xd6;" horiz-adv-x="444" d="M14 226v296q0 111 59.5 170.5t148.5 59.5t148.5 -59.5t59.5 -170.5v-296q0 -110 -60 -169.5t-148 -59.5t-148 59.5t-60 169.5zM206 519v-290q0 -26 16 -26t16 26v290q0 27 -16 27t-16 -27zM205 884v-92q0 -7 -8 -7h-88q-7 0 -7 8v89q0 8 7 8h89q7 0 7 -6zM342 884v-92 q0 -7 -8 -7h-88q-7 0 -7 8v89q0 8 7 8h89q7 0 7 -6z" />
<glyph unicode="&#xd7;" d="M431 103l-76 -64l-134 166l-133 -165l-78 63l152 177l-145 174l77 68l138 -166l126 166l75 -67l-147 -174z" />
<glyph unicode="&#xd8;" horiz-adv-x="444" d="M140 12l-33 -62q-2 -5 -7 -5l-2 1h-2l-81 47q-5 3 -5 7q0 5 3 8l39 75q-38 68 -38 143v296q0 111 59.5 170.5t148.5 59.5q40 0 85 -18l35 64q3 5 7 5q3 0 4 -1l82 -47q4 -3 4 -7q0 -2 -2 -8l-43 -80q36 -57 36 -138v-296q0 -110 -60 -169.5t-148 -59.5q-46 0 -82 15z M206 519v-290q0 -26 16 -26t16 26v290q0 27 -16 27t-16 -27z" />
<glyph unicode="&#xd9;" horiz-adv-x="456" d="M30 750h170q11 0 11 -11v-508q0 -22 17 -22t17 21v510q0 10 11 10h169q11 0 11 -10v-536q0 -84 -56.5 -144t-151.5 -60t-151.5 60.5t-56.5 143.5v535q0 11 10 11zM313 785h-75q-4 0 -10 6l-89 115q-1 1 -1 4q0 8 8 8h91q8 0 12 -8l68 -112q2 -4 2 -6q0 -7 -6 -7z" />
<glyph unicode="&#xda;" horiz-adv-x="456" d="M30 750h170q11 0 11 -11v-508q0 -22 17 -22t17 21v510q0 10 11 10h169q11 0 11 -10v-536q0 -84 -56.5 -144t-151.5 -60t-151.5 60.5t-56.5 143.5v535q0 11 10 11zM218 785h-75q-6 0 -6 7q0 2 2 6l68 112q5 7 12 7h91q9 0 9 -8q0 -1 -2 -3l-88 -115q-5 -6 -11 -6z" />
<glyph unicode="&#xdb;" horiz-adv-x="456" d="M30 750h170q11 0 11 -11v-508q0 -22 17 -22t17 21v510q0 10 11 10h169q11 0 11 -10v-536q0 -84 -56.5 -144t-151.5 -60t-151.5 60.5t-56.5 143.5v535q0 11 10 11zM359 785h-77q-5 0 -28 20.5t-26 20.5t-4 -1q-5 -5 -26.5 -22.5t-23.5 -17.5h-77q-5 0 -5 5q0 3 3 6l90 105 q4 4 10 4h66q4 0 10 -4l91 -106q2 -2 2 -5q0 -5 -5 -5z" />
<glyph unicode="&#xdc;" horiz-adv-x="456" d="M30 750h170q11 0 11 -11v-508q0 -22 17 -22t17 21v510q0 10 11 10h169q11 0 11 -10v-536q0 -84 -56.5 -144t-151.5 -60t-151.5 60.5t-56.5 143.5v535q0 11 10 11zM211 884v-92q0 -7 -8 -7h-88q-7 0 -7 8v89q0 8 7 8h89q7 0 7 -6zM348 884v-92q0 -7 -8 -7h-88q-7 0 -7 8 v89q0 8 7 8h89q7 0 7 -6z" />
<glyph unicode="&#xdd;" horiz-adv-x="497" d="M127 315l-127 427q-1 2 -1 4q0 4 7 4h182q8 0 11 -10l48 -207q2 -8 5 -8q5 0 5 8l46 204q4 13 12 13h174q5 0 7 -4t1 -8l-131 -421q-9 -31 -9 -53v-251q-2 -13 -14 -13h-195q-10 0 -12 12v254q0 21 -9 49zM239 785h-75q-6 0 -6 7q0 2 2 6l68 112q5 7 12 7h91q9 0 9 -8 q0 -1 -2 -3l-88 -115q-4 -6 -11 -6z" />
<glyph unicode="&#xde;" horiz-adv-x="466" d="M34 750h178q16 0 16 -15v-139q0 -3 3 -6t6 -3q47 0 85.5 -11.5t61.5 -31t39.5 -41t24 -44t10.5 -37.5t3 -25q0 -56 -16 -98.5t-37.5 -64t-49 -35t-45 -16.5t-31.5 -3q-38 0 -46 -1.5t-8 -10.5v-154q0 -14 -17 -14h-175q-16 0 -16 18v715q0 17 14 17zM228 425v-81 q0 -11 13 -11q18 0 18 23v51q0 27 -21 27q-5 0 -7 -1q-3 -1 -3 -8z" />
<glyph unicode="&#xdf;" horiz-adv-x="406" d="M20 11v571q0 77 48.5 130t134.5 53q88 0 136.5 -52.5t48.5 -141.5q0 -35 -1.5 -55t-9.5 -50t-28 -49t-52 -29v-2q94 -30 94 -168q0 -20 -0.5 -33t-3.5 -38.5t-9 -42.5t-19 -38.5t-30.5 -34.5t-45.5 -22t-63 -9q-11 0 -11 9v131q0 2 10 11t10 11v138q0 2 -10 10t-10 10 v133q0 2 9 11t9 12v97q0 30 -24 30t-24 -29v-563q0 -11 -11 -11h-138q-10 0 -10 11z" />
<glyph unicode="&#xe0;" horiz-adv-x="392" d="M159 391l-133 7q-5 0 -6 8t-1 44q0 62 45 106t120 44q79 0 125 -42.5t46 -104.5v-271q0 -6 4 -7t21 -1q7 0 7 -8v-62q0 -39 -29.5 -73t-69.5 -34q-54 0 -79 38q-6 9 -10 9q-3 0 -11 -10q-25 -34 -70 -34q-38 0 -71 33.5t-33 101.5v74q0 99 108 144q52 22 64.5 35.5 t12.5 41.5q0 21 -15 21q-12 0 -14 -8t-2 -44q0 -8 -9 -8zM199 160v97q0 7 -6 8q-7 0 -16.5 -8.5t-9.5 -22.5v-74q0 -17 16 -17t16 17zM281 635h-75q-4 0 -10 6l-89 115q-1 1 -1 4q0 8 8 8h91q8 0 12 -8l68 -112q2 -4 2 -6q0 -7 -6 -7z" />
<glyph unicode="&#xe1;" horiz-adv-x="392" d="M159 391l-133 7q-5 0 -6 8t-1 44q0 62 45 106t120 44q79 0 125 -42.5t46 -104.5v-271q0 -6 4 -7t21 -1q7 0 7 -8v-62q0 -39 -29.5 -73t-69.5 -34q-54 0 -79 38q-6 9 -10 9q-3 0 -11 -10q-25 -34 -70 -34q-38 0 -71 33.5t-33 101.5v74q0 99 108 144q52 22 64.5 35.5 t12.5 41.5q0 21 -15 21q-12 0 -14 -8t-2 -44q0 -8 -9 -8zM199 160v97q0 7 -6 8q-7 0 -16.5 -8.5t-9.5 -22.5v-74q0 -17 16 -17t16 17zM186 635h-75q-6 0 -6 7q0 2 2 6l68 112q5 7 12 7h91q9 0 9 -8q0 -1 -2 -3l-88 -115q-5 -6 -11 -6z" />
<glyph unicode="&#xe2;" horiz-adv-x="392" d="M159 391l-133 7q-5 0 -6 8t-1 44q0 62 45 106t120 44q79 0 125 -42.5t46 -104.5v-271q0 -6 4 -7t21 -1q7 0 7 -8v-62q0 -39 -29.5 -73t-69.5 -34q-54 0 -79 38q-6 9 -10 9q-3 0 -11 -10q-25 -34 -70 -34q-38 0 -71 33.5t-33 101.5v74q0 99 108 144q52 22 64.5 35.5 t12.5 41.5q0 21 -15 21q-12 0 -14 -8t-2 -44q0 -8 -9 -8zM199 160v97q0 7 -6 8q-7 0 -16.5 -8.5t-9.5 -22.5v-74q0 -17 16 -17t16 17zM327 635h-77q-5 0 -28 20.5t-26 20.5t-4 -1q-5 -5 -26.5 -22.5t-23.5 -17.5h-77q-5 0 -5 5q0 3 3 6l90 105q4 4 10 4h66q4 0 10 -4 l91 -106q2 -2 2 -5q0 -5 -5 -5z" />
<glyph unicode="&#xe3;" horiz-adv-x="392" d="M159 391l-133 7q-5 0 -6 8t-1 44q0 62 45 106t120 44q79 0 125 -42.5t46 -104.5v-271q0 -6 4 -7t21 -1q7 0 7 -8v-62q0 -39 -29.5 -73t-69.5 -34q-54 0 -79 38q-6 9 -10 9q-3 0 -11 -10q-25 -34 -70 -34q-38 0 -71 33.5t-33 101.5v74q0 99 108 144q52 22 64.5 35.5 t12.5 41.5q0 21 -15 21q-12 0 -14 -8t-2 -44q0 -8 -9 -8zM199 160v97q0 7 -6 8q-7 0 -16.5 -8.5t-9.5 -22.5v-74q0 -17 16 -17t16 17zM251 749l67 -12q3 0 3 -5q0 -25 -21.5 -59.5t-57.5 -34.5q-17 0 -40 10.5t-33 10.5q-21 0 -25 -20q0 -2 -1 -3t-2 -1h-1l-66 11q-3 0 -3 5 q0 9 5.5 28t25 41.5t47.5 22.5q22 0 43 -10.5t33 -10.5q17 0 22 20q0 7 4 7z" />
<glyph unicode="&#xe4;" horiz-adv-x="392" d="M159 391l-133 7q-5 0 -6 8t-1 44q0 62 45 106t120 44q79 0 125 -42.5t46 -104.5v-271q0 -6 4 -7t21 -1q7 0 7 -8v-62q0 -39 -29.5 -73t-69.5 -34q-54 0 -79 38q-6 9 -10 9q-3 0 -11 -10q-25 -34 -70 -34q-38 0 -71 33.5t-33 101.5v74q0 99 108 144q52 22 64.5 35.5 t12.5 41.5q0 21 -15 21q-12 0 -14 -8t-2 -44q0 -8 -9 -8zM199 160v97q0 7 -6 8q-7 0 -16.5 -8.5t-9.5 -22.5v-74q0 -17 16 -17t16 17zM179 734v-92q0 -7 -8 -7h-88q-7 0 -7 8v89q0 8 7 8h89q7 0 7 -6zM316 734v-92q0 -7 -8 -7h-88q-7 0 -7 8v89q0 8 7 8h89q7 0 7 -6z" />
<glyph unicode="&#xe5;" horiz-adv-x="392" d="M159 391l-133 7q-5 0 -6 8t-1 44q0 62 45 106t120 44q79 0 125 -42.5t46 -104.5v-271q0 -6 4 -7t21 -1q7 0 7 -8v-62q0 -39 -29.5 -73t-69.5 -34q-54 0 -79 38q-6 9 -10 9q-3 0 -11 -10q-25 -34 -70 -34q-38 0 -71 33.5t-33 101.5v74q0 99 108 144q52 22 64.5 35.5 t12.5 41.5q0 21 -15 21q-12 0 -14 -8t-2 -44q0 -8 -9 -8zM199 160v97q0 7 -6 8q-7 0 -16.5 -8.5t-9.5 -22.5v-74q0 -17 16 -17t16 17zM106 727q0 33 24.5 53t66.5 20t66 -20t24 -53q0 -16 -0.5 -24.5t-5.5 -23.5t-13.5 -23t-26.5 -14.5t-44 -6.5q-32 0 -52 8t-27.5 24.5 t-9.5 28t-2 31.5zM181 736q0 -40 2 -48.5t14 -8.5q11 0 13 8.5t2 48.5q0 20 -15 20q-16 0 -16 -20z" />
<glyph unicode="&#xe6;" horiz-adv-x="565" d="M549 230v-64q0 -89 -50.5 -127.5t-129.5 -38.5q-78 0 -114 45q-7 9 -11 9q-2 0 -11 -9q-38 -45 -103 -45q-46 0 -81 33t-35 102v74q0 99 108 144q41 17 59.5 30.5t18.5 31.5q0 14 -0.5 20t-4 11t-11.5 5q-12 0 -14 -7.5t-2 -44.5q0 -8 -9 -8l-133 7q-7 0 -7 10 q0 19 0.5 30.5t3.5 34t9 37.5t18 33.5t29 29.5t44 19t61 8q55 0 96 -22q43 22 93 22q82 0 130 -54t48 -131v-61q0 -9 -9 -9h-167q-6 0 -6 -8v-157q0 -22 16 -22q6 0 11 6t5 16v60q0 10 9 8l129 -7q10 0 10 -11zM200 160v98q0 7 -5 7q-7 1 -17 -7.5t-10 -23.5v-74 q0 -17 17 -17q15 0 15 17zM369 455v-51q0 -4 6 -4q26 0 26 4q0 49 -2.5 60t-14.5 11q-15 0 -15 -20z" />
<glyph unicode="&#xe7;" horiz-adv-x="366" d="M207 249l133 -7q11 -2 11 -12q0 -24 -1 -39t-4.5 -44t-13 -49.5t-24.5 -42.5t-41 -36t-61 -19l-10 -25q41 -11 62 -35t21 -55q0 -40 -29.5 -64.5t-74.5 -24.5q-30 0 -67 12.5t-37 21.5q0 5 10 30t15 25q12 0 57 -15q10 -2 14 -2q21 0 21 18q0 11 -9.5 16t-53.5 19 q-9 3 -6 11l27 68q-61 13 -96.5 64t-35.5 127v236q0 70 45 121.5t121 51.5t123.5 -55.5t47.5 -127.5q0 -37 -1.5 -45.5t-10.5 -9.5l-131 -7q-5 -1 -8.5 3t-3.5 9v74q0 9 -5 14.5t-11 5.5t-11 -6t-5 -14v-266q0 -9 5.5 -14.5t11.5 -5.5t10.5 5.5t4.5 14.5v64q0 10 11 10z" />
<glyph unicode="&#xe8;" horiz-adv-x="378" d="M14 190v248q0 82 51.5 122t120.5 40q82 0 130 -54t48 -131v-61q0 -9 -9 -9h-167q-6 0 -6 -8v-157q0 -22 16 -22t16 21v61q0 8 9 8l129 -7q10 -2 10 -11v-64q0 -89 -50.5 -127.5t-129.5 -38.5t-123.5 51.5t-44.5 138.5zM182 454v-50q0 -5 6 -5q26 0 26 5q0 49 -2.5 60 t-14.5 11q-15 0 -15 -21zM274 635h-75q-4 0 -10 6l-89 115q-1 1 -1 4q0 8 8 8h91q8 0 12 -8l68 -112q2 -4 2 -6q0 -7 -6 -7z" />
<glyph unicode="&#xe9;" horiz-adv-x="378" d="M14 190v248q0 82 51.5 122t120.5 40q82 0 130 -54t48 -131v-61q0 -9 -9 -9h-167q-6 0 -6 -8v-157q0 -22 16 -22t16 21v61q0 8 9 8l129 -7q10 -2 10 -11v-64q0 -89 -50.5 -127.5t-129.5 -38.5t-123.5 51.5t-44.5 138.5zM182 454v-50q0 -5 6 -5q26 0 26 5q0 49 -2.5 60 t-14.5 11q-15 0 -15 -21zM179 635h-75q-6 0 -6 7q0 2 2 6l68 112q5 7 12 7h91q9 0 9 -8q0 -1 -2 -3l-88 -115q-4 -6 -11 -6z" />
<glyph unicode="&#xea;" horiz-adv-x="378" d="M14 190v248q0 82 51.5 122t120.5 40q82 0 130 -54t48 -131v-61q0 -9 -9 -9h-167q-6 0 -6 -8v-157q0 -22 16 -22t16 21v61q0 8 9 8l129 -7q10 -2 10 -11v-64q0 -89 -50.5 -127.5t-129.5 -38.5t-123.5 51.5t-44.5 138.5zM182 454v-50q0 -5 6 -5q26 0 26 5q0 49 -2.5 60 t-14.5 11q-15 0 -15 -21zM320 635h-77q-5 0 -28 20.5t-26 20.5t-4 -1q-5 -5 -26.5 -22.5t-23.5 -17.5h-77q-5 0 -5 5q0 3 3 6l90 105q4 4 10 4h66q4 0 10 -4l91 -106q2 -2 2 -5q0 -5 -5 -5z" />
<glyph unicode="&#xeb;" horiz-adv-x="378" d="M14 190v248q0 82 51.5 122t120.5 40q82 0 130 -54t48 -131v-61q0 -9 -9 -9h-167q-6 0 -6 -8v-157q0 -22 16 -22t16 21v61q0 8 9 8l129 -7q10 -2 10 -11v-64q0 -89 -50.5 -127.5t-129.5 -38.5t-123.5 51.5t-44.5 138.5zM182 454v-50q0 -5 6 -5q26 0 26 5q0 49 -2.5 60 t-14.5 11q-15 0 -15 -21zM172 734v-92q0 -7 -8 -7h-88q-7 0 -7 8v89q0 8 7 8h89q7 0 7 -6zM309 734v-92q0 -7 -8 -7h-88q-7 0 -7 8v89q0 8 7 8h89q7 0 7 -6z" />
<glyph unicode="&#xec;" horiz-adv-x="202" d="M182 590v-582q0 -8 -7 -8h-147q-8 0 -8 9v579q0 12 10 12h142q10 0 10 -10zM176 635h-75q-4 0 -10 6l-89 115q-1 1 -1 4q0 8 8 8h91q8 0 12 -8l68 -112q2 -4 2 -6q0 -7 -6 -7z" />
<glyph unicode="&#xed;" horiz-adv-x="202" d="M182 590v-582q0 -8 -7 -8h-147q-8 0 -8 9v579q0 12 10 12h142q10 0 10 -10zM101 635h-75q-6 0 -6 7q0 2 2 6l68 112q5 7 12 7h91q9 0 9 -8q0 -1 -2 -3l-88 -115q-4 -6 -11 -6z" />
<glyph unicode="&#xee;" horiz-adv-x="202" d="M182 590v-582q0 -8 -7 -8h-147q-8 0 -8 9v579q0 12 10 12h142q10 0 10 -10zM232 635h-77q-5 0 -28 20.5t-26 20.5t-4 -1q-5 -5 -26.5 -22.5t-23.5 -17.5h-77q-5 0 -5 5q0 3 3 6l90 105q4 4 10 4h66q4 0 10 -4l91 -106q2 -2 2 -5q0 -5 -5 -5z" />
<glyph unicode="&#xef;" horiz-adv-x="202" d="M182 590v-582q0 -8 -7 -8h-147q-8 0 -8 9v579q0 12 10 12h142q10 0 10 -10zM84 734v-92q0 -7 -8 -7h-88q-7 0 -7 8v89q0 8 7 8h89q7 0 7 -6zM221 734v-92q0 -7 -8 -7h-88q-7 0 -7 8v89q0 8 7 8h89q7 0 7 -6z" />
<glyph unicode="&#xf0;" horiz-adv-x="372" d="M14 156v289q0 68 47 111t123 44q0 29 -11 48l-17 -16q-12 -12 -14 -12t-38 36q-2 2 -2 4q0 3 26 29q-15 7 -42 7q-8 0 -4 10l21 56q1 3 9 3q46 0 78 -13q37 36 38 36q2 0 21.5 -19.5t19.5 -22.5q0 -1 -5 -6l-12 -12q-6 -6 -7 -8q113 -85 113 -265v-299q0 -70 -47.5 -113 t-124.5 -43q-76 0 -124 43.5t-48 112.5zM170 420v-238q0 -20 16 -20t16 20v238q0 20 -16 20t-16 -20z" />
<glyph unicode="&#xf1;" horiz-adv-x="374" d="M165 0h-137q-8 0 -8 10v583q0 7 7 7h125q4 0 10.5 -21t8.5 -21t7 7q29 37 78 37q39 0 68.5 -29t29.5 -77v-491q0 -5 -5 -5h-138q-7 0 -7 7v409q0 20 -16 20t-16 -20v-410q0 -6 -7 -6zM242 749l67 -12q3 0 3 -5q0 -25 -21.5 -59.5t-57.5 -34.5q-17 0 -40 10.5t-33 10.5 q-21 0 -25 -20q0 -2 -1 -3t-2 -1h-1l-66 11q-3 0 -3 5q0 9 5.5 28t25 41.5t47.5 22.5q22 0 43 -10.5t33 -10.5q17 0 22 20q0 7 4 7z" />
<glyph unicode="&#xf2;" horiz-adv-x="372" d="M14 156v289q0 69 47.5 112t124.5 43q78 0 125 -43.5t47 -116.5v-284q0 -70 -47.5 -113t-124.5 -43q-76 0 -124 43.5t-48 112.5zM170 420v-238q0 -20 16 -20t16 20v238q0 20 -16 20t-16 -20zM271 635h-75q-4 0 -10 6l-89 115q-1 1 -1 4q0 8 8 8h91q8 0 12 -8l68 -112 q2 -4 2 -6q0 -7 -6 -7z" />
<glyph unicode="&#xf3;" horiz-adv-x="372" d="M14 156v289q0 69 47.5 112t124.5 43q78 0 125 -43.5t47 -116.5v-284q0 -70 -47.5 -113t-124.5 -43q-76 0 -124 43.5t-48 112.5zM170 420v-238q0 -20 16 -20t16 20v238q0 20 -16 20t-16 -20zM176 635h-75q-6 0 -6 7q0 2 2 6l68 112q5 7 12 7h91q9 0 9 -8q0 -1 -2 -3 l-88 -115q-5 -6 -11 -6z" />
<glyph unicode="&#xf4;" horiz-adv-x="372" d="M14 156v289q0 69 47.5 112t124.5 43q78 0 125 -43.5t47 -116.5v-284q0 -70 -47.5 -113t-124.5 -43q-76 0 -124 43.5t-48 112.5zM170 420v-238q0 -20 16 -20t16 20v238q0 20 -16 20t-16 -20zM317 635h-77q-5 0 -28 20.5t-26 20.5t-4 -1q-5 -5 -26.5 -22.5t-23.5 -17.5h-77 q-5 0 -5 5q0 3 3 6l90 105q4 4 10 4h66q4 0 10 -4l91 -106q2 -2 2 -5q0 -5 -5 -5z" />
<glyph unicode="&#xf5;" horiz-adv-x="372" d="M14 156v289q0 69 47.5 112t124.5 43q78 0 125 -43.5t47 -116.5v-284q0 -70 -47.5 -113t-124.5 -43q-76 0 -124 43.5t-48 112.5zM170 420v-238q0 -20 16 -20t16 20v238q0 20 -16 20t-16 -20zM241 749l67 -12q3 0 3 -5q0 -25 -21.5 -59.5t-57.5 -34.5q-17 0 -40 10.5 t-33 10.5q-21 0 -25 -20q0 -2 -1 -3t-2 -1h-1l-66 11q-3 0 -3 5q0 9 5.5 28t25 41.5t47.5 22.5q22 0 43 -10.5t33 -10.5q17 0 22 20q0 7 4 7z" />
<glyph unicode="&#xf6;" horiz-adv-x="372" d="M14 156v289q0 69 47.5 112t124.5 43q78 0 125 -43.5t47 -116.5v-284q0 -70 -47.5 -113t-124.5 -43q-76 0 -124 43.5t-48 112.5zM170 420v-238q0 -20 16 -20t16 20v238q0 20 -16 20t-16 -20zM169 734v-92q0 -7 -8 -7h-88q-7 0 -7 8v89q0 8 7 8h89q7 0 7 -6zM306 734v-92 q0 -7 -8 -7h-88q-7 0 -7 8v89q0 8 7 8h89q7 0 7 -6z" />
<glyph unicode="&#xf7;" d="M230 407h-2q-27 0 -50.5 26t-23.5 60q0 33 24 59.5t52 26.5q30 0 52 -26t22 -60q0 -35 -21.5 -60.5t-52.5 -25.5zM413 236h-375v107h375v-107zM229 173h1q28 0 50.5 -26t22.5 -60t-23 -60.5t-51 -26.5q-32 0 -54.5 26t-22.5 61q0 36 22 61t55 25z" />
<glyph unicode="&#xf8;" horiz-adv-x="374" d="M358 440v-284q0 -70 -47.5 -113t-123.5 -43q-37 0 -67 10q-19 -33 -24 -40q-4 -5 -8 -5h-2l-68 41q-3 2 -3 6q0 1 28 53q-29 37 -29 91v289q0 69 47.5 112t125.5 43q37 0 70 -11q20 43 24 43q2 0 4 -1l71 -37q3 -2 3 -5q0 -2 -26 -58q25 -36 25 -91zM170 420v-238 q0 -20 17 -20q15 0 15 20v238q0 20 -15 20q-17 0 -17 -20z" />
<glyph unicode="&#xf9;" horiz-adv-x="360" d="M20 104v486q0 10 8 10h126q8 0 8 -8v-382q0 -20 16 -20t16 20v382q0 8 7 8h130q9 0 9 -7v-586q0 -7 -8 -7h-118q-3 0 -9 17.5t-9 17.5t-11 -8q-29 -27 -71 -27q-35 0 -64.5 27.5t-29.5 76.5zM265 635h-75q-4 0 -10 6l-89 115q-1 1 -1 4q0 8 8 8h91q8 0 12 -8l68 -112 q2 -4 2 -6q0 -7 -6 -7z" />
<glyph unicode="&#xfa;" horiz-adv-x="360" d="M20 104v486q0 10 8 10h126q8 0 8 -8v-382q0 -20 16 -20t16 20v382q0 8 7 8h130q9 0 9 -7v-586q0 -7 -8 -7h-118q-3 0 -9 17.5t-9 17.5t-11 -8q-29 -27 -71 -27q-35 0 -64.5 27.5t-29.5 76.5zM170 635h-75q-6 0 -6 7q0 2 2 6l68 112q5 7 12 7h91q9 0 9 -8q0 -1 -2 -3 l-88 -115q-5 -6 -11 -6z" />
<glyph unicode="&#xfb;" horiz-adv-x="360" d="M20 104v486q0 10 8 10h126q8 0 8 -8v-382q0 -20 16 -20t16 20v382q0 8 7 8h130q9 0 9 -7v-586q0 -7 -8 -7h-118q-3 0 -9 17.5t-9 17.5t-11 -8q-29 -27 -71 -27q-35 0 -64.5 27.5t-29.5 76.5zM311 635h-77q-5 0 -28 20.5t-26 20.5t-4 -1q-5 -5 -26.5 -22.5t-23.5 -17.5 h-77q-5 0 -5 5q0 3 3 6l90 105q4 4 10 4h66q4 0 10 -4l91 -106q2 -2 2 -5q0 -5 -5 -5z" />
<glyph unicode="&#xfc;" horiz-adv-x="360" d="M20 104v486q0 10 8 10h126q8 0 8 -8v-382q0 -20 16 -20t16 20v382q0 8 7 8h130q9 0 9 -7v-586q0 -7 -8 -7h-118q-3 0 -9 17.5t-9 17.5t-11 -8q-29 -27 -71 -27q-35 0 -64.5 27.5t-29.5 76.5zM163 734v-92q0 -7 -8 -7h-88q-7 0 -7 8v89q0 8 7 8h89q7 0 7 -6zM300 734v-92 q0 -7 -8 -7h-88q-7 0 -7 8v89q0 8 7 8h89q7 0 7 -6z" />
<glyph unicode="&#xfd;" horiz-adv-x="353" d="M114 126l-114 467q0 7 5 7h138q6 0 8 -7l22 -150q2 -8 4 -8t4 8l28 152q3 5 6 5h132q5 -1 6 -4l-141 -738q-2 -8 -9 -8h-128q-9 0 -7 9l46 252q2 7 0 15zM167 635h-75q-6 0 -6 7q0 2 2 6l68 112q5 7 12 7h91q9 0 9 -8q0 -1 -2 -3l-88 -115q-4 -6 -11 -6z" />
<glyph unicode="&#xfe;" horiz-adv-x="364" d="M28 765h135q5 0 5 -7v-176q0 -7 5 -7q4 0 13 7q23 18 58 18q107 0 107 -199v-209q0 -103 -34 -147.5t-80 -44.5q-33 0 -57 21q-7 7 -9 7q-3 0 -3 -8v-160q0 -10 -9 -10h-130q-9 0 -9 9v897q0 9 8 9zM168 424v-240q0 -26 19 -26q13 0 13 20v251q0 18 -13 18q-7 0 -11 -4 q-8 -8 -8 -19z" />
<glyph unicode="&#xff;" horiz-adv-x="353" d="M114 126l-114 467q0 7 5 7h138q6 0 8 -7l22 -150q2 -8 4 -8t4 8l28 152q3 5 6 5h132q5 -1 6 -4l-141 -738q-2 -8 -9 -8h-128q-9 0 -7 9l46 252q2 7 0 15zM160 734v-92q0 -7 -8 -7h-88q-7 0 -7 8v89q0 8 7 8h89q7 0 7 -6zM297 734v-92q0 -7 -8 -7h-88q-7 0 -7 8v89 q0 8 7 8h89q7 0 7 -6z" />
<glyph unicode="&#x152;" horiz-adv-x="637" d="M606 0h-384q-88 0 -148 59.5t-60 169.5v292q0 111 59.5 170t148.5 59h383q10 0 10 -11v-180q0 -10 -11 -10h-168q-6 0 -6 -7v-56q0 -7 7 -7h78q8 0 8 -7v-182q0 -9 -9 -9h-81q-6 0 -6 -8v-59q0 -7 6 -7h173q11 0 11 -10v-186q0 -11 -11 -11zM205 518v-286q0 -26 15 -26 q17 0 17 26v286q0 25 -17 25q-15 0 -15 -25z" />
<glyph unicode="&#x153;" horiz-adv-x="566" d="M550 230v-64q0 -89 -50.5 -127.5t-129.5 -38.5q-52 0 -89 23q-39 -23 -95 -23q-77 0 -124.5 43.5t-47.5 112.5v289q0 69 47.5 112t124.5 43q55 0 94 -22q43 22 94 22q82 0 130 -54t48 -131v-61q0 -9 -9 -9h-167q-6 0 -6 -8v-157q0 -22 16 -22q6 0 11 6t5 16v60q0 8 9 8 l129 -7q10 -2 10 -11zM169 416v-238q0 -20 17 -20q15 0 15 20v238q0 20 -15 20q-17 0 -17 -20zM370 455v-51q0 -4 6 -4q26 0 26 4q0 49 -2.5 60t-14.5 11q-15 0 -15 -20z" />
<glyph unicode="&#x178;" horiz-adv-x="497" d="M127 315l-127 427q-1 2 -1 4q0 4 7 4h182q8 0 11 -10l48 -207q2 -8 5 -8q5 0 5 8l46 204q4 13 12 13h174q5 0 7 -4t1 -8l-131 -421q-9 -31 -9 -53v-251q-2 -13 -14 -13h-195q-10 0 -12 12v254q0 21 -9 49zM232 884v-92q0 -7 -8 -7h-88q-7 0 -7 8v89q0 8 7 8h89q7 0 7 -6z M369 884v-92q0 -7 -8 -7h-88q-7 0 -7 8v89q0 8 7 8h89q7 0 7 -6z" />
<glyph unicode="&#x2c6;" horiz-adv-x="348" d="M305 635h-77q-5 0 -28 20.5t-26 20.5t-4 -1q-5 -5 -26.5 -22.5t-23.5 -17.5h-77q-5 0 -5 5q0 3 3 6l90 105q4 4 10 4h66q4 0 10 -4l91 -106q2 -2 2 -5q0 -5 -5 -5z" />
<glyph unicode="&#x2dc;" horiz-adv-x="348" d="M229 749l67 -12q3 0 3 -5q0 -25 -21.5 -59.5t-57.5 -34.5q-17 0 -40 10.5t-33 10.5q-21 0 -25 -20q0 -2 -1 -3t-2 -1h-1l-66 11q-3 0 -3 5q0 9 5.5 28t25 41.5t47.5 22.5q22 0 43 -10.5t33 -10.5q17 0 22 20q0 7 4 7z" />
<glyph unicode="&#x2000;" horiz-adv-x="459" />
<glyph unicode="&#x2001;" horiz-adv-x="918" />
<glyph unicode="&#x2002;" horiz-adv-x="459" />
<glyph unicode="&#x2003;" horiz-adv-x="918" />
<glyph unicode="&#x2004;" horiz-adv-x="306" />
<glyph unicode="&#x2005;" horiz-adv-x="229" />
<glyph unicode="&#x2006;" horiz-adv-x="153" />
<glyph unicode="&#x2007;" horiz-adv-x="153" />
<glyph unicode="&#x2008;" horiz-adv-x="114" />
<glyph unicode="&#x2009;" horiz-adv-x="183" />
<glyph unicode="&#x200a;" horiz-adv-x="51" />
<glyph unicode="&#x2010;" horiz-adv-x="262" d="M20 430h222v-123h-222v123z" />
<glyph unicode="&#x2011;" horiz-adv-x="262" d="M20 430h222v-123h-222v123z" />
<glyph unicode="&#x2013;" horiz-adv-x="500" d="M0 430h500v-123h-500v123z" />
<glyph unicode="&#x2014;" horiz-adv-x="1000" d="M0 430h1000v-123h-1000v123z" />
<glyph unicode="&#x2018;" horiz-adv-x="208" d="M92 750h95q9 0 7 -7l-37 -172q-2 -7 -8 -7h-128q-7 0 -7 6q0 2 1 5l68 169q3 6 9 6z" />
<glyph unicode="&#x2019;" horiz-adv-x="208" d="M59 750h128q7 0 7 -6q0 -2 -1 -5l-68 -169q-3 -6 -9 -6h-95q-9 0 -7 7l37 172q2 7 8 7z" />
<glyph unicode="&#x201a;" horiz-adv-x="176" d="M31 118h128q7 0 7 -5q0 -2 -1 -5l-68 -169q-3 -6 -9 -6h-95q-9 0 -7 7l37 172q1 6 8 6z" />
<glyph unicode="&#x201c;" horiz-adv-x="415" d="M299 750h95q9 0 7 -7l-37 -172q-2 -7 -8 -7h-128q-10 0 -6 11l68 169q3 6 9 6zM92 750h95q9 0 7 -7l-37 -172q-2 -7 -8 -7h-128q-7 0 -7 6q0 2 1 5l68 169q3 6 9 6z" />
<glyph unicode="&#x201d;" horiz-adv-x="415" d="M59 750h128q10 0 6 -11l-68 -169q-3 -6 -9 -6h-95q-9 0 -7 7l37 172q2 7 8 7zM266 750h128q7 0 7 -6q0 -2 -1 -5l-68 -169q-3 -6 -9 -6h-95q-9 0 -7 7l37 172q2 7 8 7z" />
<glyph unicode="&#x201e;" horiz-adv-x="350" d="M31 118h128q10 0 6 -10l-68 -169q-3 -6 -9 -6h-95q-9 0 -7 7l37 172q1 6 8 6zM206 118h128q7 0 7 -5q0 -2 -1 -5l-68 -169q-3 -6 -9 -6h-95q-9 0 -7 7l37 172q2 6 8 6z" />
<glyph unicode="&#x2022;" horiz-adv-x="289" d="M145 192q-62 0 -96.5 47.5t-34.5 135.5t34.5 136t96.5 48t96 -48t34 -136q0 -87 -34.5 -135t-95.5 -48z" />
<glyph unicode="&#x2026;" horiz-adv-x="516" d="M158 139v-128q0 -11 -11 -11h-122q-10 0 -10 12v124q0 4 3.5 7.5t6.5 3.5h123q10 0 10 -8zM330 139v-128q0 -11 -11 -11h-122q-10 0 -10 12v124q0 4 3.5 7.5t6.5 3.5h123q10 0 10 -8zM502 139v-128q0 -11 -11 -11h-122q-10 0 -10 12v124q0 4 3.5 7.5t6.5 3.5h123 q10 0 10 -8z" />
<glyph unicode="&#x202f;" horiz-adv-x="183" />
<glyph unicode="&#x2039;" horiz-adv-x="150" d="M135 504v-76q0 -5 -20.5 -28.5t-20.5 -26.5q0 -1 2 -3t12 -15l18 -24q9 -11 9 -12v-76q0 -5 -5 -5q-3 0 -5 2l-105 91q-5 3 -5 9v66q0 7 5 10l105 91q2 2 5 2q5 0 5 -5z" />
<glyph unicode="&#x203a;" horiz-adv-x="150" d="M15 428v76q0 5 5 5q3 0 5 -2l105 -91q5 -3 5 -10v-66q0 -6 -5 -9l-105 -91q-2 -2 -5 -2q-5 0 -5 5v76q0 1 9 12l18 24q10 13 12 15t2 3q0 3 -20.5 26.5t-20.5 28.5z" />
<glyph unicode="&#x205f;" horiz-adv-x="229" />
<glyph unicode="&#x20ac;" horiz-adv-x="500" d="M22 353h12v28h-11q-10 0 -10 9v63q0 7 21 8v61q0 96 53 157t145 61t146 -61t54 -157v-18l-183 -7v21q0 20 -16 20t-16 -19v-58h92q35 0 43 -1t8 -7v-63q0 -9 -10 -9h-133v-28h133q10 0 10 -8v-63q0 -9 -10 -9h-133v-48q0 -20 16 -20t16 20v22l183 -7v-19 q0 -98 -54 -159.5t-146 -61.5t-145 61.5t-53 159.5v52h-11q-10 0 -10 9v63q0 8 9 8z" />
<glyph unicode="&#x2122;" horiz-adv-x="782" d="M216 300h-110q-9 0 -9 8v313q0 8 -9 8h-65q-2 0 -5 2.5t-3 5.5v107q0 6 6 6h278q8 0 8 -7v-106q0 -8 -9 -8h-65q-7 0 -7 -9v-312q0 -8 -10 -8zM455 300h-110q-6 0 -6 5v439q0 6 6 6h174q4 0 6 -6l20 -133q0 -6 3 -6q2 0 3 6l15 132q2 7 7 7h181q7 0 7 -7v-437q0 -6 -7 -6 h-118q-7 0 -7 6v198q0 7 -3 7q-5 0 -6 -12l-31 -194q-1 -5 -7 -5h-74q-6 0 -7 6l-30 193q-2 12 -6 12q-3 0 -3 -8v-197q0 -6 -7 -6z" />
</font>
</defs>
</svg>
